<svg aria-hidden="true" style="width:0;height:0;position:absolute;overflow:hidden" xmlns="http://www.w3.org/2000/svg"><defs><symbol id="icon-close1" viewBox="0 0 32 32"><path stroke-linejoin="round" stroke-linecap="round" stroke-width="3.429" d="M24 8 8 24M8 8l16 16"/></symbol><symbol id="open-book2" viewBox="0 0 33 32"><path fill="#fcf9f7" style="fill:var(--color1,#fcf9f7)" d="M11.283 8.517c-.504.034-.809.105-1.115.258a2.848 2.848 0 0 1-.607.206c-.196.044-.379.097-.406.118s-.116.096-.197.167c-.084.073-.249.17-.38.221-.152.06-.277.136-.364.223-.241.24-.538.61-.607.756l-.069.144-.008 5.569c-.009 5.862-.013 5.669.138 5.811.15.141.654.01.875-.228.087-.094.202-.161.458-.266.188-.077.41-.188.493-.245.175-.12.393-.194.854-.288 1.231-.25 1.774-.252 2.856-.01.529.118.691.179.799.298.035.038.201.14.37.227.364.187.853.639 1.166 1.078.243.341.482.349.599.018.063-.178.064-10.596.002-10.957-.13-.746-.213-1.003-.374-1.152a1.668 1.668 0 0 1-.208-.288 2.308 2.308 0 0 0-.764-.737.986.986 0 0 1-.272-.201c-.089-.121-.197-.174-.537-.265-.335-.09-.452-.136-.612-.246-.19-.13-1.226-.281-1.655-.242l-.432.03zm9.361-.001c-.542.031-.803.091-1.097.252a2.474 2.474 0 0 1-.519.197c-.36.088-.436.127-.56.281a1.052 1.052 0 0 1-.305.227 1.583 1.583 0 0 0-.674.641 2.731 2.731 0 0 1-.238.35c-.14.153-.206.303-.28.628-.156.69-.151.505-.151 6.129 0 5.855-.014 5.471.198 5.58s.233.097.463-.251a2.25 2.25 0 0 1 .384-.46c.094-.077.258-.221.365-.32s.286-.229.4-.288c.114-.06.283-.166.376-.237.216-.164.769-.315 1.598-.437.841-.124 2.53.148 2.932.472.067.054.225.137.352.184.362.135.502.208.557.292.08.123.293.224.564.268l.251.041.203-.203v-11.25l-.068-.148c-.038-.081-.14-.226-.227-.322s-.205-.242-.262-.325c-.089-.129-.15-.173-.438-.311-.184-.088-.389-.207-.454-.264s-.141-.121-.168-.141a2.316 2.316 0 0 0-.406-.118 2.773 2.773 0 0 1-.607-.207c-.331-.167-1.493-.359-1.739-.288-.009.003-.211.016-.449.029z"/><path fill="#828282" style="fill:var(--color2,#828282)" d="M6.841 2.277c-.382.049-.535.167-.535.411 0 .059-.02.065-.221.065-.324 0-.323-.001-.323.273v.234l-.451.01c-.523.012-.541.022-.541.301 0 .191-.018.205-.255.205-.193 0-.234.046-.251.288-.015.202-.037.222-.246.224-.195.002-.229.078-.258.567l-.023.387-.096.019a1.21 1.21 0 0 1-.186.019c-.174 0-.19.068-.19.819v.677l-.145.02c-.202.028-.262.067-.309.205-.053.155-.079 17.368-.027 17.803.04.328.086.387.319.41l.163.016.001.66c.001.869-.023.807.328.852l.152.02v.193c0 .11.02.23.047.278.026.047.068.139.094.205.045.113.122.169.315.229.045.014.056.054.056.202.001.251.051.343.192.353.316.024.319.026.319.211 0 .247.043.288.317.303.216.012.228.017.228.09 0 .043.02.126.045.185.044.106.055.112.339.196.044.013.195.032.336.043l.256.019.009.096c.027.274.092.317.558.367.431.046 18.856.046 19.287 0 .465-.05.531-.093.558-.367.009-.094.013-.096.201-.104.346-.015.336-.007.336-.28v-.239h.432c.522 0 .56-.02.56-.3 0-.193.022-.21.272-.212.188-.001.213-.03.232-.267l.017-.211.148-.02c.312-.042.313-.044.344-.587l.022-.381.095-.019c.052-.011.136-.019.186-.019.174 0 .19-.068.19-.819v-.677l.161-.021c.201-.027.275-.098.308-.297.048-.28.033-17.804-.015-17.94-.046-.128-.154-.187-.347-.187h-.107v-.664c0-.873.023-.811-.328-.856l-.152-.02V5.07c0-.377-.169-.697-.388-.734l-.125-.021v-.181c-.001-.247-.051-.339-.192-.35-.316-.024-.319-.026-.319-.211 0-.246-.043-.288-.314-.303l-.225-.013-.02-.105a.383.383 0 0 0-.284-.308c-.074-.021-.148-.05-.165-.065s-.143-.027-.28-.027h-.25v-.098c0-.251-.11-.325-.575-.381-.337-.041-18.957-.038-19.278.003zm5.444 6.237c.603.037.914.098 1.085.215.161.11.277.156.612.246.34.091.448.144.537.265.037.051.16.141.272.201.264.14.61.473.764.737.067.114.161.244.208.288.161.15.244.406.374 1.152.063.361.061 10.779-.002 10.957-.117.33-.355.323-.599-.018-.313-.439-.802-.892-1.166-1.078a2.095 2.095 0 0 1-.37-.227c-.223-.247-1.508-.504-2.335-.468-.851.037-1.866.256-2.174.467a3.552 3.552 0 0 1-.493.245c-.256.105-.371.172-.458.266-.221.238-.724.369-.875.228-.151-.142-.147.051-.138-5.811l.008-5.569.069-.144c.07-.146.367-.516.607-.756.087-.086.211-.163.364-.223.131-.051.297-.148.38-.221.082-.072.17-.147.197-.167s.209-.074.406-.118c.225-.051.45-.127.607-.206.306-.154.611-.224 1.115-.258l.432-.03c.027-.002.283.01.57.027zm9.332.001c.624.04.891.097 1.215.26.159.08.381.156.607.207.196.044.379.097.406.118s.102.084.168.141c.066.057.27.176.454.264.288.138.35.181.438.311.057.083.175.229.262.325s.189.241.227.322l.068.148v11.25l-.203.203-.251-.041c-.272-.044-.484-.145-.564-.268-.055-.084-.195-.157-.557-.292a1.54 1.54 0 0 1-.352-.184c-.402-.324-2.091-.596-2.932-.472-.829.122-1.382.274-1.598.437-.093.07-.262.177-.376.237s-.294.189-.4.288-.27.243-.365.32a2.25 2.25 0 0 0-.384.46c-.23.347-.253.359-.463.251s-.198.275-.198-5.58c0-5.624-.005-5.439.151-6.129.073-.325.14-.475.28-.628.053-.058.16-.215.238-.35.167-.287.387-.497.674-.641.121-.061.247-.155.305-.227.124-.154.2-.192.56-.281.165-.04.387-.125.519-.197.293-.161.555-.22 1.097-.252.238-.014.44-.027.449-.029s.245.01.524.028z"/></symbol><symbol id="open-book" viewBox="0 0 32 32"><path fill="#fcfaf8" style="fill:var(--color3,#fcfaf8)" d="M10.352 8.723c-.631.071-.685.082-.885.186-.117.061-.33.142-.472.18a1.082 1.082 0 0 0-.379.167c-.066.053-.199.132-.296.176s-.241.126-.32.184c-.079.058-.203.135-.275.171s-.157.107-.188.156a1.306 1.306 0 0 1-.178.203.759.759 0 0 0-.196.336l-.075.223-.009 5.568c-.009 5.926-.016 5.662.152 5.824l.091.087.261-.104c.143-.057.328-.158.411-.223s.201-.145.262-.176.163-.098.225-.148c.062-.05.216-.126.342-.168s.293-.115.37-.16c.081-.047.297-.117.505-.163.2-.044.473-.118.605-.164.363-.125 1.579-.164 1.873-.059l.256.096c.106.04.332.104.503.143.19.043.358.102.432.152.066.045.198.117.292.159s.253.14.352.219c.305.241.617.507.695.591.249.267.405.466.473.599.043.084.136.2.208.258a.458.458 0 0 1 .181.288c.165.6.167.549.19-5.081.022-5.43.01-6.1-.109-6.51a6.09 6.09 0 0 1-.117-.512c-.051-.28-.135-.503-.206-.546a1.089 1.089 0 0 1-.138-.234c-.148-.303-.662-.804-1.048-1.023a1.212 1.212 0 0 1-.222-.152c-.059-.071-.242-.157-.43-.203a1.212 1.212 0 0 1-.304-.13c-.181-.114-.314-.149-.736-.191a71.829 71.829 0 0 1-.608-.065c-.396-.046-.733-.034-1.488.051zm9.744-.049a73.21 73.21 0 0 1-.512.06c-.454.052-.624.093-.758.184-.126.085-.188.11-.415.169-.074.019-.195.085-.27.148s-.209.151-.298.196c-.335.17-.862.686-1.026 1.006a1.14 1.14 0 0 1-.143.234c-.075.046-.155.277-.22.629a3.965 3.965 0 0 1-.124.512c-.052.13-.056.513-.064 5.845-.01 6.299-.009 6.305.168 5.66.042-.154.071-.198.163-.252a.595.595 0 0 0 .208-.257c.053-.105.15-.251.216-.324s.152-.176.192-.228c.079-.104.312-.306.666-.577.126-.097.238-.189.248-.204s.1-.061.202-.101.228-.104.281-.142c.129-.093.237-.132.571-.209a3.33 3.33 0 0 0 .432-.128c.256-.108.448-.132 1.062-.132.618 0 .759.018 1.135.146.123.042.375.107.56.146s.386.102.448.141c.098.062.234.12.583.249.048.018.104.053.125.078s.133.098.249.162.262.161.323.216c.062.055.163.118.224.141s.166.065.233.092c.135.056.263-.023.341-.212.076-.183.029-11.149-.048-11.42-.08-.279-.332-.576-.629-.742-.101-.056-.223-.135-.272-.176s-.153-.106-.233-.146a3.29 3.29 0 0 1-.31-.184 1.502 1.502 0 0 0-.455-.187 1.753 1.753 0 0 1-.414-.158c-.268-.177-1.75-.322-2.438-.238z"/><path fill="#878787" style="fill:var(--color4,#878787)" d="M7.187 2.337c-.11.033-.146.08-.146.195v.084l-.468.014c-.513.015-.556.033-.556.221 0 .086-.002.087-.289.109-.326.026-.383.06-.383.226v.11h-.156c-.168 0-.194.031-.195.23 0 .08-.011.087-.152.096-.122.008-.154.022-.163.074-.019.109-.164.232-.36.305-.158.059-.194.087-.227.179-.022.06-.051.108-.065.108s-.026.071-.026.158v.158l-.304.02-.019.336h-.143c-.167 0-.206.059-.206.316 0 .158-.074.263-.247.352-.065.033-.072.063-.08.348l-.009.312-.118.01c-.183.015-.19.039-.21.72l-.018.621-.105.038c-.202.073-.189-.496-.189 8.403 0 9.029-.016 8.344.202 8.388l.093.018.018.64c.019.696.019.694.212.72l.132.018v.314c0 .297.004.315.072.335.157.048.248.175.248.349.001.281.017.306.194.306h.155l.019.336.304.02v.14c0 .269.095.417.309.482s.363.185.363.293c0 .067.014.074.16.074.153 0 .16.004.16.088.001.2.027.232.191.232.152 0 .152 0 .172.124.027.169.06.188.377.214l.276.022.036.121c.047.156.071.164.553.183l.405.016.035.138c.031.125.047.141.155.164.066.014 4.044.025 8.84.025 9.672 0 8.896.018 8.928-.208l.016-.112.459-.016c.502-.018.549-.037.549-.225 0-.084.002-.085.296-.106.329-.023.376-.052.376-.235 0-.105.001-.106.156-.106.169 0 .194-.03.195-.232 0-.084.007-.088.16-.088.146 0 .16-.007.16-.074 0-.108.149-.228.363-.293s.309-.213.309-.482v-.14l.304-.02.019-.336h.143c.167 0 .206-.059.206-.316 0-.16.065-.254.231-.337.068-.034.074-.06.082-.344l.009-.308.14-.021c.183-.027.181-.02.201-.743l.018-.613.093-.019c.218-.044.202.642.202-8.388 0-8.922.014-8.33-.194-8.405l-.11-.04-.004-.45a10.168 10.168 0 0 0-.024-.657l-.02-.208-.304-.055v-.316c0-.257-.009-.317-.047-.317-.128 0-.273-.193-.274-.363-.001-.284-.016-.309-.195-.309h-.156v-.157c0-.173-.024-.195-.211-.195-.108 0-.109-.002-.109-.141 0-.273-.093-.416-.311-.477-.196-.055-.345-.174-.367-.293-.009-.052-.041-.066-.163-.074-.141-.009-.152-.016-.152-.096-.001-.199-.027-.23-.192-.23h-.154l-.022-.128c-.027-.16-.065-.18-.394-.209-.261-.023-.265-.025-.284-.117-.032-.16-.133-.197-.575-.212l-.396-.013-.018-.084c-.033-.15-.042-.165-.126-.197-.105-.04-17.526-.038-17.66.002zm4.653 6.335c.15.017.423.047.608.065.422.042.555.077.736.191.079.05.216.109.304.13.188.046.371.132.43.203.023.028.123.096.222.152.387.219.9.72 1.048 1.023.057.117.12.222.138.234.071.044.155.266.206.546.029.159.082.39.117.512.12.411.131 1.081.109 6.51-.022 5.63-.024 5.681-.19 5.081a.458.458 0 0 0-.181-.288.93.93 0 0 1-.208-.258c-.068-.134-.224-.332-.473-.599a9.832 9.832 0 0 0-.695-.591c-.099-.079-.258-.177-.352-.219s-.226-.113-.292-.159a1.481 1.481 0 0 0-.432-.152c-.171-.038-.398-.103-.503-.143l-.256-.096c-.294-.105-1.51-.066-1.873.059-.133.046-.405.12-.605.164a2.27 2.27 0 0 0-.505.163c-.077.045-.244.118-.37.16s-.28.119-.342.168-.163.116-.225.148c-.062.032-.18.111-.262.176s-.268.166-.411.223l-.261.104-.091-.087c-.168-.161-.161.102-.152-5.824l.009-5.568.075-.223a.759.759 0 0 1 .196-.336c.066-.062.146-.154.178-.203s.116-.12.188-.156c.072-.036.196-.113.275-.171s.223-.14.32-.184c.097-.043.23-.122.296-.176a1.12 1.12 0 0 1 .379-.167 2.89 2.89 0 0 0 .472-.18c.346-.179 1.702-.314 2.373-.237zm9.52.018c.749.073 1.027.125 1.174.222.069.045.255.116.414.158.188.049.347.114.455.187.091.062.23.145.31.184s.184.105.233.146c.049.041.171.12.272.176.298.166.549.462.629.742.078.271.124 11.237.048 11.42-.078.189-.206.268-.341.212-.066-.028-.171-.069-.233-.092s-.162-.087-.224-.141c-.062-.055-.207-.152-.323-.216s-.228-.137-.249-.162a.358.358 0 0 0-.125-.078c-.349-.129-.485-.188-.583-.249-.062-.039-.263-.102-.448-.141s-.437-.104-.56-.146c-.605-.205-1.727-.213-2.197-.014a3.495 3.495 0 0 1-.432.128c-.334.077-.442.116-.571.209-.053.038-.179.102-.281.142s-.192.086-.202.101c-.01.016-.121.108-.248.204-.354.271-.587.473-.666.577-.04.052-.126.155-.192.228s-.163.219-.216.324a.608.608 0 0 1-.208.257c-.093.055-.121.099-.163.252-.178.645-.178.639-.168-5.66.008-5.332.012-5.715.064-5.845.031-.076.087-.307.124-.512.065-.353.146-.583.22-.629.018-.011.083-.117.143-.234.165-.32.692-.837 1.026-1.006.089-.045.223-.133.298-.196s.196-.129.27-.148c.228-.058.29-.083.415-.169.135-.091.305-.133.758-.184l.512-.06c.341-.042.722-.037 1.264.016z"/></symbol><symbol id="book-shop" viewBox="0 0 34 32"><path style="fill:var(--color5,#fff)" d="M29.664 9.883c-.053.028-.136.084-.184.124s-.165.095-.259.123c-.094.027-.225.092-.291.145s-.194.119-.285.149c-.091.03-.214.096-.272.146s-.192.116-.297.145a.76.76 0 0 0-.263.123c-.084.083-.255.175-.327.175-.067 0-.234.086-.344.178a.89.89 0 0 1-.262.124c-.11.032-.196.08-.233.132s-.143.112-.283.162c-.123.044-.26.115-.304.156s-.174.107-.288.145c-.114.038-.246.105-.292.149s-.176.108-.288.143c-.112.035-.241.099-.286.142s-.183.113-.306.155c-.124.042-.263.112-.311.156s-.184.111-.305.149c-.125.039-.252.104-.295.15s-.166.108-.289.145c-.121.037-.246.099-.288.144s-.167.107-.283.143c-.115.036-.246.1-.291.143s-.183.113-.307.155c-.124.042-.263.112-.311.156s-.184.111-.305.149c-.125.039-.252.104-.295.15s-.166.108-.289.145a.802.802 0 0 0-.288.144c-.041.043-.167.107-.28.142s-.252.104-.308.153c-.056.049-.206.122-.332.162s-.23.085-.23.1c0 .042-.192.149-.373.208-.091.029-.197.088-.237.13s-.167.107-.283.145-.248.103-.293.145a1.002 1.002 0 0 1-.288.145c-.26.087-.346.152-.752.573a.846.846 0 0 0-.138.295 1.178 1.178 0 0 1-.139.319c-.098.13-.106.16-.186.75-.036.262-.085.591-.111.732-.069.385-.06.831.028 1.361.042.255.094.616.115.8.032.284.055.363.144.512.058.097.116.226.129.288.1.472.476.634.808.348.057-.049.199-.119.317-.155s.245-.1.283-.141a.893.893 0 0 1 .291-.148c.128-.042.249-.105.286-.149.035-.042.165-.113.287-.157s.26-.114.304-.155c.044-.041.174-.106.287-.143s.243-.102.288-.144.173-.106.283-.142c.111-.037.244-.102.295-.145s.186-.109.298-.147c.113-.037.25-.108.305-.158s.19-.117.3-.15c.11-.033.243-.098.296-.144s.19-.115.303-.153.238-.099.277-.136c.039-.037.169-.102.287-.145s.256-.112.306-.154.182-.107.295-.144c.112-.038.249-.108.304-.157s.18-.114.278-.145c.098-.031.225-.098.283-.148s.176-.119.263-.152c.087-.033.221-.105.296-.16s.184-.11.24-.122c.13-.028.318-.123.372-.188a.52.52 0 0 1 .195-.096c.184-.055.281-.102.368-.182.036-.033.151-.089.256-.125s.252-.109.326-.162c.074-.053.204-.117.288-.143s.223-.096.308-.157a.926.926 0 0 1 .256-.133.853.853 0 0 0 .359-.177c.036-.033.149-.088.25-.123s.238-.105.303-.156c.065-.051.193-.117.284-.147s.22-.097.285-.149c.066-.052.196-.117.291-.145s.216-.087.27-.133c.055-.046.188-.114.296-.152l.197-.068-.004-.161c-.006-.245-.048-.299-.232-.299-.188 0-.452.084-.517.164-.026.033-.158.102-.292.154s-.28.127-.324.168c-.044.041-.163.103-.264.137s-.233.102-.293.15c-.06.048-.196.116-.302.152s-.234.1-.286.144c-.051.043-.188.11-.304.149s-.237.098-.268.132c-.032.034-.171.106-.311.159s-.284.126-.322.162-.168.101-.288.144c-.12.044-.25.108-.288.144s-.166.1-.285.143c-.119.043-.256.112-.306.154s-.185.107-.301.146c-.116.039-.237.098-.268.132s-.171.106-.311.159c-.139.053-.284.126-.322.162s-.168.101-.288.144-.25.108-.288.144-.168.1-.288.144c-.12.044-.262.12-.315.169s-.17.114-.26.143-.197.089-.238.132a.773.773 0 0 1-.287.143c-.125.037-.244.097-.288.144s-.164.107-.288.144c-.121.036-.257.103-.318.158s-.199.123-.32.16c-.125.038-.246.099-.291.146s-.163.107-.289.145a.768.768 0 0 0-.286.142c-.041.044-.169.11-.285.147s-.257.108-.313.158c-.056.049-.179.115-.273.146s-.218.097-.275.147c-.057.05-.187.114-.288.144s-.231.094-.288.144c-.205.179-.675.262-.774.136-.171-.217-.015-.546.318-.673.079-.03.194-.096.256-.146s.207-.119.322-.154a.758.758 0 0 0 .287-.144c.042-.045.153-.104.246-.131s.228-.098.3-.158.191-.124.265-.143c.195-.049.286-.093.332-.159.04-.057.222-.136.401-.175a.47.47 0 0 0 .184-.113.825.825 0 0 1 .316-.16c.121-.036.247-.096.28-.133a.597.597 0 0 1 .333-.172.573.573 0 0 0 .225-.131.958.958 0 0 1 .303-.174c.105-.036.227-.099.272-.141s.174-.106.288-.143c.113-.038.243-.103.288-.146s.174-.108.286-.146c.112-.038.256-.109.32-.159s.209-.121.323-.158.243-.102.288-.144c.045-.042.175-.107.288-.144s.243-.102.288-.144c.045-.042.175-.107.288-.144s.244-.104.29-.148c.046-.044.184-.114.308-.156s.263-.112.31-.155c.047-.043.175-.106.285-.139s.244-.098.297-.145c.053-.046.19-.115.303-.153s.243-.103.288-.145c.045-.042.175-.107.288-.144s.244-.104.29-.148c.046-.044.184-.114.308-.156s.263-.112.31-.155c.047-.043.175-.106.284-.139s.228-.093.262-.133c.035-.04.165-.112.29-.16s.261-.12.302-.159a.954.954 0 0 1 .288-.142.794.794 0 0 0 .367-.226c.085-.085.165-.155.178-.155s.018-.043.011-.096c-.026-.176-.554-.083-.887.157-.071.051-.188.109-.259.128s-.193.084-.271.143c-.078.06-.221.134-.318.165s-.226.096-.288.144-.185.111-.275.14c-.09.029-.219.094-.288.144s-.204.118-.301.149-.227.097-.288.146c-.062.049-.199.119-.304.155s-.25.107-.32.156-.207.116-.304.147c-.097.031-.212.09-.257.132s-.174.109-.289.151c-.114.041-.269.12-.344.174s-.205.115-.289.135c-.084.02-.203.079-.264.131s-.201.124-.311.161c-.111.037-.243.102-.295.146s-.18.108-.286.144c-.106.036-.246.107-.311.159s-.192.115-.281.141c-.09.026-.233.097-.318.158s-.2.12-.256.132a.805.805 0 0 0-.351.177c-.035.033-.156.09-.268.128s-.246.103-.298.147-.18.108-.286.144c-.106.036-.246.107-.311.159s-.194.116-.286.143c-.092.027-.23.097-.307.155s-.209.13-.294.158a.916.916 0 0 0-.263.146.738.738 0 0 1-.392.163c-.023 0-.091.05-.152.111a.68.68 0 0 1-.295.164c-.101.029-.231.094-.288.144s-.205.122-.328.159c-.123.038-.224.081-.224.097 0 .145-.53.217-.623.085-.147-.211-.05-.471.229-.613.084-.043.18-.108.213-.144s.155-.097.272-.136.248-.103.292-.143c.044-.041.164-.105.267-.143s.233-.111.291-.161c.057-.05.186-.122.285-.159s.182-.079.182-.092c0-.038.239-.162.411-.213a.533.533 0 0 0 .199-.097c.054-.065.242-.16.372-.188.056-.012.154-.064.218-.114s.183-.116.266-.145c.207-.073.261-.1.388-.192.061-.044.185-.102.277-.129s.201-.078.242-.114c.101-.088.229-.152.412-.207a.513.513 0 0 0 .194-.096c.054-.065.242-.16.373-.188.056-.012.154-.064.218-.114s.183-.116.266-.145c.207-.073.261-.1.388-.192.061-.044.185-.102.277-.129s.201-.078.242-.114c.093-.082.269-.171.395-.202.052-.013.16-.07.24-.129s.226-.129.325-.157.199-.074.222-.102c.05-.061.222-.15.398-.207.07-.023.178-.081.24-.129s.209-.119.328-.158c.119-.039.216-.081.216-.095 0-.034.284-.182.4-.209.053-.012.152-.066.22-.121s.209-.125.313-.158c.104-.032.243-.101.308-.152s.198-.118.295-.15c.097-.031.227-.097.288-.147s.192-.118.291-.151.219-.099.269-.145c.05-.046.184-.113.298-.148s.255-.104.313-.152c.058-.048.144-.115.192-.148.075-.052.102-.341.037-.391s-.155-.036-.221.035c-.044.047-.177.116-.312.162-.129.044-.27.115-.313.157s-.168.108-.279.145c-.11.037-.234.102-.274.145s-.182.114-.317.159c-.136.045-.261.108-.282.142s-.144.096-.274.14c-.13.044-.273.117-.319.162-.047.047-.178.111-.306.15s-.255.101-.296.145c-.04.042-.168.108-.284.146s-.248.103-.293.145c-.045.042-.186.111-.314.155s-.257.109-.287.145c-.03.036-.157.101-.283.143s-.264.113-.309.157a.9.9 0 0 1-.304.148c-.127.039-.255.101-.296.145-.04.042-.168.108-.284.146s-.248.103-.293.145c-.045.042-.183.11-.307.152s-.262.113-.307.158c-.045.045-.175.11-.29.146s-.245.101-.289.145a.9.9 0 0 1-.304.148c-.127.039-.255.101-.296.145-.04.042-.168.108-.284.146s-.248.103-.293.145c-.045.042-.183.11-.307.152s-.262.113-.307.158-.175.11-.29.146c-.115.035-.244.1-.288.144s-.179.11-.299.148c-.121.037-.256.102-.3.144s-.173.113-.287.159c-.113.046-.238.113-.277.15s-.168.102-.287.145-.256.112-.306.154c-.05.042-.188.108-.307.148s-.267.098-.329.131c-.214.114-.286.064-.311-.22-.024-.268.173-.514.497-.62.117-.038.25-.104.295-.146s.171-.106.279-.143c.108-.037.247-.106.309-.155s.202-.121.313-.161c.111-.04.239-.107.284-.149s.175-.107.288-.145c.113-.038.243-.102.288-.144s.175-.107.288-.144c.113-.038.242-.102.286-.142s.184-.111.312-.157.265-.117.306-.157c.041-.041.174-.107.296-.146s.259-.107.304-.149c.045-.042.175-.107.288-.144s.243-.102.288-.144c.045-.042.175-.107.288-.144s.242-.101.286-.142c.044-.041.185-.111.312-.157s.265-.117.306-.158c.041-.041.174-.107.296-.146s.258-.106.302-.147c.044-.041.178-.11.299-.153s.25-.108.288-.144c.038-.036.168-.101.288-.144s.252-.11.292-.148c.04-.038.176-.104.301-.148s.261-.113.302-.154c.041-.041.174-.107.297-.147s.259-.107.304-.149c.045-.042.171-.106.279-.143s.249-.108.313-.159c.064-.051.192-.114.284-.141s.221-.09.284-.141c.064-.05.21-.124.326-.163s.244-.105.285-.146.162-.106.27-.146c.108-.039.219-.098.249-.13s.156-.098.282-.146c.126-.048.272-.119.325-.159s.163-.101.245-.136c.177-.076.185-.087.209-.285.033-.277-.251-.306-.537-.054-.064.056-.193.127-.288.158s-.21.091-.255.133c-.046.042-.16.106-.254.142s-.229.106-.301.156c-.072.05-.205.115-.297.144s-.219.095-.283.146c-.064.051-.192.115-.285.142s-.224.093-.291.146c-.067.054-.198.119-.291.146s-.227.092-.3.144c-.072.052-.226.13-.342.172s-.242.106-.281.143c-.039.037-.16.097-.268.134s-.249.108-.312.158c-.064.05-.192.114-.284.141s-.222.091-.287.143c-.065.052-.206.124-.313.16s-.244.103-.303.148c-.06.045-.186.109-.28.142s-.233.103-.307.157c-.074.054-.211.12-.303.147s-.221.091-.287.143c-.065.052-.207.124-.315.161s-.229.097-.268.133c-.039.037-.17.103-.29.147s-.266.115-.323.159c-.057.044-.182.106-.276.139s-.233.103-.307.157c-.074.054-.211.12-.303.146s-.221.091-.287.143c-.065.052-.207.124-.315.161s-.229.097-.268.134c-.039.037-.17.103-.29.146s-.269.118-.331.167-.184.114-.272.147c-.088.033-.199.092-.248.132s-.171.103-.272.139a1.9 1.9 0 0 0-.233.098c-.547.357-.927.326-.888-.072.02-.211.104-.312.337-.408.108-.044.231-.113.274-.154s.17-.103.282-.138c.112-.035.24-.098.285-.141s.18-.114.302-.158c.121-.044.26-.117.307-.163s.177-.111.288-.146c.111-.034.237-.098.281-.142s.173-.108.287-.144c.114-.035.256-.107.316-.159s.191-.119.292-.148.231-.094.288-.144c.057-.05.187-.115.288-.144s.231-.094.287-.143c.057-.05.2-.12.317-.156s.249-.102.293-.146.173-.109.287-.144c.114-.035.256-.107.316-.159s.191-.119.292-.148c.101-.029.231-.094.288-.144s.187-.115.288-.144c.101-.029.231-.094.287-.144s.2-.12.317-.156c.117-.036.249-.101.291-.144s.174-.11.291-.148c.117-.039.26-.111.318-.161s.187-.114.288-.144.23-.093.287-.143.186-.115.288-.146c.102-.031.225-.092.273-.135s.184-.112.301-.151c.118-.04.255-.108.305-.152s.189-.112.307-.152c.119-.039.263-.112.32-.162s.185-.114.283-.143a.608.608 0 0 0 .232-.116c.061-.073.221-.159.402-.218.069-.022.155-.075.192-.117s.162-.111.277-.152c.116-.042.25-.112.297-.156s.126-.09.174-.101c.269-.064.359-.121.455-.29.128-.224.135-.436.014-.491-.102-.046-.105-.046-.223.017zM5.462 12.002c-.023.037.02.173.125.398l.086.185-.02.599c-.026.788-.042.927-.114 1-.22.22-.203.54.032.592.05.011.161.07.246.13s.227.133.315.162c.088.028.211.09.272.137.257.196.806.274.908.129.116-.166.052-.863-.093-1.022-.153-.167-.156-.244-.013-.392l.128-.133v-.29c0-.159-.014-.311-.03-.338-.154-.247-.547-.621-.7-.667-.069-.021-.178-.08-.243-.131s-.193-.119-.285-.149a2.795 2.795 0 0 1-.341-.146c-.184-.095-.242-.109-.27-.063zm1.033.813c.303.33.32.376.231.61-.066.173-.342.234-.448.098-.248-.315-.041-.99.217-.708zm1.845.745a.383.383 0 0 1-.131.079c-.044 0-.174.137-.174.184 0 .02-.043.148-.097.286a1.428 1.428 0 0 0-.036.96c.035.102.102.321.147.487.061.221.104.317.163.363.044.035.109.119.144.188s.08.125.101.125.096.062.167.137c.105.111.178.152.379.214.137.042.263.094.28.114.062.075.333-.02.506-.178.203-.185.243-.382.224-1.12L10 14.897l-.124-.254-.171-.35c-.076-.155-.483-.549-.628-.609a2.518 2.518 0 0 1-.34-.16.361.361 0 0 0-.4.034zm-1.847.391c.445.383.456.829.021.887-.227.03-.317-.044-.36-.294-.079-.46.11-.79.339-.593zm2.639.263c.25.196.383 1.064.218 1.424a.736.736 0 0 0-.065.195c0 .212-.292.285-.502.125-.388-.296-.361-1.735.033-1.784.204-.026.237-.022.315.04zm1.818.686c-.107.029-.156.062-.192.133-.027.052-.101.19-.166.305-.201.358-.199.948.006 1.359.053.106.096.221.097.256.002.108.117.326.219.416a.606.606 0 0 1 .136.181c.025.061.092.122.187.17a.97.97 0 0 1 .224.157c.178.191.785.235.919.067.041-.052.113-.142.161-.2.192-.236.202-1.422.015-1.66a1.564 1.564 0 0 1-.145-.31c-.063-.172-.109-.248-.175-.287a.442.442 0 0 1-.142-.162c-.031-.066-.083-.117-.131-.129a.575.575 0 0 1-.184-.111.914.914 0 0 0-.825-.184zm.72.629c.365.14.452 1.488.119 1.858l-.087.097-.2-.13c-.295-.192-.308-.23-.31-.897-.004-.912.083-1.079.478-.928zm1.681.534c-.117.043-.127.076-.055.175.069.094.071.116.065.923-.007.9.01.801-.192 1.164-.137.247.019.476.411.6l.223.07.079-.079c.076-.076.077-.083.03-.196-.15-.36.027-.832.257-.682.312.205.464.79.26 1.006l-.08.084.077.111a.47.47 0 0 1 .077.15c0 .032.304.171.377.172.012 0 .086.051.163.112.145.115.229.134.367.082l.08-.03-.061-.121a.575.575 0 0 1-.061-.163c0-.05-.113-.277-.195-.391a1.264 1.264 0 0 1-.109-.352 1.13 1.13 0 0 0-.128-.384c-.267-.389-.204-.767.147-.881.32-.103.39-.387.128-.513a.617.617 0 0 1-.18-.121c-.041-.056-.272-.15-.369-.15-.106 0-.139.082-.104.258.038.191-.021.295-.213.374a.753.753 0 0 0-.186.113c-.244.226-.351-.396-.124-.725.144-.21.144-.225-.01-.322a.756.756 0 0 1-.173-.146c-.071-.102-.374-.184-.503-.137zm-8.266.303c-.2.2.083.622.513.766.112.037.25.11.308.16s.198.121.311.156a.785.785 0 0 1 .282.145.602.602 0 0 0 .228.126.926.926 0 0 1 .391.199c.05.042.156.092.236.112s.205.082.277.137c.073.055.202.127.288.159s.201.099.256.147.178.115.272.148c.094.033.206.094.248.136s.174.111.293.154.253.112.297.152.185.113.314.162c.129.048.251.115.272.148s.13.091.243.129c.113.038.246.107.296.155s.179.113.287.146a.782.782 0 0 1 .287.15.83.83 0 0 0 .304.156c.12.037.246.1.286.144.04.043.164.108.276.145s.25.107.306.157c.056.049.183.113.281.142s.227.095.286.147c.06.052.201.124.314.159a.776.776 0 0 1 .282.145.596.596 0 0 0 .228.126.91.91 0 0 1 .406.215c.058.05.133.091.167.091a.68.68 0 0 1 .378.176.492.492 0 0 0 .204.114c.165.044.378.149.378.186 0 .032.128.093.309.148.073.022.188.085.256.139s.167.108.219.121c.127.03.268.102.376.192.048.04.165.096.259.123s.212.082.261.122.178.116.285.169c.205.101.238.15.292.437.058.308-.402.384-.707.117-.06-.052-.196-.122-.302-.154s-.243-.102-.303-.154c-.06-.053-.189-.119-.287-.148s-.225-.093-.282-.143-.186-.114-.285-.143-.24-.101-.312-.162a.701.701 0 0 0-.235-.132.924.924 0 0 1-.387-.196c-.05-.042-.156-.092-.236-.112s-.206-.083-.28-.139c-.074-.057-.209-.127-.298-.157s-.217-.097-.283-.149c-.066-.052-.196-.117-.29-.145s-.211-.083-.259-.123a.968.968 0 0 0-.376-.192c-.053-.012-.15-.066-.217-.118s-.203-.124-.303-.159a.907.907 0 0 1-.248-.124c-.077-.073-.33-.192-.409-.193-.03 0-.104-.044-.165-.097s-.205-.131-.321-.173-.252-.111-.303-.154c-.05-.042-.177-.108-.282-.146s-.224-.105-.265-.149c-.041-.044-.169-.111-.284-.149s-.245-.105-.287-.147c-.043-.043-.171-.107-.286-.142s-.244-.1-.288-.144c-.044-.044-.173-.113-.288-.155s-.246-.111-.293-.154c-.047-.043-.18-.11-.296-.148s-.243-.103-.282-.145c-.039-.042-.157-.107-.262-.145s-.24-.112-.299-.164c-.059-.052-.174-.114-.256-.139s-.199-.083-.261-.131c-.062-.047-.2-.12-.307-.162s-.241-.112-.299-.156c-.151-.115-.534-.25-.567-.2-.133.203-.03.432.242.535.118.045.249.119.292.166s.169.114.283.152c.113.038.238.103.278.146s.166.109.28.147c.114.038.252.108.308.157s.183.112.282.14c.102.029.24.101.315.164a.524.524 0 0 0 .187.113c.08.001.332.122.395.19.03.033.146.09.257.127s.252.11.313.162a.61.61 0 0 0 .208.116.937.937 0 0 1 .377.191c.048.04.166.096.262.124s.219.088.273.134c.054.046.174.111.266.146s.206.099.252.144c.047.044.183.116.304.16s.25.108.288.143c.037.035.174.107.304.16s.265.124.301.157c.036.034.166.098.288.142s.244.108.271.141c.027.033.142.093.256.133s.246.107.293.15.183.113.304.157.256.112.3.152.174.105.288.145c.114.04.244.106.288.147s.181.111.304.155.249.111.278.148.159.102.288.146c.129.044.266.115.306.158s.133.095.208.115c.18.048.364.144.386.201.01.025.117.076.237.112.128.039.251.1.295.147.041.044.17.111.287.149s.255.109.308.158c.053.049.18.113.283.142.463.132.637.735.24.834a.204.204 0 0 1-.162-.029c-.042-.028-.162-.08-.266-.115s-.226-.099-.27-.141a.788.788 0 0 0-.236-.128c-.197-.066-.333-.136-.347-.179-.006-.019-.112-.07-.235-.115s-.26-.114-.304-.155c-.044-.041-.172-.107-.285-.148s-.244-.107-.293-.148c-.049-.041-.187-.111-.307-.156s-.255-.115-.299-.156a1.032 1.032 0 0 0-.295-.144c-.127-.041-.239-.101-.272-.144s-.146-.103-.279-.146c-.122-.04-.254-.106-.292-.148s-.162-.106-.274-.142c-.112-.036-.247-.107-.3-.156s-.179-.113-.28-.142c-.101-.029-.231-.093-.288-.143s-.199-.122-.316-.16c-.116-.038-.244-.105-.285-.148s-.166-.109-.28-.147c-.114-.038-.252-.108-.308-.157s-.184-.112-.285-.141c-.101-.029-.232-.095-.29-.147s-.189-.124-.289-.162c-.1-.038-.223-.103-.273-.145s-.188-.112-.307-.155-.254-.114-.301-.157-.159-.103-.251-.133-.218-.096-.283-.146c-.064-.051-.194-.115-.288-.142s-.212-.084-.262-.125a.968.968 0 0 0-.378-.194c-.053-.012-.15-.066-.217-.118s-.198-.123-.293-.155c-.095-.033-.245-.109-.334-.17s-.213-.121-.276-.133c-.063-.012-.164-.064-.223-.117s-.205-.13-.324-.173a1.125 1.125 0 0 1-.284-.142c-.21-.198-.435-.183-.435.029.001.178.061.254.267.337.103.042.219.105.258.141s.153.094.255.129c.102.035.245.108.318.161s.191.113.262.131c.071.019.183.077.25.13s.207.125.311.16.241.105.305.156c.063.05.19.116.281.145s.202.087.246.129c.044.041.18.112.302.158s.262.117.311.159c.049.041.182.106.294.143s.238.103.278.146c.04.043.168.109.283.148s.242.102.281.142c.039.04.173.111.297.158s.251.119.282.16c.033.043.145.102.269.143.116.038.244.103.284.146s.167.106.286.142a.783.783 0 0 1 .289.145c.041.044.168.111.282.149s.252.108.308.156c.056.048.192.118.303.155s.252.111.313.165c.061.054.136.098.166.098.084.001.334.122.423.206a.823.823 0 0 0 .266.128.78.78 0 0 1 .284.146c.054.051.173.115.265.142s.223.092.29.146c.067.053.2.12.295.148s.222.093.282.146c.06.053.196.122.303.154s.243.102.303.154c.06.053.187.118.282.146s.228.094.295.147c.067.053.195.118.285.145s.217.092.284.146c.067.054.199.123.295.155.532.175.766.796.352.932-.115.038-.288-.022-.323-.113-.009-.024-.131-.083-.27-.129s-.271-.11-.293-.141c-.022-.031-.149-.107-.283-.169s-.252-.135-.262-.163c-.011-.028-.115-.079-.237-.116a.92.92 0 0 1-.321-.16c-.057-.052-.181-.117-.275-.144s-.225-.093-.291-.145c-.066-.052-.194-.119-.285-.148s-.222-.097-.289-.15-.186-.115-.262-.139a.925.925 0 0 1-.377-.195c-.05-.042-.156-.092-.236-.112s-.206-.083-.28-.14c-.074-.057-.209-.127-.298-.157s-.216-.096-.28-.146c-.064-.051-.207-.122-.318-.16s-.226-.094-.255-.126c-.029-.032-.11-.082-.18-.111l-.254-.105c-.07-.029-.151-.079-.18-.111s-.144-.088-.255-.125-.235-.101-.276-.141c-.041-.041-.168-.107-.283-.147s-.24-.107-.279-.148c-.039-.042-.166-.111-.283-.153s-.251-.113-.298-.156c-.047-.043-.18-.11-.296-.148s-.244-.104-.285-.147c-.04-.043-.168-.109-.285-.147s-.255-.109-.308-.157c-.053-.048-.182-.114-.286-.146s-.236-.099-.292-.148c-.056-.049-.191-.117-.301-.151s-.238-.1-.284-.147c-.047-.047-.185-.118-.306-.159s-.244-.104-.272-.141c-.028-.037-.157-.103-.287-.147s-.269-.115-.309-.159a.537.537 0 0 0-.212-.116.804.804 0 0 1-.394-.208c-.129-.129-.22-.062-.192.14.026.183.047.204.272.272.098.029.208.088.245.13s.163.109.281.148c.118.039.261.112.317.162s.145.101.197.113c.128.031.324.132.397.204.033.033.138.082.234.11s.228.093.293.145c.066.052.194.119.285.148s.222.097.289.15.186.115.262.139a.92.92 0 0 1 .374.192c.048.04.164.095.256.122s.207.086.255.131c.048.045.182.116.299.158s.243.106.282.14c.084.077.257.167.321.167.026 0 .105.049.177.109s.22.139.329.176c.11.037.236.102.281.144s.175.109.29.149c.114.04.244.105.288.145s.181.109.304.154c.123.044.249.111.278.147s.159.102.288.145c.134.045.261.111.298.155s.159.107.286.149c.122.04.253.107.291.148s.167.105.286.142a.813.813 0 0 1 .289.145c.04.043.164.109.276.146s.247.107.3.155c.053.048.191.119.308.157s.243.103.282.145.138.101.221.131c.082.031.213.104.29.162s.214.128.305.155c.091.026.215.092.275.146s.178.118.261.143c.172.051.26.094.323.157s.217.137.343.164c.12.026.397.265.47.406.175.338-.151.668-.413.418a.771.771 0 0 0-.286-.149c-.101-.029-.232-.095-.292-.147s-.198-.123-.309-.157a.892.892 0 0 1-.3-.157.76.76 0 0 0-.286-.147.761.761 0 0 1-.286-.148.494.494 0 0 0-.182-.114c-.181-.04-.352-.118-.414-.19a.575.575 0 0 0-.225-.122c-.199-.059-.288-.105-.384-.201-.042-.041-.127-.089-.189-.106s-.169-.076-.237-.13-.205-.127-.306-.162c-.1-.035-.219-.097-.264-.139s-.175-.109-.289-.149c-.114-.04-.244-.106-.289-.147s-.18-.11-.301-.154-.258-.115-.303-.157-.18-.109-.299-.148c-.123-.04-.24-.102-.273-.143s-.152-.104-.278-.146a.89.89 0 0 1-.294-.152.77.77 0 0 0-.281-.141.693.693 0 0 1-.298-.158.398.398 0 0 0-.113-.095c-.078 0-.395-.147-.475-.221-.053-.048-.168-.106-.256-.129s-.217-.089-.287-.147a.708.708 0 0 0-.231-.129.918.918 0 0 1-.384-.193c-.048-.04-.166-.096-.261-.124s-.234-.101-.308-.162a.524.524 0 0 0-.187-.113c-.077-.001-.33-.121-.407-.193-.036-.034-.146-.089-.245-.123s-.254-.113-.346-.177a.77.77 0 0 0-.213-.115c-.062 0-.266-.107-.359-.188-.042-.036-.151-.088-.243-.115a1 1 0 0 1-.29-.146c-.226-.18-.373-.157-.433.067-.053.197-.034.231.159.293.096.031.211.09.256.132s.175.107.288.144c.114.038.243.102.288.144s.182.109.304.149.253.106.291.148c.038.041.167.105.286.142s.253.103.298.148c.045.045.183.116.307.158s.262.111.307.152c.045.041.174.106.288.144s.243.102.288.144c.045.042.177.107.293.145s.245.105.286.148c.044.047.166.107.297.145.125.037.257.101.301.145s.173.113.288.155c.115.042.247.112.293.157s.179.111.295.146c.119.037.242.1.286.146a.756.756 0 0 0 .288.144c.123.036.244.097.287.143s.182.115.326.163c.138.046.271.112.295.145s.149.098.279.142c.13.044.272.115.317.157s.146.102.225.132c.079.03.207.103.284.161s.215.128.307.155c.092.027.222.092.289.145s.181.113.253.132c.164.044.372.149.372.187 0 .016.069.053.152.083.278.099.39.152.445.213.03.033.13.082.223.109s.216.084.275.127c.126.092.244.15.447.222.082.029.187.087.233.13s.145.094.219.114c.167.045.376.149.376.188 0 .016.069.053.152.083.287.102.389.152.458.226.162.173.486.136.528-.061a1.32 1.32 0 0 1 .19-.406c.047-.056.102-.29.131-.56.011-.106.062-.365.113-.576.128-.533.135-1.299.014-1.796a8.276 8.276 0 0 1-.13-.7c-.057-.412-.078-.487-.174-.619a1.294 1.294 0 0 1-.128-.276 1.008 1.008 0 0 0-.193-.328 1.182 1.182 0 0 1-.164-.217c-.026-.057-.107-.104-.303-.178-.147-.056-.28-.122-.294-.148s-.14-.089-.28-.141c-.14-.052-.276-.121-.304-.154s-.145-.092-.262-.131c-.117-.039-.267-.113-.332-.166s-.195-.117-.288-.144c-.093-.027-.221-.091-.285-.142s-.212-.124-.328-.163c-.117-.039-.242-.102-.278-.141s-.166-.104-.289-.144c-.122-.04-.255-.107-.295-.147s-.168-.105-.284-.144c-.116-.039-.261-.111-.322-.16s-.2-.119-.309-.155c-.108-.037-.234-.101-.279-.143s-.182-.109-.304-.149c-.122-.04-.252-.104-.288-.143s-.166-.104-.289-.144c-.122-.04-.255-.106-.295-.147s-.168-.105-.284-.144c-.116-.039-.261-.111-.322-.16s-.2-.119-.309-.155-.234-.1-.279-.141c-.045-.041-.178-.114-.296-.163s-.235-.12-.26-.159c-.028-.044-.122-.093-.248-.13a.863.863 0 0 1-.294-.149c-.053-.051-.184-.116-.308-.154s-.247-.099-.29-.145a.793.793 0 0 0-.288-.144.78.78 0 0 1-.29-.146c-.046-.049-.165-.108-.299-.148a.87.87 0 0 1-.302-.146c-.044-.044-.181-.114-.305-.156s-.262-.111-.308-.154-.179-.109-.295-.147a.876.876 0 0 1-.286-.148.69.69 0 0 0-.266-.133.931.931 0 0 1-.298-.147c-.171-.15-.477-.23-.561-.146zm26.163 1.184c0 .059.021.089.071.102.107.028.111-.003.016-.099l-.086-.086v.084zm-2.017.882c-.177.03-.309.086-.4.17-.053.049-.15.106-.216.127s-.179.088-.251.148a.622.622 0 0 1-.256.13c-.159.025-.183.057-.19.252-.008.23-.009.226.099.334l.099.099-.012.856-.012.856-.105.194c-.104.193-.105.194-.052.326l.053.132.114-.077a.468.468 0 0 1 .155-.077c.123 0 .323-.127.39-.248.087-.156.088-.181.008-.504-.072-.29-.081-.5-.028-.602.062-.12.388-.409.482-.428.092-.018.144-.065.202-.182a.294.294 0 0 1 .119-.109c.068-.032.099-.089.155-.272l.098-.324a1.188 1.188 0 0 0-.015-.56c-.067-.224-.172-.281-.437-.237zm-.169.646c.145.145.223.343.164.413a.929.929 0 0 0-.104.209c-.147.398-.499.3-.499-.138 0-.47.215-.707.439-.484zm-2.541.612c-.038.015-.079.044-.09.063s-.136.093-.275.163c-.14.07-.254.142-.254.159s-.067.099-.148.182c-.081.083-.187.238-.235.344s-.111.214-.14.238c-.325.27-.256 2.063.084 2.193.279.107.746.052.889-.104.05-.055.106-.1.123-.1.057 0 .417-.381.483-.512a.431.431 0 0 1 .126-.159c.044-.023.077-.105.115-.281.029-.137.088-.384.13-.551.248-.977-.199-1.881-.808-1.634zm.06.791c.127.115.179 1.09.076 1.431-.044.146-.369.564-.44.564-.08 0-.381-.335-.415-.461-.074-.276-.023-.905.093-1.142.057-.116.103-.226.103-.246 0-.2.41-.302.583-.146zm-2.264.368c-.035.02-.104.07-.154.11s-.147.091-.218.113c-.257.077-.298.537-.061.683.111.069-.071.671-.229.756-.126.068-.396.12-.454.087-.198-.111-.19-.655.011-.763.074-.039.144-.31.096-.369-.044-.053-.188-.016-.349.091a1.46 1.46 0 0 1-.28.131c-.313.104-.422.336-.262.559l.107.149.02 1.804-.114.127c-.232.256-.143.582.111.406.07-.049.217-.119.326-.157.174-.06.213-.09.319-.242l.121-.174-.075-.081c-.131-.141-.159-.23-.161-.515-.002-.346.036-.411.301-.51.398-.149.57.03.451.471l-.085.314c-.01.039.008.096.044.141l.061.075.242-.081c.249-.084.308-.125.436-.305l.074-.104-.066-.262c-.098-.389-.097-1.587.002-2.072.081-.398.018-.511-.212-.381zm-2.92 1.516c-.183.259-.167.248-.343.227-.342-.041-.466-.002-.694.216-.242.232-.446.457-.446.491 0 .013-.024.133-.052.265-.064.291-.06.544.01.736.084.231.088.232.544.247.73.023.83.14.418.489-.223.188-.303.198-.576.072-.251-.116-.241-.118-.428.081l-.173.184v.288c.001.361.009.374.226.362.157-.009.177-.019.217-.106.089-.193.163-.244.315-.221.205.031.414-.011.512-.102.047-.044.146-.106.22-.139s.144-.088.155-.122.077-.108.147-.165c.07-.056.127-.129.127-.161s.05-.158.111-.279c.154-.304.159-.557.014-.757-.139-.191-.157-.198-.624-.216-.556-.022-.662-.083-.593-.342.074-.275.331-.415.588-.32.341.126.366.126.536-.004l.155-.118.002-.313c.002-.307 0-.314-.08-.344-.138-.053-.231-.037-.293.05z"/><path style="fill:var(--color6,#000)" d="M16.841 2.84c-.068.027-.095.077-.096.178v.088h-.242c-.236 0-.526.106-.526.193 0 .07-.111.127-.25.129-.237.003-.369.061-.403.178-.028.096-.037.1-.246.118-.266.022-.337.058-.364.182-.019.086-.034.096-.14.096-.147 0-.196.046-.196.183v.106h-.216c-.324.001-.354.015-.378.178l-.021.139-.553.018-.01.136-.01.136h-.284c-.267 0-.286.004-.307.072-.049.154-.145.215-.342.215-.101 0-.21.014-.24.03s-.081.038-.113.047c-.031.01-.082.061-.112.114-.043.076-.077.096-.157.097-.313.001-.49.092-.49.254 0 .06-.019.066-.2.067-.247.001-.349.049-.388.184-.028.097-.039.104-.177.105-.236.003-.365.061-.399.181-.027.094-.041.103-.177.112l-.148.01-.019.266-.272.011c-.299.012-.332.033-.333.21l-.001.103-.56.019-.01.135-.01.135-.557.019-.03.136-.03.136h-.22c-.277 0-.344.033-.344.172v.106l-.56.058-.057.272h-.245c-.276 0-.322.026-.322.183v.106l-.248.001c-.292.001-.316.011-.344.163l-.022.116-.245.021c-.261.022-.325.062-.325.201 0 .061-.022.075-.144.094-.135.02-.144.028-.145.122-.001.142-.031.174-.176.186-.125.01-.128.013-.137.146-.009.13-.014.136-.114.136-.157 0-.181.045-.181.343v.266H3.88c-.161 0-.163.008-.163.552v.45l-.272.251v1.233c0 1.357-.005 1.324.198 1.324h.074l.002.584c.002.667.027.784.179.856l.101.048.011 1.137c.012 1.237.036 1.399.216 1.456.067.021.067.026.068 1.516.001 1.865.023 2.063.234 2.093.058.008.069.031.07.154.004.418.013.48.073.48.072 0 .23.161.23.234 0 .043.03.054.142.054h.142l.01.136c.01.135.011.136.162.163.125.023.152.04.153.096.001.143.139.207.453.211.103.001.12.013.138.095.03.139.09.171.354.187.201.013.239.024.239.072 0 .137.104.2.362.216.243.016.246.017.246.104 0 .125.063.163.336.202.231.033.24.038.24.12 0 .123.051.151.326.176l.244.022.021.109c.025.135.105.171.387.171h.206v.111c0 .145.064.177.346.177h.222l.02.125c.023.146.039.154.355.183.236.021.241.024.241.11 0 .126.056.157.331.18.23.019.245.025.245.096 0 .143.104.203.35.203h.222l.043.288h.565l.01.135c.011.157.051.177.367.182.208.003.236.024.236.178 0 .096.051.113.337.113h.236l.01.136.01.136.557.018.021.143.021.143h.569v.127c0 .163.055.193.348.193h.224l.027.136.027.136.555.018.02.27.576.032.016.128.016.128.281.016c.281.016.341.043.342.154.002.168 1.341.24 1.401.075.051-.14.169-.21.378-.223.167-.011.208-.024.224-.074.045-.14.169-.219.346-.219.194 0 .245-.037.245-.178v-.102l.239-.015c.267-.017.337-.056.337-.185 0-.087.001-.088.276-.105.301-.019.331-.037.332-.208v-.104h.569l.021-.143.021-.143.557-.018.01-.136.01-.136h.246c.29-.001.31-.01.339-.168l.022-.12.199-.003c.318-.005.357-.025.369-.182l.01-.135h.569l.022-.144.022-.144h.197c.296-.001.338-.019.36-.159l.019-.12.251-.017c.301-.021.319-.03.319-.166v-.106l.273-.023c.293-.024.336-.053.336-.223 0-.08.005-.082.226-.082.285 0 .35-.033.35-.174v-.108l.259-.012c.277-.013.349-.055.349-.205 0-.063.022-.071.245-.09.275-.023.331-.054.331-.181 0-.088.002-.088.273-.111.293-.024.336-.053.336-.223 0-.08.005-.082.226-.082.286 0 .35-.032.35-.177v-.111h.254c.286 0 .355-.038.355-.194 0-.09.006-.094.152-.096.323-.004.407-.035.424-.158.017-.12.101-.154.39-.158.131-.002.218-.089.218-.217 0-.065.015-.073.144-.073h.144v-.285l.304-.02.01-.136c.009-.121.019-.136.09-.136.178 0 .204-.043.204-.335v-.269l.272-.02.018-1.005.293-.251.003-1.234c.003-1.288-.002-1.34-.133-1.33-.172.013-.165.036-.165-.56 0-.607-.007-.631-.183-.631h-.106v-.36c-.001-.47-.008-.495-.161-.521l-.123-.021-.009-2.711c-.01-2.95-.002-2.83-.194-2.88-.099-.026-.103-.034-.105-.185-.002-.294-.015-.43-.039-.426a1.597 1.597 0 0 1-.144 0l-.12-.004v-.142c0-.119-.012-.146-.072-.164-.094-.029-.205-.141-.221-.222-.009-.05-.042-.066-.148-.074-.124-.009-.136-.017-.136-.098 0-.129-.064-.192-.206-.203-.112-.009-.129-.021-.152-.11-.03-.118-.07-.137-.338-.162-.186-.017-.201-.024-.201-.096 0-.165-.044-.194-.336-.218-.271-.023-.273-.023-.273-.111 0-.129-.058-.159-.348-.182-.218-.017-.26-.029-.26-.076 0-.137-.101-.195-.374-.214-.234-.016-.264-.025-.295-.094-.019-.042-.071-.093-.115-.113s-.08-.049-.08-.064-.094-.027-.21-.027c-.213 0-.362-.089-.366-.217-.001-.057-.139-.103-.306-.103-.149 0-.287-.096-.309-.215-.009-.046-.049-.059-.217-.067-.22-.01-.321-.071-.368-.222-.02-.065-.043-.072-.223-.072-.212 0-.372-.101-.372-.234 0-.047-.038-.054-.284-.054h-.284l-.018-.131c-.023-.174-.02-.172-.33-.185l-.27-.011v-.121c0-.148-.026-.16-.333-.16h-.231l-.03-.136-.03-.136-.557-.018-.02-.27-.557-.019-.021-.14c-.025-.164-.052-.177-.375-.177h-.216v-.125c0-.143-.031-.164-.243-.164-.101 0-.141-.013-.141-.045 0-.1-.24-.243-.408-.243-.138 0-.163-.01-.195-.08-.02-.044-.073-.097-.117-.117s-.08-.049-.08-.064-.073-.027-.162-.027c-.152 0-.164-.006-.196-.099-.05-.145-.249-.221-.573-.221h-.253v-.088c-.001-.182-.006-.184-.695-.191-.349-.003-.655.002-.682.013zm13.045 7.026c.12.055.114.267-.014.491-.096.169-.186.226-.455.29-.048.011-.126.057-.174.101s-.182.115-.297.156c-.116.042-.241.11-.277.152s-.123.095-.192.117c-.182.059-.342.146-.402.218-.029.035-.134.087-.232.116s-.226.093-.283.143c-.057.05-.201.123-.32.162s-.257.107-.307.152c-.05.044-.188.113-.305.152s-.253.108-.301.151c-.048.044-.171.105-.273.135s-.232.096-.288.146-.186.114-.287.143c-.101.029-.231.094-.288.144s-.2.122-.318.161c-.117.039-.249.105-.291.148s-.174.108-.291.144c-.117.036-.26.107-.317.156s-.186.114-.287.144c-.101.029-.231.094-.288.144s-.187.115-.288.144-.233.096-.292.148c-.06.052-.202.124-.316.159s-.244.1-.287.144-.176.109-.293.146c-.117.036-.26.107-.317.156s-.186.114-.287.143c-.101.029-.231.094-.288.144s-.187.115-.288.144-.233.096-.292.148c-.059.052-.202.124-.316.159s-.243.1-.287.144c-.044.044-.17.108-.281.142s-.24.1-.288.146c-.048.046-.186.119-.307.163s-.257.115-.302.158c-.045.043-.173.106-.285.141s-.239.097-.282.138a1.11 1.11 0 0 1-.274.154c-.233.096-.317.197-.337.408-.038.398.342.429.888.072.026-.017.131-.061.233-.098s.224-.099.272-.139c.048-.04.16-.099.248-.132s.211-.099.272-.147.211-.123.331-.167c.12-.043.251-.109.29-.146s.16-.097.268-.134c.108-.036.25-.109.315-.161s.194-.116.287-.143c.092-.027.229-.093.303-.146s.212-.124.307-.157.219-.095.276-.139.203-.115.323-.159.251-.11.29-.147.16-.097.268-.133c.108-.037.25-.109.315-.161s.194-.116.287-.143c.093-.027.229-.093.303-.147s.212-.124.307-.157.221-.096.28-.142.196-.112.303-.148c.107-.036.248-.108.313-.16s.194-.116.287-.143c.093-.027.221-.09.284-.141s.204-.122.312-.158.229-.097.268-.134c.039-.037.166-.101.281-.143s.269-.119.342-.172c.072-.053.207-.117.3-.144s.223-.093.291-.146c.067-.053.198-.119.291-.146s.221-.091.285-.142c.064-.051.191-.116.283-.146s.225-.094.297-.144c.072-.05.207-.12.301-.156s.208-.1.254-.142c.046-.043.161-.102.255-.133s.225-.102.288-.158c.286-.252.57-.223.537.054-.023.198-.032.209-.209.285-.082.035-.192.096-.245.136s-.199.111-.325.159-.252.113-.282.146-.141.091-.249.13-.229.105-.27.146c-.041.041-.169.106-.285.146s-.263.112-.326.163c-.063.05-.191.114-.284.141s-.221.09-.284.141c-.064.051-.204.122-.313.159s-.234.101-.279.143c-.045.042-.182.109-.304.149s-.256.106-.297.147c-.041.041-.177.11-.302.154s-.261.11-.301.148c-.04.038-.172.104-.292.148s-.25.108-.288.144c-.038.036-.168.1-.288.144s-.255.112-.299.153c-.044.041-.18.107-.302.147s-.255.106-.296.146c-.041.041-.178.111-.306.158s-.268.117-.312.157c-.044.041-.173.105-.286.142s-.243.102-.288.144c-.045.042-.175.107-.288.144s-.243.102-.288.144c-.045.042-.182.109-.304.149s-.255.106-.296.146c-.041.041-.178.112-.306.157s-.268.117-.312.157c-.044.041-.173.105-.286.142s-.243.102-.288.144c-.045.042-.175.107-.288.144s-.243.103-.288.145c-.045.042-.173.109-.284.149s-.252.112-.313.161-.2.119-.309.155c-.108.037-.234.101-.279.143s-.178.107-.295.146c-.324.106-.522.352-.497.62.026.283.097.334.311.22.061-.033.209-.092.329-.131s.258-.106.307-.148.187-.111.306-.154.248-.108.287-.145.164-.104.277-.15c.113-.046.243-.117.287-.159s.179-.107.3-.144c.121-.037.256-.104.299-.148s.173-.109.288-.144c.115-.035.245-.101.29-.146s.183-.116.307-.158c.124-.042.262-.111.307-.152s.177-.107.293-.145.244-.104.284-.146c.041-.044.169-.106.296-.145a.9.9 0 0 0 .304-.148c.044-.044.174-.109.289-.145s.245-.101.29-.146c.045-.045.183-.116.307-.158s.262-.111.307-.152c.045-.042.177-.107.293-.145s.244-.104.284-.146c.041-.044.169-.106.296-.145.126-.038.259-.103.304-.148s.183-.115.309-.157.253-.107.283-.143c.03-.036.159-.102.287-.145s.269-.113.314-.155c.045-.042.177-.107.293-.145s.244-.104.284-.146c.041-.044.169-.106.296-.145s.259-.103.306-.15c.045-.045.189-.118.319-.162s.254-.107.274-.14c.021-.034.145-.096.282-.142.135-.045.277-.116.317-.159s.164-.108.274-.145c.111-.037.236-.102.279-.145s.183-.113.313-.157c.135-.046.268-.115.312-.162.066-.072.156-.086.221-.035s.038.339-.037.391c-.047.033-.134.1-.192.148s-.199.117-.313.152c-.114.035-.248.102-.298.148s-.171.111-.269.145-.229.102-.291.151c-.062.05-.191.116-.288.147s-.23.099-.295.15c-.065.051-.204.12-.308.152s-.245.103-.313.158a.73.73 0 0 1-.22.121c-.116.027-.4.175-.4.209 0 .013-.097.056-.216.095s-.267.11-.328.158a.964.964 0 0 1-.24.129c-.176.057-.348.146-.398.207-.023.028-.123.074-.222.102s-.245.099-.325.157a.928.928 0 0 1-.24.129 1.09 1.09 0 0 0-.395.202c-.042.036-.15.088-.242.114s-.216.085-.277.129c-.127.092-.181.119-.388.192-.082.029-.202.094-.266.145s-.162.102-.218.114c-.131.028-.319.123-.373.188a.513.513 0 0 1-.194.096 1.045 1.045 0 0 0-.412.207c-.042.036-.15.088-.242.114s-.216.085-.277.129c-.127.092-.181.119-.388.192-.082.029-.202.094-.266.145s-.162.102-.218.114c-.131.028-.319.123-.372.188a.542.542 0 0 1-.199.097c-.172.051-.411.175-.411.213 0 .013-.082.054-.182.092s-.228.109-.285.159c-.057.05-.188.122-.291.161s-.223.103-.267.143c-.044.041-.176.105-.292.143s-.239.099-.272.136a.955.955 0 0 1-.213.144c-.279.142-.377.402-.229.613.092.132.623.059.623-.085 0-.016.101-.06.224-.097s.271-.109.328-.159a.901.901 0 0 1 .288-.144.68.68 0 0 0 .295-.164c.061-.061.13-.111.152-.111a.73.73 0 0 0 .392-.163c.06-.052.178-.118.263-.146s.218-.099.294-.158c.077-.059.215-.129.307-.155s.221-.091.286-.143c.065-.052.205-.123.311-.159s.234-.1.286-.144c.051-.043.185-.109.298-.147s.233-.095.268-.128a.816.816 0 0 1 .351-.177c.056-.012.171-.071.256-.132s.228-.131.318-.158c.09-.026.216-.09.281-.141s.205-.123.311-.159c.106-.036.234-.1.286-.144s.184-.109.295-.146c.111-.037.251-.11.311-.161s.179-.111.264-.131.214-.081.289-.135c.075-.054.23-.133.344-.174s.244-.109.289-.151c.044-.041.16-.101.257-.132s.234-.097.304-.147.215-.12.32-.156c.106-.036.242-.106.304-.155s.191-.115.288-.146.232-.098.301-.149c.069-.051.199-.116.288-.144s.213-.092.275-.14c.062-.048.191-.113.288-.144s.24-.106.318-.165c.078-.06.2-.124.271-.143s.188-.077.259-.128c.334-.24.861-.333.887-.157.008.053.003.096-.011.096s-.094.07-.178.155a.8.8 0 0 1-.367.226c-.117.039-.247.103-.288.142s-.177.111-.302.159-.255.12-.29.16-.153.099-.262.133c-.11.033-.238.096-.284.139s-.186.113-.31.155-.262.112-.308.156-.176.11-.29.148c-.113.038-.243.102-.288.144s-.175.107-.288.145c-.113.038-.25.107-.303.153s-.187.111-.297.145c-.11.033-.239.096-.285.139s-.186.113-.31.155c-.124.042-.262.112-.308.156s-.176.11-.29.148c-.113.038-.243.102-.288.144s-.175.107-.288.144-.243.102-.288.144-.175.106-.288.144-.259.109-.323.158c-.064.05-.208.121-.32.159s-.241.103-.286.146c-.045.043-.175.108-.288.146s-.243.102-.288.143a.967.967 0 0 1-.272.141.958.958 0 0 0-.303.174.573.573 0 0 1-.225.131.6.6 0 0 0-.333.172c-.034.037-.16.097-.28.133a.819.819 0 0 0-.316.16.483.483 0 0 1-.184.113c-.179.038-.361.117-.401.175-.047.067-.137.11-.332.159-.074.019-.193.083-.265.143s-.207.131-.3.158a.659.659 0 0 0-.246.131.75.75 0 0 1-.287.144c-.116.035-.261.104-.322.154s-.177.116-.256.146c-.333.127-.488.456-.318.673.099.126.569.043.774-.136.057-.05.187-.115.288-.144s.231-.094.288-.144c.057-.05.181-.116.275-.147s.217-.097.273-.146c.056-.049.197-.12.313-.158s.244-.104.285-.147a.76.76 0 0 1 .286-.142c.125-.037.244-.097.289-.145s.165-.108.291-.146c.121-.037.26-.106.32-.16s.196-.121.318-.158c.124-.037.243-.097.288-.144s.164-.107.288-.144a.758.758 0 0 0 .287-.143c.041-.044.148-.103.238-.132s.207-.093.26-.143c.053-.05.195-.126.315-.169s.25-.108.288-.144.168-.101.288-.144.25-.108.288-.144c.038-.036.183-.109.322-.162s.279-.125.311-.159c.032-.034.152-.093.268-.132s.251-.104.301-.146.187-.111.306-.154.247-.107.285-.143.168-.101.288-.144c.12-.044.25-.108.288-.144s.183-.109.322-.162c.139-.053.279-.125.311-.159s.152-.093.268-.132c.116-.039.253-.106.304-.149s.18-.108.286-.144.242-.104.302-.152.192-.115.293-.15.22-.096.264-.137c.044-.041.19-.117.324-.168s.265-.121.292-.154c.065-.08.328-.164.517-.164.183 0 .225.054.232.299l.004.161-.197.068c-.108.038-.241.106-.296.152s-.176.106-.27.133c-.094.027-.225.092-.291.145s-.194.119-.285.149-.219.096-.284.147c-.065.051-.201.121-.303.156s-.214.09-.25.123a.842.842 0 0 1-.359.177c-.056.012-.171.072-.256.133s-.224.131-.308.157c-.084.025-.214.089-.288.143s-.221.126-.326.162a.96.96 0 0 0-.256.125c-.088.08-.184.128-.368.182a.503.503 0 0 0-.195.096c-.054.065-.242.16-.372.188-.056.012-.164.067-.24.122s-.209.127-.296.16-.206.102-.263.152-.185.117-.283.148-.223.096-.278.145c-.055.049-.192.119-.304.157s-.245.102-.295.144-.187.111-.306.154-.248.108-.287.145-.164.098-.277.136-.25.107-.303.153c-.053.046-.187.111-.296.144s-.244.101-.3.15-.193.121-.305.158c-.113.038-.247.104-.298.147s-.184.109-.295.145-.238.101-.283.142c-.045.042-.175.107-.288.144s-.243.102-.287.143c-.044.041-.181.111-.304.155s-.252.115-.287.157c-.037.044-.158.107-.286.149-.122.04-.253.107-.291.148s-.166.105-.283.141c-.117.036-.26.106-.317.155-.332.286-.708.124-.808-.348a1.228 1.228 0 0 0-.129-.288c-.089-.149-.111-.228-.144-.512a20.024 20.024 0 0 0-.115-.8c-.087-.53-.096-.976-.028-1.361.025-.141.075-.47.111-.732.08-.59.088-.62.186-.75.044-.058.106-.201.139-.319a.846.846 0 0 1 .138-.295c.406-.42.493-.486.752-.573.113-.038.243-.103.288-.145s.177-.107.293-.145.244-.103.283-.145a.684.684 0 0 1 .237-.13c.182-.059.373-.166.373-.208 0-.015.104-.06.23-.1s.276-.113.332-.162c.056-.049.195-.118.308-.153s.239-.099.28-.142a.793.793 0 0 1 .288-.144c.124-.038.246-.099.289-.145s.17-.11.295-.15c.121-.038.258-.105.305-.149s.187-.114.311-.156c.124-.042.262-.112.307-.155s.176-.107.291-.143a.816.816 0 0 0 .283-.143.793.793 0 0 1 .288-.144c.124-.037.246-.099.289-.145s.17-.11.295-.15c.121-.038.258-.105.305-.149s.187-.114.311-.156c.124-.042.262-.112.306-.155s.173-.107.286-.142c.112-.035.242-.099.288-.143s.178-.111.292-.149c.114-.038.244-.103.288-.145s.181-.112.304-.156c.139-.05.246-.112.283-.162s.123-.1.233-.132a.902.902 0 0 0 .262-.124c.11-.092.277-.178.344-.178.072 0 .243-.092.327-.175.039-.039.157-.094.263-.123s.239-.095.297-.145.18-.116.272-.146c.091-.03.22-.097.285-.149s.196-.117.291-.145a.869.869 0 0 0 .259-.123c.192-.16.29-.194.406-.141zM5.732 12.065c.096.05.25.116.341.146s.219.097.285.149a.85.85 0 0 0 .243.131c.154.046.546.42.7.667.016.026.03.178.03.338v.29l-.128.133c-.143.148-.14.225.013.392.146.158.21.856.093 1.022-.101.145-.651.067-.908-.129-.062-.047-.184-.108-.272-.137s-.23-.101-.315-.162-.196-.119-.246-.13c-.234-.051-.251-.372-.032-.592.072-.072.088-.212.114-1l.02-.599-.086-.185c-.205-.441-.179-.503.145-.335zm.547.734c-.204.17-.103.808.128.808.124 0 .285-.092.319-.182.077-.203.072-.247-.049-.395-.257-.316-.28-.329-.398-.23zm2.462.727c.096.055.165.088.34.16.145.06.551.454.628.609l.171.35.124.254.013.502c.019.738-.021.935-.224 1.12-.173.157-.444.253-.506.178-.017-.021-.143-.072-.28-.114-.202-.062-.274-.103-.379-.214-.072-.076-.147-.137-.167-.137s-.066-.056-.101-.125a.674.674 0 0 0-.144-.188c-.059-.047-.102-.142-.163-.363a11.582 11.582 0 0 0-.147-.487c-.1-.288-.086-.643.036-.96.053-.138.097-.266.097-.286 0-.047.129-.184.174-.184a.383.383 0 0 0 .131-.079.361.361 0 0 1 .4-.034zm-2.499.428c-.156.126-.136.711.028.84.105.083.366.059.478-.043.131-.121.104-.398-.058-.589-.241-.284-.312-.317-.447-.207zm2.575.22c-.394.05-.421 1.488-.033 1.784.21.16.502.087.502-.125 0-.029.029-.117.065-.195.212-.466-.045-1.506-.366-1.481a4.59 4.59 0 0 0-.168.018zm2.757.771c.053.027.143.089.201.139s.14.1.184.111c.048.012.1.063.131.129.028.06.092.133.142.162.066.039.113.115.175.287.047.129.112.268.145.31.188.238.177 1.424-.015 1.66l-.161.2c-.133.169-.741.125-.919-.067a.97.97 0 0 0-.224-.157.385.385 0 0 1-.187-.17.619.619 0 0 0-.136-.181c-.102-.091-.216-.309-.219-.416a1.012 1.012 0 0 0-.097-.256c-.204-.411-.207-1.001-.006-1.359.065-.115.14-.253.166-.305.085-.167.558-.218.817-.088zm-.251.614c-.116.138-.134.259-.131.897.003.668.016.705.31.897l.2.13.087-.097c.333-.37.246-1.718-.119-1.858-.199-.076-.261-.071-.347.031zm2.331.527c.084.025.174.076.2.113s.104.103.173.146c.154.097.154.112.01.322-.227.329-.12.951.124.725a.753.753 0 0 1 .186-.113c.192-.079.251-.182.213-.374-.035-.175-.001-.258.104-.258.097 0 .328.094.369.15.022.03.102.084.18.121.262.126.192.41-.128.513-.351.114-.415.492-.147.881.048.07.097.215.128.384.028.149.077.308.109.352.082.114.195.341.195.391a.61.61 0 0 0 .061.163l.061.121-.08.03c-.138.052-.222.034-.367-.082a.863.863 0 0 0-.163-.112c-.073-.001-.377-.139-.377-.172a.47.47 0 0 0-.077-.15l-.077-.111.08-.084c.204-.216.052-.801-.26-1.006-.229-.15-.407.322-.257.682.047.113.046.12-.03.196l-.079.079-.223-.07c-.391-.124-.548-.352-.411-.6.202-.363.185-.264.192-1.164.006-.807.004-.829-.065-.923-.123-.167.056-.243.357-.152zm-8.008.426a.931.931 0 0 0 .298.147.69.69 0 0 1 .266.133c.041.043.169.11.286.148s.249.104.295.147c.046.043.185.112.308.154s.261.112.305.156a.889.889 0 0 0 .302.146c.134.04.253.099.299.148a.773.773 0 0 0 .29.146c.122.037.246.099.288.144s.166.107.29.145a.905.905 0 0 1 .308.154c.052.05.181.115.294.149.126.038.219.087.248.13.025.038.142.11.26.159s.251.122.296.163c.045.041.171.104.279.141s.247.107.309.155c.061.049.206.121.322.16s.244.104.284.144.173.106.295.147c.122.04.252.105.289.144s.166.103.288.143c.122.04.259.107.304.149s.171.106.279.143c.108.037.247.107.309.155s.206.121.322.16c.116.039.244.104.284.144s.173.106.295.147c.122.04.252.105.289.144s.162.102.278.141c.117.039.264.112.328.163s.192.115.285.142c.093.027.222.092.288.144s.215.127.332.166c.117.039.235.098.262.131s.164.102.304.154.266.115.28.141c.014.026.147.092.294.148.197.074.277.122.303.178.019.042.093.14.164.217.078.085.154.214.193.328.035.103.093.228.128.276.096.132.117.206.174.619.029.208.087.523.13.7.12.496.114 1.263-.014 1.796-.051.211-.102.47-.113.576-.029.27-.084.504-.131.56a1.32 1.32 0 0 0-.19.406c-.042.196-.366.233-.528.061-.07-.074-.171-.124-.458-.226-.084-.03-.152-.067-.152-.083 0-.038-.209-.143-.376-.188-.074-.02-.173-.071-.219-.114s-.151-.101-.233-.13a1.55 1.55 0 0 1-.447-.222c-.059-.043-.182-.1-.275-.127s-.193-.076-.223-.109c-.055-.061-.167-.114-.445-.213-.084-.03-.152-.067-.152-.083 0-.038-.208-.143-.372-.187-.072-.019-.186-.079-.253-.132s-.197-.118-.289-.145c-.092-.027-.23-.096-.307-.155s-.205-.131-.284-.161c-.079-.03-.181-.09-.225-.132s-.187-.113-.317-.157-.255-.108-.279-.142-.156-.099-.295-.145c-.144-.048-.284-.118-.326-.163s-.164-.106-.287-.143a.755.755 0 0 1-.288-.144.79.79 0 0 0-.286-.146c-.115-.036-.248-.101-.295-.146s-.179-.115-.293-.157c-.115-.042-.244-.111-.288-.155s-.177-.108-.301-.145a.804.804 0 0 1-.297-.145c-.041-.044-.17-.11-.286-.148s-.248-.103-.293-.145c-.045-.042-.175-.107-.288-.144s-.243-.102-.288-.144c-.045-.042-.183-.11-.307-.152s-.262-.113-.307-.158c-.045-.045-.179-.111-.298-.148s-.248-.101-.286-.142c-.038-.041-.169-.108-.291-.148s-.259-.107-.304-.149c-.045-.042-.175-.107-.288-.144s-.243-.102-.288-.144a.831.831 0 0 0-.256-.132c-.194-.062-.212-.096-.159-.293.06-.224.207-.247.433-.067.067.054.198.119.29.146s.202.078.243.115c.093.081.297.188.359.188.025 0 .121.052.213.115s.248.143.346.177a.885.885 0 0 1 .245.123c.076.072.33.192.407.193.029 0 .113.051.187.113s.212.135.308.162a.87.87 0 0 1 .261.124.93.93 0 0 0 .384.193c.057.012.161.07.231.129s.199.125.287.147.203.08.256.129c.08.073.398.221.475.221.013 0 .063.043.113.095a.693.693 0 0 0 .298.158c.118.035.24.096.281.141a.91.91 0 0 0 .294.152c.126.042.246.105.278.146s.15.103.273.143c.119.039.253.105.299.148s.182.113.303.157.257.113.301.154.175.107.289.147c.114.04.245.107.289.149s.163.104.264.139c.1.035.238.107.306.162s.174.113.237.13a.507.507 0 0 1 .189.106c.097.095.185.141.384.201a.575.575 0 0 1 .225.122c.062.071.233.15.414.19.045.01.127.061.182.114a.761.761 0 0 0 .286.148.792.792 0 0 1 .286.147.884.884 0 0 0 .3.157c.11.034.249.105.309.157s.191.118.292.147a.771.771 0 0 1 .286.149c.262.249.588-.08.413-.418-.073-.141-.349-.38-.47-.406-.126-.027-.279-.1-.343-.164s-.152-.107-.323-.157c-.083-.025-.2-.089-.261-.143s-.184-.12-.275-.146c-.091-.026-.228-.096-.305-.155s-.207-.132-.29-.162c-.082-.031-.182-.09-.221-.131s-.166-.107-.282-.145c-.116-.038-.255-.109-.308-.157s-.188-.118-.3-.155a.806.806 0 0 1-.276-.146c-.041-.045-.166-.107-.289-.145-.119-.037-.248-.101-.286-.142s-.169-.108-.291-.148c-.127-.042-.249-.105-.286-.149s-.164-.11-.298-.155c-.129-.043-.258-.109-.288-.145s-.155-.103-.278-.147-.26-.114-.304-.154c-.044-.04-.174-.106-.288-.145s-.245-.107-.29-.149c-.045-.042-.171-.107-.281-.144s-.258-.116-.329-.176a.505.505 0 0 0-.177-.109c-.064 0-.237-.09-.321-.167-.038-.035-.165-.098-.282-.14s-.251-.113-.299-.158c-.048-.045-.162-.103-.255-.131s-.208-.082-.256-.122a.92.92 0 0 0-.374-.192c-.076-.023-.195-.085-.262-.139s-.198-.121-.289-.15c-.091-.029-.22-.096-.285-.148s-.198-.118-.293-.145a.7.7 0 0 1-.234-.11 1.07 1.07 0 0 0-.397-.204c-.052-.012-.141-.063-.197-.113s-.199-.122-.317-.162c-.118-.039-.245-.106-.281-.148s-.147-.101-.245-.13c-.225-.068-.246-.089-.272-.272-.029-.202.063-.268.192-.14.1.1.212.159.394.208.077.021.172.073.212.116s.179.114.309.159.259.11.287.147c.028.037.151.101.272.141s.259.112.306.159c.047.046.175.112.284.147s.245.102.301.151c.056.049.187.116.292.148s.233.098.286.146c.053.048.191.119.308.157s.244.104.285.147c.04.043.168.109.285.147s.25.105.296.148c.047.043.181.114.298.156s.245.111.283.153c.039.042.164.108.279.148s.242.106.283.147.165.104.276.141c.111.037.225.093.255.125s.11.082.18.111l.254.105c.07.029.151.079.18.111.029.032.144.088.255.126s.255.109.318.16c.064.051.19.117.28.146s.224.101.298.157c.074.057.2.119.28.14s.186.07.236.112a.925.925 0 0 0 .377.195c.076.023.195.085.262.139s.198.121.289.15c.091.029.22.096.285.148s.197.117.291.145.218.092.275.144a.938.938 0 0 0 .321.16c.122.036.226.087.237.116s.129.101.262.163c.134.062.261.138.283.169s.154.095.293.141c.139.046.261.105.27.129.035.091.207.151.323.113.414-.137.18-.757-.352-.932-.096-.032-.228-.101-.295-.155s-.194-.119-.284-.146-.218-.092-.284-.145-.2-.119-.295-.147-.222-.093-.282-.146c-.06-.053-.196-.122-.303-.154s-.243-.102-.303-.154c-.06-.053-.187-.119-.282-.146s-.228-.094-.295-.148c-.067-.054-.198-.119-.29-.146s-.211-.091-.265-.142a.765.765 0 0 0-.284-.146.803.803 0 0 1-.266-.128c-.089-.083-.339-.205-.423-.206-.03 0-.105-.044-.166-.098s-.202-.128-.313-.165-.248-.107-.303-.155c-.056-.048-.194-.118-.308-.156s-.24-.105-.282-.149a.783.783 0 0 0-.289-.145c-.119-.036-.246-.099-.286-.142s-.167-.108-.284-.146c-.124-.04-.235-.099-.269-.143-.031-.041-.158-.113-.282-.16s-.258-.118-.297-.158c-.04-.039-.166-.103-.281-.142s-.243-.105-.283-.148c-.04-.043-.165-.108-.278-.146s-.245-.102-.294-.143c-.049-.041-.189-.113-.311-.159s-.258-.117-.302-.158c-.044-.041-.155-.099-.246-.129s-.218-.095-.281-.145c-.063-.05-.201-.12-.305-.156s-.244-.107-.311-.16c-.067-.053-.179-.111-.25-.13s-.188-.078-.262-.131c-.073-.054-.216-.126-.318-.161s-.217-.093-.255-.129-.154-.1-.258-.141c-.206-.083-.267-.159-.267-.337-.001-.212.224-.227.435-.029.037.035.165.099.284.142s.265.121.324.173c.06.052.16.105.223.117s.188.072.276.133.239.138.334.17c.095.032.226.102.293.155s.164.106.217.118a.96.96 0 0 1 .378.194c.05.041.167.098.262.125s.224.092.288.142c.064.051.191.117.283.146s.204.089.251.133c.047.043.182.114.301.157s.257.113.307.155.173.107.273.145c.1.038.23.11.289.162s.189.117.29.147c.101.029.229.093.285.141s.194.119.308.157c.114.038.239.104.28.147s.168.109.285.148c.116.038.258.111.316.16s.187.114.288.143c.101.029.227.093.28.142s.188.12.3.156c.112.036.236.101.274.142s.17.108.292.148c.132.043.245.102.279.146s.146.103.272.144c.118.039.251.103.295.144s.179.111.299.156.259.116.307.156.181.107.293.148c.113.041.241.107.285.148s.181.111.304.155.229.096.235.115c.014.043.151.114.347.179.085.028.191.086.236.128s.166.106.27.141c.104.036.224.088.266.115a.204.204 0 0 0 .162.029c.397-.099.224-.702-.24-.834-.103-.029-.231-.093-.283-.142s-.191-.12-.308-.158-.245-.105-.287-.149a.799.799 0 0 0-.295-.147c-.121-.037-.228-.087-.237-.112-.022-.056-.206-.152-.386-.201-.075-.02-.168-.072-.208-.115s-.178-.114-.306-.158c-.129-.044-.258-.109-.288-.146s-.155-.103-.278-.148c-.123-.044-.26-.114-.304-.155s-.174-.107-.288-.147c-.114-.04-.244-.105-.288-.145s-.179-.108-.3-.152-.258-.114-.304-.157c-.047-.043-.178-.11-.293-.15s-.23-.1-.256-.133c-.026-.033-.148-.097-.271-.141s-.252-.108-.288-.142c-.036-.034-.171-.105-.301-.157s-.267-.125-.304-.16c-.037-.035-.167-.1-.288-.143s-.258-.116-.304-.16c-.047-.044-.16-.109-.252-.144s-.212-.101-.266-.146c-.054-.046-.177-.106-.273-.134s-.214-.084-.262-.124a.918.918 0 0 0-.377-.191c-.053-.012-.147-.064-.208-.116s-.202-.125-.313-.162a.823.823 0 0 1-.257-.127c-.063-.067-.315-.189-.395-.19-.029 0-.113-.051-.187-.113a.994.994 0 0 0-.315-.164c-.1-.029-.227-.092-.282-.14s-.194-.119-.308-.157c-.114-.038-.239-.104-.28-.147s-.165-.109-.278-.146c-.114-.038-.24-.106-.283-.152s-.174-.121-.292-.166c-.272-.104-.376-.332-.242-.535.033-.05.416.085.567.2.058.044.193.115.299.156s.245.115.307.162.18.106.261.131.197.087.256.139c.059.052.194.126.299.164s.223.104.262.145.166.107.282.145c.116.038.25.105.296.148s.178.113.293.154c.115.042.244.111.288.155s.173.108.288.144c.115.035.243.099.286.142s.172.109.287.147c.115.038.243.106.284.149s.16.111.265.149c.105.038.232.104.282.146s.186.111.303.154.261.12.321.173c.06.053.135.097.165.097.079.001.331.12.409.193.036.034.148.09.248.124s.236.106.303.159a.682.682 0 0 0 .217.118c.127.03.268.102.376.192.048.04.165.096.259.123s.225.092.29.145c.066.052.193.119.283.149s.224.101.298.157c.074.057.2.119.28.139s.186.071.236.112a.936.936 0 0 0 .387.196c.057.012.163.072.235.132s.212.133.312.162c.1.029.228.093.285.143s.184.114.282.143c.098.029.227.095.287.148s.196.122.303.154a.992.992 0 0 1 .302.154c.304.267.764.191.707-.117-.054-.288-.086-.337-.292-.437-.108-.053-.236-.129-.285-.169s-.167-.095-.261-.122a.869.869 0 0 1-.259-.123.968.968 0 0 0-.376-.192c-.053-.012-.152-.067-.219-.121s-.183-.116-.256-.139c-.181-.055-.309-.116-.309-.148 0-.037-.213-.142-.378-.186a.475.475 0 0 1-.204-.114.68.68 0 0 0-.378-.176c-.034 0-.11-.041-.167-.091a.905.905 0 0 0-.406-.215.624.624 0 0 1-.228-.126.785.785 0 0 0-.282-.145c-.113-.035-.255-.106-.314-.159s-.188-.118-.286-.147c-.098-.028-.224-.092-.281-.142s-.194-.12-.306-.157a.825.825 0 0 1-.276-.145.806.806 0 0 0-.286-.144.821.821 0 0 1-.304-.156.797.797 0 0 0-.287-.15c-.108-.033-.237-.099-.287-.146s-.183-.117-.296-.155c-.113-.038-.222-.095-.243-.129s-.143-.1-.272-.148c-.129-.048-.27-.121-.314-.162s-.178-.109-.297-.152-.251-.113-.293-.154-.153-.103-.248-.136c-.094-.033-.217-.1-.272-.148s-.171-.115-.256-.147c-.086-.032-.215-.104-.288-.159s-.198-.117-.277-.137-.186-.07-.236-.112a.932.932 0 0 0-.391-.199.61.61 0 0 1-.228-.126.785.785 0 0 0-.282-.145c-.113-.035-.253-.105-.311-.156s-.197-.123-.308-.16c-.43-.144-.713-.566-.513-.766.084-.084.39-.004.561.146zm23.907 1.957c.132.107.203.523.13.761l-.098.324c-.055.183-.087.24-.155.272a.288.288 0 0 0-.119.109c-.058.117-.11.163-.202.182-.093.019-.42.309-.482.428-.054.103-.044.313.028.602.08.323.079.348-.008.504-.068.121-.267.248-.39.248a.48.48 0 0 0-.155.077l-.114.077-.053-.132c-.053-.131-.052-.132.052-.326l.105-.194.012-.856.012-.856-.099-.099c-.108-.108-.107-.104-.099-.334.007-.195.031-.227.19-.252a.616.616 0 0 0 .256-.13c.072-.06.185-.127.251-.148s.163-.078.216-.127c.181-.167.588-.242.722-.133zm-.78.574c-.157.174-.212.681-.087.806.162.162.343.099.435-.15a.907.907 0 0 1 .104-.209c.152-.179-.295-.621-.452-.447zm-1.793.668c.34.161.514.965.349 1.613-.042.167-.101.414-.13.551-.038.176-.071.258-.115.281a.44.44 0 0 0-.126.159c-.067.131-.427.512-.483.512-.018 0-.073.045-.123.1-.143.156-.609.211-.889.104-.34-.13-.41-1.923-.084-2.193.029-.024.093-.132.14-.238s.154-.262.235-.344c.081-.083.148-.164.148-.182s.114-.089.254-.159.264-.143.275-.163c.062-.1.376-.124.549-.042zm-.896.779c-.047.056-.086.118-.086.137s-.046.13-.103.246c-.116.238-.167.866-.093 1.142.034.126.335.461.415.461.07 0 .395-.418.44-.564.054-.178.063-1.084.013-1.264-.069-.25-.428-.346-.586-.158zm-1.545.364c.056.041.056.054-.01.376-.099.485-.101 1.683-.002 2.072l.066.262-.074.104c-.128.18-.187.221-.436.305l-.242.081-.061-.075c-.036-.044-.054-.102-.044-.141l.085-.314c.119-.441-.052-.62-.451-.471-.265.099-.303.164-.301.51.002.285.03.373.161.515l.075.081-.121.174c-.106.153-.145.183-.319.242a1.652 1.652 0 0 0-.326.157c-.254.176-.343-.149-.111-.406l.114-.127-.02-1.804-.107-.149c-.16-.223-.051-.455.262-.559.091-.03.217-.089.28-.131.162-.107.305-.144.349-.091.048.058-.022.329-.096.369-.202.108-.21.652-.011.763.058.033.328-.019.454-.087.158-.085.341-.687.229-.756-.237-.147-.196-.606.061-.683a.725.725 0 0 0 .218-.113c.186-.154.275-.179.376-.106zm-2.85 1.461c.081.031.082.037.08.344l-.002.313-.155.118c-.17.129-.195.13-.536.004-.257-.095-.514.045-.588.32-.07.259.036.32.593.342.467.018.486.025.624.216.145.2.14.452-.014.757-.061.121-.111.246-.111.279s-.057.105-.127.161-.136.131-.147.165c-.011.034-.081.089-.155.122s-.173.095-.22.139c-.098.091-.307.133-.512.102-.152-.023-.226.029-.315.221-.04.087-.061.097-.217.106-.218.012-.226-.001-.226-.362v-.288l.173-.184c.187-.199.177-.197.428-.081.273.126.353.116.576-.072.412-.348.311-.466-.418-.489-.457-.014-.46-.016-.544-.247-.07-.193-.074-.445-.01-.736.029-.132.052-.251.052-.265 0-.034.204-.259.446-.491.228-.218.352-.257.694-.216.175.021.159.031.343-.227.061-.087.154-.103.293-.05z"/></symbol><symbol id="Amazon_logo" viewBox="0 0 106 32"><path d="M65.759 24.999c-6.154 4.536-15.073 6.956-22.753 6.956-10.768 0-20.462-3.983-27.796-10.607-.576-.521-.06-1.231.631-.825 7.915 4.605 17.701 7.375 27.809 7.375 6.818 0 14.317-1.411 21.213-4.338 1.042-.443 1.913.682.894 1.438z"/><path d="M68.318 22.072c-.784-1.005-5.2-.475-7.182-.24-.604.074-.696-.452-.152-.83 3.517-2.475 9.288-1.761 9.961-.931.673.834-.175 6.619-3.48 9.38-.507.424-.991.198-.765-.364.742-1.853 2.406-6.006 1.618-7.016zM61.274 3.528V1.122c0-.364.277-.608.608-.608h10.773c.346 0 .622.249.622.608v2.06c-.005.346-.295.797-.811 1.512l-5.582 7.97c2.074-.051 4.264.258 6.145 1.318.424.24.539.59.572.936v2.568c0 .35-.387.761-.793.549-3.314-1.738-7.716-1.927-11.381.018-.373.203-.765-.203-.765-.553v-2.438c0-.392.005-1.06.396-1.655l6.467-9.274h-5.628c-.346 0-.622-.244-.622-.604zM21.978 18.541h-3.277a.619.619 0 0 1-.585-.558V1.163c0-.337.281-.604.631-.604h3.056a.618.618 0 0 1 .595.562V3.32h.06c.797-2.125 2.296-3.116 4.315-3.116 2.051 0 3.333.991 4.255 3.116.793-2.125 2.595-3.116 4.527-3.116 1.374 0 2.876.567 3.794 1.839 1.037 1.415.825 3.471.825 5.273l-.005 10.616a.618.618 0 0 1-.632.608h-3.273a.623.623 0 0 1-.59-.608V9.017c0-.71.065-2.48-.092-3.153-.244-1.129-.977-1.447-1.927-1.447-.793 0-1.623.53-1.959 1.378s-.304 2.268-.304 3.222v8.915a.618.618 0 0 1-.631.608h-3.273a.62.62 0 0 1-.59-.608l-.005-8.915c0-1.876.309-4.637-2.019-4.637-2.355 0-2.263 2.692-2.263 4.637v8.915a.618.618 0 0 1-.631.608zM82.552.205c4.863 0 7.495 4.176 7.495 9.486 0 5.13-2.909 9.201-7.495 9.201-4.775 0-7.375-4.176-7.375-9.38 0-5.236 2.632-9.307 7.375-9.307zm.028 3.434c-2.415 0-2.568 3.291-2.568 5.342 0 2.056-.032 6.444 2.54 6.444 2.54 0 2.66-3.54 2.66-5.697 0-1.42-.06-3.116-.489-4.462-.369-1.171-1.102-1.627-2.143-1.627zM96.353 18.541h-3.264a.623.623 0 0 1-.59-.608l-.005-16.825a.62.62 0 0 1 .632-.549h3.038a.626.626 0 0 1 .585.47v2.572h.06c.917-2.3 2.203-3.397 4.467-3.397 1.47 0 2.904.53 3.826 1.982.857 1.346.857 3.609.857 5.236V18.01c-.037.295-.309.53-.632.53h-3.287c-.3-.023-.549-.244-.581-.53V8.874c0-1.839.212-4.531-2.051-4.531-.797 0-1.53.535-1.895 1.346-.461 1.028-.521 2.051-.521 3.185v9.058a.63.63 0 0 1-.641.608zM52.687 10.507v-.71c-2.369 0-4.872.507-4.872 3.3 0 1.415.733 2.374 1.991 2.374.922 0 1.747-.567 2.268-1.489.645-1.134.613-2.199.613-3.476zm3.305 7.988a.683.683 0 0 1-.774.078c-1.088-.903-1.281-1.323-1.881-2.185-1.798 1.835-3.07 2.383-5.402 2.383-2.757 0-4.905-1.701-4.905-5.107 0-2.66 1.443-4.471 3.494-5.356 1.779-.784 4.264-.922 6.163-1.139v-.424c0-.779.06-1.701-.396-2.374-.401-.604-1.166-.853-1.839-.853-1.249 0-2.365.641-2.637 1.968-.055.295-.272.585-.567.599l-3.181-.341c-.267-.06-.562-.277-.489-.687.733-3.854 4.213-5.015 7.329-5.015 1.595 0 3.678.424 4.937 1.632 1.595 1.489 1.443 3.476 1.443 5.638v5.107c0 1.535.636 2.208 1.235 3.038.212.295.258.65-.009.871a138.67 138.67 0 0 0-2.512 2.176l-.009-.009zM9.721 10.507v-.71c-2.369 0-4.872.507-4.872 3.3 0 1.415.733 2.374 1.991 2.374.922 0 1.747-.567 2.268-1.489.645-1.134.613-2.199.613-3.476zm3.305 7.988a.683.683 0 0 1-.774.078c-1.088-.903-1.281-1.323-1.881-2.185-1.798 1.835-3.07 2.383-5.402 2.383-2.756 0-4.905-1.701-4.905-5.107 0-2.66 1.443-4.471 3.494-5.356 1.779-.784 4.264-.922 6.163-1.139v-.424c0-.779.06-1.701-.396-2.374-.401-.604-1.166-.853-1.839-.853-1.249 0-2.365.641-2.637 1.968-.055.295-.272.585-.567.599l-3.181-.341c-.267-.06-.562-.277-.489-.687C1.345 1.203 4.825.042 7.941.042c1.595 0 3.678.424 4.937 1.632 1.595 1.489 1.443 3.476 1.443 5.638v5.107c0 1.535.636 2.208 1.235 3.038.212.295.258.65-.009.871a138.67 138.67 0 0 0-2.512 2.176l-.009-.009z"/></symbol></defs></svg>