<svg aria-hidden="true" style="position: absolute; width: 0; height: 0; overflow: hidden;" version="1.1" xmlns="http://www.w3.org/2000/svg" xmlns:xlink="http://www.w3.org/1999/xlink">
<defs>
<symbol id="icon-apple" viewBox="0 0 32 32">
<path d="M27.13 28.224c-1.122-2.278-1.109-4.64 0.362-6.711 0.012-0.002 0.024-0.003 0.037-0.006 1.658-0.324 2.78-1.674 1.127-2.771-0.074-0.108-0.201-0.185-0.361-0.164-2.416 0.325-4.842 0.306-7.271 0.196 0.487-0.287 0.903-0.749 1.221-1.169 1.625-2.148 2.533-4.941 2.859-7.592 0.22-1.786-0.29-3.652-2.183-4.16-1.517-0.407-3.309 0.124-4.826 0.704 0.159-0.911 0.307-1.917 0.296-2.89 0.584 0.384 1.543 0.325 2.174 0.142 1.309-0.38 2.799-1.538 3.090-2.928 0.035-0.167-0.018-0.364-0.182-0.447-1.794-0.905-4.322-0.351-5.361 1.375-0.129-0.387-0.307-0.751-0.553-1.078-0.177-0.235-0.59-0.109-0.501 0.211 0.292 1.048 0.564 1.969 0.591 3.077 0.018 0.737-0.037 1.479-0.103 2.218-1.446-1.311-4.072-1.641-5.541-0.237-1.672 1.597-1.236 4.113-0.723 6.129 0.492 1.933 1.233 4.023 2.309 5.707 0.125 0.196 0.276 0.402 0.448 0.591-1.5-0.035-2.999-0.014-4.495 0.124-1.997 0.184-3.729 0.669-5.163 2.121-0.129 0.131-0.248 0.27-0.364 0.411-0.085-0.039-0.211 0.010-0.248 0.105-0.034 0.087-0.061 0.172-0.091 0.258-0.085-0.009-0.178 0.044-0.193 0.159-0.013 0.098-0.023 0.196-0.033 0.295-0.613 1.043-0.95 2.249-1.024 3.448-0.103 1.663 0.529 3.269 1.608 4.512 1.572 1.81 3.856 2.102 6.112 2.019 3.071-0.113 6.131 0.194 9.196 0.11 3.132-0.085 6.279-0.669 9.414-0.392 0.2 0.018 0.275-0.232 0.181-0.368 0.257-0.171 0.459-0.444 0.574-0.869 0.426-1.573-1.154-2.070-2.383-2.134zM17.54 17.78c0.67-0.271 1.174 0.432 1.72 0.897-0.901-0.052-1.802-0.107-2.702-0.155 0.28-0.271 0.557-0.571 0.982-0.742zM12.261 19.405c0.459-0.027 0.919-0.024 1.38-0.003-0.464 0.003-0.929 0.009-1.394 0.020 0.005-0.005 0.010-0.011 0.014-0.016zM7.687 29.13c-0.083-0.035-0.164-0.073-0.248-0.107 0.077 0.012 0.153 0.021 0.23 0.033 0.115 0.025 0.231 0.050 0.347 0.074-0.11 0.005-0.219 0.005-0.329-0zM24.122 28.471c-1.649 0.149-3.347 0.073-5.001 0.082-3.254 0.019-6.592 0.129-9.834-0.2-1.576-0.16-2.836-0.845-3.405-2.385-0.705-1.909 0.639-3.608 2.338-4.288 3.112-1.246 6.966-0.582 10.201-0.324 1.516 0.121 3.028 0.131 4.547 0.184 1.193 0.041 2.438 0.176 3.645 0.084-0.389 0.613-0.656 1.268-0.808 1.939-3.214 0.26-6.445 0.030-9.659-0.117-1.615-0.074-3.229-0.128-4.846-0.104-1.107 0.017-2.579-0.083-3.584 0.443-0.041 0.022-0.033 0.090 0.013 0.1 1.105 0.239 2.434-0.031 3.571-0.033 1.616-0.002 3.233 0.093 4.846 0.18 3.184 0.173 6.376 0.377 9.559 0.087-0.069 0.538-0.065 1.082 0.014 1.622-1.311-0.322-2.951-0.044-4.259 0.001-1.99 0.069-3.96 0.029-5.949-0.010-1.859-0.037-3.717 0.066-5.57-0.081-0.65-0.052-2.003-0.271-2.452 0.374-0.041 0.058 0.026 0.13 0.087 0.114 1.051-0.273 2.144-0.106 3.205 0.029 1.865 0.238 3.85 0.080 5.731 0.13 1.655 0.044 3.293 0.032 4.947-0.040 1.398-0.061 2.947 0.101 4.334-0.109 0.155 0.714 0.44 1.414 0.856 2.071-0.846 0.025-1.686 0.173-2.528 0.249z"></path>
</symbol>
<symbol id="icon-book_shop" viewBox="0 0 32 32">
<path d="M31.363 27.186h-0.184v-14.59c0-0.352-0.285-0.637-0.637-0.637h-13.457v-8.638c0-0.981-0.798-1.778-1.778-1.778h-4.348c-0.981-0-1.778 0.798-1.778 1.778v2.183c-0.16-0.047-0.329-0.073-0.503-0.073h-3.455c-0.981 0-1.778 0.798-1.778 1.778v4.749h-1.983c-0.352 0-0.637 0.285-0.637 0.637v14.59h-0.184c-0.352 0-0.637 0.285-0.637 0.637v1.996c0 0.352 0.285 0.637 0.637 0.637h30.725c0.352 0 0.637-0.285 0.637-0.637v-1.996c0-0.352-0.285-0.637-0.637-0.637zM10.454 3.321h0c0-0.278 0.226-0.503 0.503-0.503h4.348c0.278 0 0.503 0.226 0.503 0.503v8.612h-0.892v-7.586c0-0.352-0.285-0.637-0.637-0.637h-2.295c-0.352 0-0.637 0.285-0.637 0.637v7.586h-0.892v-8.612zM13.641 4.985v6.948h-1.020v-6.948h1.020zM4.717 7.21c0-0.278 0.226-0.503 0.503-0.503h3.455c0.278 0 0.503 0.226 0.503 0.503v4.724h-4.462v-4.724zM2.097 13.234h27.807v13.952h-1.76v-9.568c0-0.352-0.285-0.637-0.637-0.637h-6.386c-0.352 0-0.637 0.285-0.637 0.637v9.568h-18.386v-13.952zM22.448 22.038h-0.691v-3.783h5.111v8.931h-5.111v-3.873h0.691c0.352 0 0.637-0.285 0.637-0.637s-0.285-0.637-0.637-0.637zM30.725 29.182h-29.45v-0.721h29.45v0.721z"></path>
<path d="M18.213 16.159h-13.592c-0.352 0-0.637 0.285-0.637 0.637v6.448c0 0.352 0.285 0.637 0.637 0.637h13.592c0.352 0 0.637-0.285 0.637-0.637v-6.448c0-0.352-0.285-0.637-0.637-0.637zM5.258 17.434h12.317v2.834h-12.317v-2.834zM5.258 22.607v-1.064h12.317v1.064h-12.317z"></path>
<path d="M28.454 14.009h-6.322c-0.352 0-0.637 0.285-0.637 0.637s0.285 0.637 0.637 0.637h6.322c0.352 0 0.637-0.285 0.637-0.637s-0.285-0.637-0.637-0.637z"></path>
<path d="M20.173 14.009h-0.506c-0.352 0-0.637 0.285-0.637 0.637s0.285 0.637 0.637 0.637h0.506c0.352 0 0.637-0.285 0.637-0.637s-0.285-0.637-0.637-0.637z"></path>
</symbol>
<symbol id="icon-amazon" viewBox="0 0 106 32">
<path d="M65.759 24.999c-6.154 4.536-15.073 6.956-22.753 6.956-10.768 0-20.462-3.983-27.796-10.607-0.576-0.521-0.060-1.231 0.631-0.825 7.915 4.605 17.701 7.375 27.809 7.375 6.818 0 14.317-1.411 21.213-4.338 1.042-0.443 1.913 0.682 0.894 1.438z"></path>
<path d="M68.318 22.072c-0.784-1.005-5.2-0.475-7.182-0.24-0.604 0.074-0.696-0.452-0.152-0.83 3.517-2.475 9.288-1.761 9.961-0.931 0.673 0.834-0.175 6.619-3.48 9.38-0.507 0.424-0.991 0.198-0.765-0.364 0.742-1.853 2.406-6.006 1.618-7.016z"></path>
<path d="M61.274 3.528v-2.406c0-0.364 0.277-0.608 0.608-0.608h10.773c0.346 0 0.622 0.249 0.622 0.608v2.060c-0.005 0.346-0.295 0.797-0.811 1.512l-5.582 7.97c2.074-0.051 4.264 0.258 6.145 1.318 0.424 0.24 0.539 0.59 0.572 0.936v2.568c0 0.35-0.387 0.761-0.793 0.549-3.314-1.738-7.716-1.927-11.381 0.018-0.373 0.203-0.765-0.203-0.765-0.553v-2.438c0-0.392 0.005-1.060 0.396-1.655l6.467-9.274h-5.628c-0.346 0-0.622-0.244-0.622-0.604z"></path>
<path d="M21.978 18.541h-3.277c-0.313-0.023-0.562-0.258-0.585-0.558v-16.82c0-0.337 0.281-0.604 0.631-0.604h3.056c0.318 0.014 0.572 0.258 0.595 0.562v2.199h0.060c0.797-2.125 2.296-3.116 4.315-3.116 2.051 0 3.333 0.991 4.255 3.116 0.793-2.125 2.595-3.116 4.527-3.116 1.374 0 2.876 0.567 3.794 1.839 1.037 1.415 0.825 3.471 0.825 5.273l-0.005 10.616c0 0.337-0.281 0.608-0.632 0.608h-3.273c-0.327-0.023-0.59-0.286-0.59-0.608v-8.915c0-0.71 0.065-2.48-0.092-3.153-0.244-1.129-0.977-1.447-1.927-1.447-0.793 0-1.623 0.53-1.959 1.378s-0.304 2.268-0.304 3.222v8.915c0 0.337-0.281 0.608-0.631 0.608h-3.273c-0.332-0.023-0.59-0.286-0.59-0.608l-0.005-8.915c0-1.876 0.309-4.637-2.019-4.637-2.355 0-2.263 2.692-2.263 4.637v8.915c0 0.337-0.281 0.608-0.631 0.608z"></path>
<path d="M82.552 0.205c4.863 0 7.495 4.176 7.495 9.486 0 5.13-2.909 9.201-7.495 9.201-4.775 0-7.375-4.176-7.375-9.38 0-5.236 2.632-9.307 7.375-9.307zM82.58 3.639c-2.415 0-2.568 3.291-2.568 5.342 0 2.056-0.032 6.444 2.54 6.444 2.54 0 2.66-3.54 2.66-5.697 0-1.42-0.060-3.116-0.489-4.462-0.369-1.171-1.102-1.627-2.143-1.627z"></path>
<path d="M96.353 18.541h-3.264c-0.327-0.023-0.59-0.286-0.59-0.608l-0.005-16.825c0.028-0.309 0.3-0.549 0.632-0.549h3.038c0.286 0.014 0.521 0.207 0.585 0.47v2.572h0.060c0.917-2.3 2.203-3.397 4.467-3.397 1.47 0 2.904 0.53 3.826 1.982 0.857 1.346 0.857 3.609 0.857 5.236v10.588c-0.037 0.295-0.309 0.53-0.632 0.53h-3.287c-0.3-0.023-0.549-0.244-0.581-0.53v-9.136c0-1.839 0.212-4.531-2.051-4.531-0.797 0-1.53 0.535-1.895 1.346-0.461 1.028-0.521 2.051-0.521 3.185v9.058c-0.005 0.337-0.29 0.608-0.641 0.608z"></path>
<path d="M52.687 10.507v-0.71c-2.369 0-4.872 0.507-4.872 3.3 0 1.415 0.733 2.374 1.991 2.374 0.922 0 1.747-0.567 2.268-1.489 0.645-1.134 0.613-2.199 0.613-3.476zM55.992 18.495c-0.217 0.194-0.53 0.207-0.774 0.078-1.088-0.903-1.281-1.323-1.881-2.185-1.798 1.835-3.070 2.383-5.402 2.383-2.757 0-4.905-1.701-4.905-5.107 0-2.66 1.443-4.471 3.494-5.356 1.779-0.784 4.264-0.922 6.163-1.139v-0.424c0-0.779 0.060-1.701-0.396-2.374-0.401-0.604-1.166-0.853-1.839-0.853-1.249 0-2.365 0.641-2.637 1.968-0.055 0.295-0.272 0.585-0.567 0.599l-3.181-0.341c-0.267-0.060-0.562-0.277-0.489-0.687 0.733-3.854 4.213-5.015 7.329-5.015 1.595 0 3.678 0.424 4.937 1.632 1.595 1.489 1.443 3.476 1.443 5.638v5.107c0 1.535 0.636 2.208 1.235 3.038 0.212 0.295 0.258 0.65-0.009 0.871-0.668 0.558-1.858 1.595-2.512 2.176l-0.009-0.009z"></path>
<path d="M9.721 10.507v-0.71c-2.369 0-4.872 0.507-4.872 3.3 0 1.415 0.733 2.374 1.991 2.374 0.922 0 1.747-0.567 2.268-1.489 0.645-1.134 0.613-2.199 0.613-3.476zM13.026 18.495c-0.217 0.194-0.53 0.207-0.774 0.078-1.088-0.903-1.281-1.323-1.881-2.185-1.798 1.835-3.070 2.383-5.402 2.383-2.756 0-4.905-1.701-4.905-5.107 0-2.66 1.443-4.471 3.494-5.356 1.779-0.784 4.264-0.922 6.163-1.139v-0.424c0-0.779 0.060-1.701-0.396-2.374-0.401-0.604-1.166-0.853-1.839-0.853-1.249 0-2.365 0.641-2.637 1.968-0.055 0.295-0.272 0.585-0.567 0.599l-3.181-0.341c-0.267-0.060-0.562-0.277-0.489-0.687 0.733-3.854 4.213-5.015 7.329-5.015 1.595 0 3.678 0.424 4.937 1.632 1.595 1.489 1.443 3.476 1.443 5.638v5.107c0 1.535 0.636 2.208 1.235 3.038 0.212 0.295 0.258 0.65-0.009 0.871-0.668 0.558-1.858 1.595-2.512 2.176l-0.009-0.009z"></path>
</symbol>
</defs>
</svg>
