<svg aria-hidden="true" style="position: absolute; width: 0; height: 0; overflow: hidden;" version="1.1" xmlns="http://www.w3.org/2000/svg" xmlns:xlink="http://www.w3.org/1999/xlink">
<defs>
<symbol id="icon-close1" viewBox="0 0 32 32">
<path stroke-linejoin="round" stroke-linecap="round" stroke-miterlimit="4" stroke-width="3.4286" d="M24 8l-16 16M8 8l16 16"></path>
</symbol>
<symbol id="open-book2" viewBox="0 0 33 32">
<path fill="#fcf9f7" style="fill: var(--color1, #fcf9f7)" d="M11.283 8.517c-0.504 0.034-0.809 0.105-1.115 0.258-0.158 0.079-0.382 0.155-0.607 0.206-0.196 0.044-0.379 0.097-0.406 0.118s-0.116 0.096-0.197 0.167c-0.084 0.073-0.249 0.17-0.38 0.221-0.152 0.060-0.277 0.136-0.364 0.223-0.241 0.24-0.538 0.61-0.607 0.756l-0.069 0.144-0.008 5.569c-0.009 5.862-0.013 5.669 0.138 5.811 0.15 0.141 0.654 0.010 0.875-0.228 0.087-0.094 0.202-0.161 0.458-0.266 0.188-0.077 0.41-0.188 0.493-0.245 0.175-0.12 0.393-0.194 0.854-0.288 1.231-0.25 1.774-0.252 2.856-0.010 0.529 0.118 0.691 0.179 0.799 0.298 0.035 0.038 0.201 0.14 0.37 0.227 0.364 0.187 0.853 0.639 1.166 1.078 0.243 0.341 0.482 0.349 0.599 0.018 0.063-0.178 0.064-10.596 0.002-10.957-0.13-0.746-0.213-1.003-0.374-1.152-0.047-0.044-0.141-0.174-0.208-0.288-0.155-0.264-0.5-0.597-0.764-0.737-0.112-0.059-0.235-0.15-0.272-0.201-0.089-0.121-0.197-0.174-0.537-0.265-0.335-0.090-0.452-0.136-0.612-0.246-0.19-0.13-1.226-0.281-1.655-0.242-0.026 0.002-0.221 0.016-0.432 0.030zM20.644 8.516c-0.542 0.031-0.803 0.091-1.097 0.252-0.132 0.072-0.354 0.157-0.519 0.197-0.36 0.088-0.436 0.127-0.56 0.281-0.058 0.072-0.185 0.166-0.305 0.227-0.287 0.144-0.507 0.354-0.674 0.641-0.078 0.134-0.185 0.291-0.238 0.35-0.14 0.153-0.206 0.303-0.28 0.628-0.156 0.69-0.151 0.505-0.151 6.129 0 5.855-0.014 5.471 0.198 5.58s0.233 0.097 0.463-0.251c0.131-0.198 0.278-0.374 0.384-0.46 0.094-0.077 0.258-0.221 0.365-0.32s0.286-0.229 0.4-0.288c0.114-0.060 0.283-0.166 0.376-0.237 0.216-0.164 0.769-0.315 1.598-0.437 0.841-0.124 2.53 0.148 2.932 0.472 0.067 0.054 0.225 0.137 0.352 0.184 0.362 0.135 0.502 0.208 0.557 0.292 0.080 0.123 0.293 0.224 0.564 0.268l0.251 0.041 0.203-0.203v-11.25l-0.068-0.148c-0.038-0.081-0.14-0.226-0.227-0.322s-0.205-0.242-0.262-0.325c-0.089-0.129-0.15-0.173-0.438-0.311-0.184-0.088-0.389-0.207-0.454-0.264s-0.141-0.121-0.168-0.141c-0.027-0.020-0.209-0.073-0.406-0.118-0.227-0.051-0.448-0.127-0.607-0.207-0.331-0.167-1.493-0.359-1.739-0.288-0.009 0.003-0.211 0.016-0.449 0.029z"></path>
<path fill="#828282" style="fill: var(--color2, #828282)" d="M6.841 2.277c-0.382 0.049-0.535 0.167-0.535 0.411 0 0.059-0.020 0.065-0.221 0.065-0.324 0-0.323-0.001-0.323 0.273v0.234l-0.451 0.010c-0.523 0.012-0.541 0.022-0.541 0.301 0 0.191-0.018 0.205-0.255 0.205-0.193 0-0.234 0.046-0.251 0.288-0.015 0.202-0.037 0.222-0.246 0.224-0.195 0.002-0.229 0.078-0.258 0.567l-0.023 0.387-0.096 0.019c-0.053 0.010-0.136 0.019-0.186 0.019-0.174 0-0.19 0.068-0.19 0.819v0.677l-0.145 0.020c-0.202 0.028-0.262 0.067-0.309 0.205-0.053 0.155-0.079 17.368-0.027 17.803 0.040 0.328 0.086 0.387 0.319 0.41l0.163 0.016 0.001 0.66c0.001 0.869-0.023 0.807 0.328 0.852l0.152 0.020v0.193c0 0.11 0.020 0.23 0.047 0.278 0.026 0.047 0.068 0.139 0.094 0.205 0.045 0.113 0.122 0.169 0.315 0.229 0.045 0.014 0.056 0.054 0.056 0.202 0.001 0.251 0.051 0.343 0.192 0.353 0.316 0.024 0.319 0.026 0.319 0.211 0 0.247 0.043 0.288 0.317 0.303 0.216 0.012 0.228 0.017 0.228 0.090 0 0.043 0.020 0.126 0.045 0.185 0.044 0.106 0.055 0.112 0.339 0.196 0.044 0.013 0.195 0.032 0.336 0.043l0.256 0.019 0.009 0.096c0.027 0.274 0.092 0.317 0.558 0.367 0.431 0.046 18.856 0.046 19.287 0 0.465-0.050 0.531-0.093 0.558-0.367 0.009-0.094 0.013-0.096 0.201-0.104 0.346-0.015 0.336-0.007 0.336-0.28v-0.239h0.432c0.522 0 0.56-0.020 0.56-0.3 0-0.193 0.022-0.21 0.272-0.212 0.188-0.001 0.213-0.030 0.232-0.267l0.017-0.211 0.148-0.020c0.312-0.042 0.313-0.044 0.344-0.587l0.022-0.381 0.095-0.019c0.052-0.011 0.136-0.019 0.186-0.019 0.174 0 0.19-0.068 0.19-0.819v-0.677l0.161-0.021c0.201-0.027 0.275-0.098 0.308-0.297 0.048-0.28 0.033-17.804-0.015-17.94-0.046-0.128-0.154-0.187-0.347-0.187h-0.107l-0-0.664c-0-0.873 0.023-0.811-0.328-0.856l-0.152-0.020v-0.175c0-0.377-0.169-0.697-0.388-0.734l-0.125-0.021-0-0.181c-0.001-0.247-0.051-0.339-0.192-0.35-0.316-0.024-0.319-0.026-0.319-0.211 0-0.246-0.043-0.288-0.314-0.303l-0.225-0.013-0.020-0.105c-0.029-0.154-0.131-0.265-0.284-0.308-0.074-0.021-0.148-0.050-0.165-0.065s-0.143-0.027-0.28-0.027h-0.25v-0.098c0-0.251-0.11-0.325-0.575-0.381-0.337-0.041-18.957-0.038-19.278 0.003zM12.285 8.514c0.603 0.037 0.914 0.098 1.085 0.215 0.161 0.11 0.277 0.156 0.612 0.246 0.34 0.091 0.448 0.144 0.537 0.265 0.037 0.051 0.16 0.141 0.272 0.201 0.264 0.14 0.61 0.473 0.764 0.737 0.067 0.114 0.161 0.244 0.208 0.288 0.161 0.15 0.244 0.406 0.374 1.152 0.063 0.361 0.061 10.779-0.002 10.957-0.117 0.33-0.355 0.323-0.599-0.018-0.313-0.439-0.802-0.892-1.166-1.078-0.169-0.087-0.335-0.189-0.37-0.227-0.223-0.247-1.508-0.504-2.335-0.468-0.851 0.037-1.866 0.256-2.174 0.467-0.083 0.057-0.305 0.167-0.493 0.245-0.256 0.105-0.371 0.172-0.458 0.266-0.221 0.238-0.724 0.369-0.875 0.228-0.151-0.142-0.147 0.051-0.138-5.811l0.008-5.569 0.069-0.144c0.070-0.146 0.367-0.516 0.607-0.756 0.087-0.086 0.211-0.163 0.364-0.223 0.131-0.051 0.297-0.148 0.38-0.221 0.082-0.072 0.17-0.147 0.197-0.167s0.209-0.074 0.406-0.118c0.225-0.051 0.45-0.127 0.607-0.206 0.306-0.154 0.611-0.224 1.115-0.258 0.211-0.014 0.405-0.028 0.432-0.030s0.283 0.010 0.57 0.027zM21.617 8.515c0.624 0.040 0.891 0.097 1.215 0.26 0.159 0.080 0.381 0.156 0.607 0.207 0.196 0.044 0.379 0.097 0.406 0.118s0.102 0.084 0.168 0.141c0.066 0.057 0.27 0.176 0.454 0.264 0.288 0.138 0.35 0.181 0.438 0.311 0.057 0.083 0.175 0.229 0.262 0.325s0.189 0.241 0.227 0.322l0.068 0.148v11.25l-0.203 0.203-0.251-0.041c-0.272-0.044-0.484-0.145-0.564-0.268-0.055-0.084-0.195-0.157-0.557-0.292-0.127-0.047-0.285-0.13-0.352-0.184-0.402-0.324-2.091-0.596-2.932-0.472-0.829 0.122-1.382 0.274-1.598 0.437-0.093 0.070-0.262 0.177-0.376 0.237s-0.294 0.189-0.4 0.288-0.27 0.243-0.365 0.32c-0.106 0.086-0.253 0.262-0.384 0.46-0.23 0.347-0.253 0.359-0.463 0.251s-0.198 0.275-0.198-5.58c0-5.624-0.005-5.439 0.151-6.129 0.073-0.325 0.14-0.475 0.28-0.628 0.053-0.058 0.16-0.215 0.238-0.35 0.167-0.287 0.387-0.497 0.674-0.641 0.121-0.061 0.247-0.155 0.305-0.227 0.124-0.154 0.2-0.192 0.56-0.281 0.165-0.040 0.387-0.125 0.519-0.197 0.293-0.161 0.555-0.22 1.097-0.252 0.238-0.014 0.44-0.027 0.449-0.029s0.245 0.010 0.524 0.028z"></path>
</symbol>
<symbol id="open-book" viewBox="0 0 32 32">
<path fill="#fcfaf8" style="fill: var(--color3, #fcfaf8)" d="M10.352 8.723c-0.631 0.071-0.685 0.082-0.885 0.186-0.117 0.061-0.33 0.142-0.472 0.18-0.165 0.044-0.303 0.105-0.379 0.167-0.066 0.053-0.199 0.132-0.296 0.176s-0.241 0.126-0.32 0.184c-0.079 0.058-0.203 0.135-0.275 0.171s-0.157 0.107-0.188 0.156c-0.031 0.049-0.111 0.141-0.178 0.203-0.086 0.081-0.142 0.177-0.196 0.336l-0.075 0.223-0.009 5.568c-0.009 5.926-0.016 5.662 0.152 5.824l0.091 0.087 0.261-0.104c0.143-0.057 0.328-0.158 0.411-0.223s0.201-0.145 0.262-0.176 0.163-0.098 0.225-0.148c0.062-0.050 0.216-0.126 0.342-0.168s0.293-0.115 0.37-0.16c0.081-0.047 0.297-0.117 0.505-0.163 0.2-0.044 0.473-0.118 0.605-0.164 0.363-0.125 1.579-0.164 1.873-0.059 0.035 0.013 0.15 0.056 0.256 0.096s0.332 0.104 0.503 0.143c0.19 0.043 0.358 0.102 0.432 0.152 0.066 0.045 0.198 0.117 0.292 0.159s0.253 0.14 0.352 0.219c0.305 0.241 0.617 0.507 0.695 0.591 0.249 0.267 0.405 0.466 0.473 0.599 0.043 0.084 0.136 0.2 0.208 0.258 0.104 0.084 0.141 0.142 0.181 0.288 0.165 0.6 0.167 0.549 0.19-5.081 0.022-5.43 0.010-6.1-0.109-6.51-0.036-0.122-0.088-0.353-0.117-0.512-0.051-0.28-0.135-0.503-0.206-0.546-0.019-0.012-0.081-0.117-0.138-0.234-0.148-0.303-0.662-0.804-1.048-1.023-0.099-0.056-0.199-0.125-0.222-0.152-0.059-0.071-0.242-0.157-0.43-0.203-0.088-0.021-0.225-0.080-0.304-0.13-0.181-0.114-0.314-0.149-0.736-0.191-0.185-0.019-0.458-0.048-0.608-0.065-0.396-0.046-0.733-0.034-1.488 0.051zM20.096 8.674c-0.114 0.014-0.345 0.041-0.512 0.060-0.454 0.052-0.624 0.093-0.758 0.184-0.126 0.085-0.188 0.11-0.415 0.169-0.074 0.019-0.195 0.085-0.27 0.148s-0.209 0.151-0.298 0.196c-0.335 0.17-0.862 0.686-1.026 1.006-0.060 0.118-0.125 0.223-0.143 0.234-0.075 0.046-0.155 0.277-0.22 0.629-0.038 0.205-0.094 0.436-0.124 0.512-0.052 0.13-0.056 0.513-0.064 5.845-0.010 6.299-0.009 6.305 0.168 5.66 0.042-0.154 0.071-0.198 0.163-0.252 0.075-0.044 0.144-0.129 0.208-0.257 0.053-0.105 0.15-0.251 0.216-0.324s0.152-0.176 0.192-0.228c0.079-0.104 0.312-0.306 0.666-0.577 0.126-0.097 0.238-0.189 0.248-0.204s0.1-0.061 0.202-0.101 0.228-0.104 0.281-0.142c0.129-0.093 0.237-0.132 0.571-0.209 0.156-0.036 0.35-0.093 0.432-0.128 0.256-0.108 0.448-0.132 1.062-0.132 0.618 0 0.759 0.018 1.135 0.146 0.123 0.042 0.375 0.107 0.56 0.146s0.386 0.102 0.448 0.141c0.098 0.062 0.234 0.12 0.583 0.249 0.048 0.018 0.104 0.053 0.125 0.078s0.133 0.098 0.249 0.162 0.262 0.161 0.323 0.216c0.062 0.055 0.163 0.118 0.224 0.141s0.166 0.065 0.233 0.092c0.135 0.056 0.263-0.023 0.341-0.212 0.076-0.183 0.029-11.149-0.048-11.42-0.080-0.279-0.332-0.576-0.629-0.742-0.101-0.056-0.223-0.135-0.272-0.176s-0.153-0.106-0.233-0.146c-0.079-0.039-0.218-0.122-0.31-0.184-0.108-0.073-0.267-0.139-0.455-0.187-0.159-0.041-0.345-0.112-0.414-0.158-0.268-0.177-1.75-0.322-2.438-0.238z"></path>
<path fill="#878787" style="fill: var(--color4, #878787)" d="M7.187 2.337c-0.11 0.033-0.146 0.080-0.146 0.195l-0 0.084-0.468 0.014c-0.513 0.015-0.556 0.033-0.556 0.221 0 0.086-0.002 0.087-0.289 0.109-0.326 0.026-0.383 0.060-0.383 0.226v0.11h-0.156c-0.168 0-0.194 0.031-0.195 0.23-0 0.080-0.011 0.087-0.152 0.096-0.122 0.008-0.154 0.022-0.163 0.074-0.019 0.109-0.164 0.232-0.36 0.305-0.158 0.059-0.194 0.087-0.227 0.179-0.022 0.060-0.051 0.108-0.065 0.108s-0.026 0.071-0.026 0.158v0.158l-0.304 0.020-0.019 0.336h-0.143c-0.167 0-0.206 0.059-0.206 0.316 0 0.158-0.074 0.263-0.247 0.352-0.065 0.033-0.072 0.063-0.080 0.348l-0.009 0.312-0.118 0.010c-0.183 0.015-0.19 0.039-0.21 0.72l-0.018 0.621-0.105 0.038c-0.202 0.073-0.189-0.496-0.189 8.403 0 9.029-0.016 8.344 0.202 8.388l0.093 0.018 0.018 0.64c0.019 0.696 0.019 0.694 0.212 0.72l0.132 0.018v0.314c0 0.297 0.004 0.315 0.072 0.335 0.157 0.048 0.248 0.175 0.248 0.349 0.001 0.281 0.017 0.306 0.194 0.306h0.155l0.019 0.336 0.304 0.020v0.14c0 0.269 0.095 0.417 0.309 0.482s0.363 0.185 0.363 0.293c0 0.067 0.014 0.074 0.16 0.074 0.153 0 0.16 0.004 0.16 0.088 0.001 0.2 0.027 0.232 0.191 0.232 0.152 0 0.152 0 0.172 0.124 0.027 0.169 0.060 0.188 0.377 0.214l0.276 0.022 0.036 0.121c0.047 0.156 0.071 0.164 0.553 0.183l0.405 0.016 0.035 0.138c0.031 0.125 0.047 0.141 0.155 0.164 0.066 0.014 4.044 0.025 8.84 0.025 9.672 0 8.896 0.018 8.928-0.208l0.016-0.112 0.459-0.016c0.502-0.018 0.549-0.037 0.549-0.225 0-0.084 0.002-0.085 0.296-0.106 0.329-0.023 0.376-0.052 0.376-0.235 0-0.105 0.001-0.106 0.156-0.106 0.169 0 0.194-0.030 0.195-0.232 0-0.084 0.007-0.088 0.16-0.088 0.146 0 0.16-0.007 0.16-0.074 0-0.108 0.149-0.228 0.363-0.293s0.309-0.213 0.309-0.482v-0.14l0.304-0.020 0.019-0.336h0.143c0.167 0 0.206-0.059 0.206-0.316 0-0.16 0.065-0.254 0.231-0.337 0.068-0.034 0.074-0.060 0.082-0.344l0.009-0.308 0.14-0.021c0.183-0.027 0.181-0.020 0.201-0.743l0.018-0.613 0.093-0.019c0.218-0.044 0.202 0.642 0.202-8.388 0-8.922 0.014-8.33-0.194-8.405l-0.11-0.040-0.004-0.45c-0.002-0.247-0.013-0.543-0.024-0.657l-0.020-0.208-0.304-0.055v-0.316c0-0.257-0.009-0.317-0.047-0.317-0.128 0-0.273-0.193-0.274-0.363-0.001-0.284-0.016-0.309-0.195-0.309h-0.156v-0.157c0-0.173-0.024-0.195-0.211-0.195-0.108 0-0.109-0.002-0.109-0.141 0-0.273-0.093-0.416-0.311-0.477-0.196-0.055-0.345-0.174-0.367-0.293-0.009-0.052-0.041-0.066-0.163-0.074-0.141-0.009-0.152-0.016-0.152-0.096-0.001-0.199-0.027-0.23-0.192-0.23h-0.154l-0.022-0.128c-0.027-0.16-0.065-0.18-0.394-0.209-0.261-0.023-0.265-0.025-0.284-0.117-0.032-0.16-0.133-0.197-0.575-0.212l-0.396-0.013-0.018-0.084c-0.033-0.15-0.042-0.165-0.126-0.197-0.105-0.040-17.526-0.038-17.66 0.002zM11.84 8.672c0.15 0.017 0.423 0.047 0.608 0.065 0.422 0.042 0.555 0.077 0.736 0.191 0.079 0.050 0.216 0.109 0.304 0.13 0.188 0.046 0.371 0.132 0.43 0.203 0.023 0.028 0.123 0.096 0.222 0.152 0.387 0.219 0.9 0.72 1.048 1.023 0.057 0.117 0.12 0.222 0.138 0.234 0.071 0.044 0.155 0.266 0.206 0.546 0.029 0.159 0.082 0.39 0.117 0.512 0.12 0.411 0.131 1.081 0.109 6.51-0.022 5.63-0.024 5.681-0.19 5.081-0.040-0.146-0.077-0.204-0.181-0.288-0.072-0.058-0.166-0.174-0.208-0.258-0.068-0.134-0.224-0.332-0.473-0.599-0.078-0.084-0.391-0.35-0.695-0.591-0.099-0.079-0.258-0.177-0.352-0.219s-0.226-0.113-0.292-0.159c-0.074-0.050-0.242-0.11-0.432-0.152-0.171-0.038-0.398-0.103-0.503-0.143s-0.221-0.083-0.256-0.096c-0.294-0.105-1.51-0.066-1.873 0.059-0.133 0.046-0.405 0.12-0.605 0.164-0.208 0.046-0.425 0.116-0.505 0.163-0.077 0.045-0.244 0.118-0.37 0.16s-0.28 0.119-0.342 0.168-0.163 0.116-0.225 0.148c-0.062 0.032-0.18 0.111-0.262 0.176s-0.268 0.166-0.411 0.223l-0.261 0.104-0.091-0.087c-0.168-0.161-0.161 0.102-0.152-5.824l0.009-5.568 0.075-0.223c0.054-0.159 0.11-0.255 0.196-0.336 0.066-0.062 0.146-0.154 0.178-0.203s0.116-0.12 0.188-0.156c0.072-0.036 0.196-0.113 0.275-0.171s0.223-0.14 0.32-0.184c0.097-0.043 0.23-0.122 0.296-0.176 0.076-0.061 0.214-0.122 0.379-0.167 0.142-0.038 0.355-0.12 0.472-0.18 0.346-0.179 1.702-0.314 2.373-0.237zM21.36 8.69c0.749 0.073 1.027 0.125 1.174 0.222 0.069 0.045 0.255 0.116 0.414 0.158 0.188 0.049 0.347 0.114 0.455 0.187 0.091 0.062 0.23 0.145 0.31 0.184s0.184 0.105 0.233 0.146c0.049 0.041 0.171 0.12 0.272 0.176 0.298 0.166 0.549 0.462 0.629 0.742 0.078 0.271 0.124 11.237 0.048 11.42-0.078 0.189-0.206 0.268-0.341 0.212-0.066-0.028-0.171-0.069-0.233-0.092s-0.162-0.087-0.224-0.141c-0.062-0.055-0.207-0.152-0.323-0.216s-0.228-0.137-0.249-0.162c-0.021-0.025-0.077-0.060-0.125-0.078-0.349-0.129-0.485-0.188-0.583-0.249-0.062-0.039-0.263-0.102-0.448-0.141s-0.437-0.104-0.56-0.146c-0.605-0.205-1.727-0.213-2.197-0.014-0.082 0.034-0.276 0.092-0.432 0.128-0.334 0.077-0.442 0.116-0.571 0.209-0.053 0.038-0.179 0.102-0.281 0.142s-0.192 0.086-0.202 0.101c-0.010 0.016-0.121 0.108-0.248 0.204-0.354 0.271-0.587 0.473-0.666 0.577-0.040 0.052-0.126 0.155-0.192 0.228s-0.163 0.219-0.216 0.324c-0.065 0.128-0.133 0.212-0.208 0.257-0.093 0.055-0.121 0.099-0.163 0.252-0.178 0.645-0.178 0.639-0.168-5.66 0.008-5.332 0.012-5.715 0.064-5.845 0.031-0.076 0.087-0.307 0.124-0.512 0.065-0.353 0.146-0.583 0.22-0.629 0.018-0.011 0.083-0.117 0.143-0.234 0.165-0.32 0.692-0.837 1.026-1.006 0.089-0.045 0.223-0.133 0.298-0.196s0.196-0.129 0.27-0.148c0.228-0.058 0.29-0.083 0.415-0.169 0.135-0.091 0.305-0.133 0.758-0.184 0.167-0.019 0.398-0.046 0.512-0.060 0.341-0.042 0.722-0.037 1.264 0.016z"></path>
</symbol>
<symbol id="book-shop" viewBox="0 0 34 32">
<path fill="#000" style="fill: var(--color5, #fff)" d="M29.664 9.883c-0.053 0.028-0.136 0.084-0.184 0.124s-0.165 0.095-0.259 0.123c-0.094 0.027-0.225 0.092-0.291 0.145s-0.194 0.119-0.285 0.149c-0.091 0.030-0.214 0.096-0.272 0.146s-0.192 0.116-0.297 0.145c-0.106 0.029-0.224 0.085-0.263 0.123-0.084 0.083-0.255 0.175-0.327 0.175-0.067 0-0.234 0.086-0.344 0.178-0.048 0.040-0.166 0.096-0.262 0.124-0.11 0.032-0.196 0.080-0.233 0.132s-0.143 0.112-0.283 0.162c-0.123 0.044-0.26 0.115-0.304 0.156s-0.174 0.107-0.288 0.145c-0.114 0.038-0.246 0.105-0.292 0.149s-0.176 0.108-0.288 0.143c-0.112 0.035-0.241 0.099-0.286 0.142s-0.183 0.113-0.306 0.155c-0.124 0.042-0.263 0.112-0.311 0.156s-0.184 0.111-0.305 0.149c-0.125 0.039-0.252 0.104-0.295 0.15s-0.166 0.108-0.289 0.145c-0.121 0.037-0.246 0.099-0.288 0.144s-0.167 0.107-0.283 0.143c-0.115 0.036-0.246 0.1-0.291 0.143s-0.183 0.113-0.307 0.155c-0.124 0.042-0.263 0.112-0.311 0.156s-0.184 0.111-0.305 0.149c-0.125 0.039-0.252 0.104-0.295 0.15s-0.166 0.108-0.289 0.145c-0.121 0.037-0.246 0.099-0.288 0.144-0.041 0.043-0.167 0.107-0.28 0.142s-0.252 0.104-0.308 0.153c-0.056 0.049-0.206 0.122-0.332 0.162s-0.23 0.085-0.23 0.1c0 0.042-0.192 0.149-0.373 0.208-0.091 0.029-0.197 0.088-0.237 0.13s-0.167 0.107-0.283 0.145-0.248 0.103-0.293 0.145c-0.045 0.042-0.175 0.107-0.288 0.145-0.26 0.087-0.346 0.152-0.752 0.573-0.044 0.046-0.105 0.175-0.138 0.295-0.033 0.118-0.095 0.261-0.139 0.319-0.098 0.13-0.106 0.16-0.186 0.75-0.036 0.262-0.085 0.591-0.111 0.732-0.069 0.385-0.060 0.831 0.028 1.361 0.042 0.255 0.094 0.616 0.115 0.8 0.032 0.284 0.055 0.363 0.144 0.512 0.058 0.097 0.116 0.226 0.129 0.288 0.1 0.472 0.476 0.634 0.808 0.348 0.057-0.049 0.199-0.119 0.317-0.155s0.245-0.1 0.283-0.141c0.038-0.041 0.169-0.108 0.291-0.148 0.128-0.042 0.249-0.105 0.286-0.149 0.035-0.042 0.165-0.113 0.287-0.157s0.26-0.114 0.304-0.155c0.044-0.041 0.174-0.106 0.287-0.143s0.243-0.102 0.288-0.144 0.173-0.106 0.283-0.142c0.111-0.037 0.244-0.102 0.295-0.145s0.186-0.109 0.298-0.147c0.113-0.037 0.25-0.108 0.305-0.158s0.19-0.117 0.3-0.15c0.11-0.033 0.243-0.098 0.296-0.144s0.19-0.115 0.303-0.153 0.238-0.099 0.277-0.136c0.039-0.037 0.169-0.102 0.287-0.145s0.256-0.112 0.306-0.154 0.182-0.107 0.295-0.144c0.112-0.038 0.249-0.108 0.304-0.157s0.18-0.114 0.278-0.145c0.098-0.031 0.225-0.098 0.283-0.148s0.176-0.119 0.263-0.152c0.087-0.033 0.221-0.105 0.296-0.16s0.184-0.11 0.24-0.122c0.13-0.028 0.318-0.123 0.372-0.188 0.023-0.028 0.111-0.071 0.195-0.096 0.184-0.055 0.281-0.102 0.368-0.182 0.036-0.033 0.151-0.089 0.256-0.125s0.252-0.109 0.326-0.162c0.074-0.053 0.204-0.117 0.288-0.143s0.223-0.096 0.308-0.157c0.085-0.061 0.201-0.121 0.256-0.133 0.127-0.027 0.274-0.1 0.359-0.177 0.036-0.033 0.149-0.088 0.25-0.123s0.238-0.105 0.303-0.156c0.065-0.051 0.193-0.117 0.284-0.147s0.22-0.097 0.285-0.149c0.066-0.052 0.196-0.117 0.291-0.145s0.216-0.087 0.27-0.133c0.055-0.046 0.188-0.114 0.296-0.152l0.197-0.068-0.004-0.161c-0.006-0.245-0.048-0.299-0.232-0.299-0.188 0-0.452 0.084-0.517 0.164-0.026 0.033-0.158 0.102-0.292 0.154s-0.28 0.127-0.324 0.168c-0.044 0.041-0.163 0.103-0.264 0.137s-0.233 0.102-0.293 0.15c-0.060 0.048-0.196 0.116-0.302 0.152s-0.234 0.1-0.286 0.144c-0.051 0.043-0.188 0.11-0.304 0.149s-0.237 0.098-0.268 0.132c-0.032 0.034-0.171 0.106-0.311 0.159s-0.284 0.126-0.322 0.162-0.168 0.101-0.288 0.144c-0.12 0.044-0.25 0.108-0.288 0.144s-0.166 0.1-0.285 0.143c-0.119 0.043-0.256 0.112-0.306 0.154s-0.185 0.107-0.301 0.146c-0.116 0.039-0.237 0.098-0.268 0.132s-0.171 0.106-0.311 0.159c-0.139 0.053-0.284 0.126-0.322 0.162s-0.168 0.101-0.288 0.144-0.25 0.108-0.288 0.144-0.168 0.1-0.288 0.144c-0.12 0.044-0.262 0.12-0.315 0.169s-0.17 0.114-0.26 0.143-0.197 0.089-0.238 0.132c-0.043 0.046-0.164 0.106-0.287 0.143-0.125 0.037-0.244 0.097-0.288 0.144s-0.164 0.107-0.288 0.144c-0.121 0.036-0.257 0.103-0.318 0.158s-0.199 0.123-0.32 0.16c-0.125 0.038-0.246 0.099-0.291 0.146s-0.163 0.107-0.289 0.145c-0.122 0.036-0.244 0.097-0.286 0.142-0.041 0.044-0.169 0.11-0.285 0.147s-0.257 0.108-0.313 0.158c-0.056 0.049-0.179 0.115-0.273 0.146s-0.218 0.097-0.275 0.147c-0.057 0.050-0.187 0.114-0.288 0.144s-0.231 0.094-0.288 0.144c-0.205 0.179-0.675 0.262-0.774 0.136-0.171-0.217-0.015-0.546 0.318-0.673 0.079-0.030 0.194-0.096 0.256-0.146s0.207-0.119 0.322-0.154c0.123-0.037 0.242-0.096 0.287-0.144 0.042-0.045 0.153-0.104 0.246-0.131s0.228-0.098 0.3-0.158 0.191-0.124 0.265-0.143c0.195-0.049 0.286-0.093 0.332-0.159 0.040-0.057 0.222-0.136 0.401-0.175 0.048-0.010 0.131-0.061 0.184-0.113 0.060-0.059 0.178-0.118 0.316-0.16 0.121-0.036 0.247-0.096 0.28-0.133 0.076-0.084 0.189-0.143 0.333-0.172 0.062-0.013 0.163-0.072 0.225-0.131 0.063-0.061 0.196-0.137 0.303-0.174 0.105-0.036 0.227-0.099 0.272-0.141s0.174-0.106 0.288-0.143c0.113-0.038 0.243-0.103 0.288-0.146s0.174-0.108 0.286-0.146c0.112-0.038 0.256-0.109 0.32-0.159s0.209-0.121 0.323-0.158 0.243-0.102 0.288-0.144c0.045-0.042 0.175-0.107 0.288-0.144s0.243-0.102 0.288-0.144c0.045-0.042 0.175-0.107 0.288-0.144s0.244-0.104 0.29-0.148c0.046-0.044 0.184-0.114 0.308-0.156s0.263-0.112 0.31-0.155c0.047-0.043 0.175-0.106 0.285-0.139s0.244-0.098 0.297-0.145c0.053-0.046 0.19-0.115 0.303-0.153s0.243-0.103 0.288-0.145c0.045-0.042 0.175-0.107 0.288-0.144s0.244-0.104 0.29-0.148c0.046-0.044 0.184-0.114 0.308-0.156s0.263-0.112 0.31-0.155c0.047-0.043 0.175-0.106 0.284-0.139s0.228-0.093 0.262-0.133c0.035-0.040 0.165-0.112 0.29-0.16s0.261-0.12 0.302-0.159c0.041-0.040 0.171-0.104 0.288-0.142 0.163-0.054 0.25-0.107 0.367-0.226 0.085-0.085 0.165-0.155 0.178-0.155s0.018-0.043 0.011-0.096c-0.026-0.176-0.554-0.083-0.887 0.157-0.071 0.051-0.188 0.109-0.259 0.128s-0.193 0.084-0.271 0.143c-0.078 0.060-0.221 0.134-0.318 0.165s-0.226 0.096-0.288 0.144-0.185 0.111-0.275 0.14c-0.090 0.029-0.219 0.094-0.288 0.144s-0.204 0.118-0.301 0.149-0.227 0.097-0.288 0.146c-0.062 0.049-0.199 0.119-0.304 0.155s-0.25 0.107-0.32 0.156-0.207 0.116-0.304 0.147c-0.097 0.031-0.212 0.090-0.257 0.132s-0.174 0.109-0.289 0.151c-0.114 0.041-0.269 0.12-0.344 0.174s-0.205 0.115-0.289 0.135c-0.084 0.020-0.203 0.079-0.264 0.131s-0.201 0.124-0.311 0.161c-0.111 0.037-0.243 0.102-0.295 0.146s-0.18 0.108-0.286 0.144c-0.106 0.036-0.246 0.107-0.311 0.159s-0.192 0.115-0.281 0.141c-0.090 0.026-0.233 0.097-0.318 0.158s-0.2 0.12-0.256 0.132c-0.125 0.027-0.267 0.098-0.351 0.177-0.035 0.033-0.156 0.090-0.268 0.128s-0.246 0.103-0.298 0.147-0.18 0.108-0.286 0.144c-0.106 0.036-0.246 0.107-0.311 0.159s-0.194 0.116-0.286 0.143c-0.092 0.027-0.23 0.097-0.307 0.155s-0.209 0.13-0.294 0.158c-0.085 0.028-0.203 0.094-0.263 0.146-0.098 0.086-0.282 0.162-0.392 0.163-0.023 0-0.091 0.050-0.152 0.111-0.073 0.073-0.174 0.129-0.295 0.164-0.101 0.029-0.231 0.094-0.288 0.144s-0.205 0.122-0.328 0.159c-0.123 0.038-0.224 0.081-0.224 0.097 0 0.145-0.53 0.217-0.623 0.085-0.147-0.211-0.050-0.471 0.229-0.613 0.084-0.043 0.18-0.108 0.213-0.144s0.155-0.097 0.272-0.136 0.248-0.103 0.292-0.143c0.044-0.041 0.164-0.105 0.267-0.143s0.233-0.111 0.291-0.161c0.057-0.050 0.186-0.122 0.285-0.159s0.182-0.079 0.182-0.092c0-0.038 0.239-0.162 0.411-0.213 0.087-0.026 0.176-0.069 0.199-0.097 0.054-0.065 0.242-0.16 0.372-0.188 0.056-0.012 0.154-0.064 0.218-0.114s0.183-0.116 0.266-0.145c0.207-0.073 0.261-0.1 0.388-0.192 0.061-0.044 0.185-0.102 0.277-0.129s0.201-0.078 0.242-0.114c0.101-0.088 0.229-0.152 0.412-0.207 0.084-0.025 0.171-0.068 0.194-0.096 0.054-0.065 0.242-0.16 0.373-0.188 0.056-0.012 0.154-0.064 0.218-0.114s0.183-0.116 0.266-0.145c0.207-0.073 0.261-0.1 0.388-0.192 0.061-0.044 0.185-0.102 0.277-0.129s0.201-0.078 0.242-0.114c0.093-0.082 0.269-0.171 0.395-0.202 0.052-0.013 0.16-0.070 0.24-0.129s0.226-0.129 0.325-0.157 0.199-0.074 0.222-0.102c0.050-0.061 0.222-0.15 0.398-0.207 0.070-0.023 0.178-0.081 0.24-0.129s0.209-0.119 0.328-0.158c0.119-0.039 0.216-0.081 0.216-0.095 0-0.034 0.284-0.182 0.4-0.209 0.053-0.012 0.152-0.066 0.22-0.121s0.209-0.125 0.313-0.158c0.104-0.032 0.243-0.101 0.308-0.152s0.198-0.118 0.295-0.15c0.097-0.031 0.227-0.097 0.288-0.147s0.192-0.118 0.291-0.151 0.219-0.099 0.269-0.145c0.050-0.046 0.184-0.113 0.298-0.148s0.255-0.104 0.313-0.152c0.058-0.048 0.144-0.115 0.192-0.148 0.075-0.052 0.102-0.341 0.037-0.391s-0.155-0.036-0.221 0.035c-0.044 0.047-0.177 0.116-0.312 0.162-0.129 0.044-0.27 0.115-0.313 0.157s-0.168 0.108-0.279 0.145c-0.11 0.037-0.234 0.102-0.274 0.145s-0.182 0.114-0.317 0.159c-0.136 0.045-0.261 0.108-0.282 0.142s-0.144 0.096-0.274 0.14c-0.13 0.044-0.273 0.117-0.319 0.162-0.047 0.047-0.178 0.111-0.306 0.15s-0.255 0.101-0.296 0.145c-0.040 0.042-0.168 0.108-0.284 0.146s-0.248 0.103-0.293 0.145c-0.045 0.042-0.186 0.111-0.314 0.155s-0.257 0.109-0.287 0.145c-0.030 0.036-0.157 0.101-0.283 0.143s-0.264 0.113-0.309 0.157c-0.045 0.045-0.178 0.11-0.304 0.148-0.127 0.039-0.255 0.101-0.296 0.145-0.040 0.042-0.168 0.108-0.284 0.146s-0.248 0.103-0.293 0.145c-0.045 0.042-0.183 0.11-0.307 0.152s-0.262 0.113-0.307 0.158c-0.045 0.045-0.175 0.11-0.29 0.146s-0.245 0.101-0.289 0.145c-0.045 0.045-0.178 0.11-0.304 0.148-0.127 0.039-0.255 0.101-0.296 0.145-0.040 0.042-0.168 0.108-0.284 0.146s-0.248 0.103-0.293 0.145c-0.045 0.042-0.183 0.11-0.307 0.152s-0.262 0.113-0.307 0.158-0.175 0.11-0.29 0.146c-0.115 0.035-0.244 0.1-0.288 0.144s-0.179 0.11-0.299 0.148c-0.121 0.037-0.256 0.102-0.3 0.144s-0.173 0.113-0.287 0.159c-0.113 0.046-0.238 0.113-0.277 0.15s-0.168 0.102-0.287 0.145-0.256 0.112-0.306 0.154c-0.050 0.042-0.188 0.108-0.307 0.148s-0.267 0.098-0.329 0.131c-0.214 0.114-0.286 0.064-0.311-0.22-0.024-0.268 0.173-0.514 0.497-0.62 0.117-0.038 0.25-0.104 0.295-0.146s0.171-0.106 0.279-0.143c0.108-0.037 0.247-0.106 0.309-0.155s0.202-0.121 0.313-0.161c0.111-0.040 0.239-0.107 0.284-0.149s0.175-0.107 0.288-0.145c0.113-0.038 0.243-0.102 0.288-0.144s0.175-0.107 0.288-0.144c0.113-0.038 0.242-0.102 0.286-0.142s0.184-0.111 0.312-0.157 0.265-0.117 0.306-0.157c0.041-0.041 0.174-0.107 0.296-0.146s0.259-0.107 0.304-0.149c0.045-0.042 0.175-0.107 0.288-0.144s0.243-0.102 0.288-0.144c0.045-0.042 0.175-0.107 0.288-0.144s0.242-0.101 0.286-0.142c0.044-0.041 0.185-0.111 0.312-0.157s0.265-0.117 0.306-0.158c0.041-0.041 0.174-0.107 0.296-0.146s0.258-0.106 0.302-0.147c0.044-0.041 0.178-0.11 0.299-0.153s0.25-0.108 0.288-0.144c0.038-0.036 0.168-0.101 0.288-0.144s0.252-0.11 0.292-0.148c0.040-0.038 0.176-0.104 0.301-0.148s0.261-0.113 0.302-0.154c0.041-0.041 0.174-0.107 0.297-0.147s0.259-0.107 0.304-0.149c0.045-0.042 0.171-0.106 0.279-0.143s0.249-0.108 0.313-0.159c0.064-0.051 0.192-0.114 0.284-0.141s0.221-0.090 0.284-0.141c0.064-0.050 0.21-0.124 0.326-0.163s0.244-0.105 0.285-0.146 0.162-0.106 0.27-0.146c0.108-0.039 0.219-0.098 0.249-0.13s0.156-0.098 0.282-0.146c0.126-0.048 0.272-0.119 0.325-0.159s0.163-0.101 0.245-0.136c0.177-0.076 0.185-0.087 0.209-0.285 0.033-0.277-0.251-0.306-0.537-0.054-0.064 0.056-0.193 0.127-0.288 0.158s-0.21 0.091-0.255 0.133c-0.046 0.042-0.16 0.106-0.254 0.142s-0.229 0.106-0.301 0.156c-0.072 0.050-0.205 0.115-0.297 0.144s-0.219 0.095-0.283 0.146c-0.064 0.051-0.192 0.115-0.285 0.142s-0.224 0.093-0.291 0.146c-0.067 0.054-0.198 0.119-0.291 0.146s-0.227 0.092-0.3 0.144c-0.072 0.052-0.226 0.13-0.342 0.172s-0.242 0.106-0.281 0.143c-0.039 0.037-0.16 0.097-0.268 0.134s-0.249 0.108-0.312 0.158c-0.064 0.050-0.192 0.114-0.284 0.141s-0.222 0.091-0.287 0.143c-0.065 0.052-0.206 0.124-0.313 0.16s-0.244 0.103-0.303 0.148c-0.060 0.045-0.186 0.109-0.28 0.142s-0.233 0.103-0.307 0.157c-0.074 0.054-0.211 0.12-0.303 0.147s-0.221 0.091-0.287 0.143c-0.065 0.052-0.207 0.124-0.315 0.161s-0.229 0.097-0.268 0.133c-0.039 0.037-0.17 0.103-0.29 0.147s-0.266 0.115-0.323 0.159c-0.057 0.044-0.182 0.106-0.276 0.139s-0.233 0.103-0.307 0.157c-0.074 0.054-0.211 0.12-0.303 0.146s-0.221 0.091-0.287 0.143c-0.065 0.052-0.207 0.124-0.315 0.161s-0.229 0.097-0.268 0.134c-0.039 0.037-0.17 0.103-0.29 0.146s-0.269 0.118-0.331 0.167-0.184 0.114-0.272 0.147c-0.088 0.033-0.199 0.092-0.248 0.132s-0.171 0.103-0.272 0.139c-0.102 0.037-0.206 0.081-0.233 0.098-0.547 0.357-0.927 0.326-0.888-0.072 0.020-0.211 0.104-0.312 0.337-0.408 0.108-0.044 0.231-0.113 0.274-0.154s0.17-0.103 0.282-0.138c0.112-0.035 0.24-0.098 0.285-0.141s0.18-0.114 0.302-0.158c0.121-0.044 0.26-0.117 0.307-0.163s0.177-0.111 0.288-0.146c0.111-0.034 0.237-0.098 0.281-0.142s0.173-0.108 0.287-0.144c0.114-0.035 0.256-0.107 0.316-0.159s0.191-0.119 0.292-0.148 0.231-0.094 0.288-0.144c0.057-0.050 0.187-0.115 0.288-0.144s0.231-0.094 0.287-0.143c0.057-0.050 0.2-0.12 0.317-0.156s0.249-0.102 0.293-0.146 0.173-0.109 0.287-0.144c0.114-0.035 0.256-0.107 0.316-0.159s0.191-0.119 0.292-0.148c0.101-0.029 0.231-0.094 0.288-0.144s0.187-0.115 0.288-0.144c0.101-0.029 0.231-0.094 0.287-0.144s0.2-0.12 0.317-0.156c0.117-0.036 0.249-0.101 0.291-0.144s0.174-0.11 0.291-0.148c0.117-0.039 0.26-0.111 0.318-0.161s0.187-0.114 0.288-0.144 0.23-0.093 0.287-0.143 0.186-0.115 0.288-0.146c0.102-0.031 0.225-0.092 0.273-0.135s0.184-0.112 0.301-0.151c0.118-0.040 0.255-0.108 0.305-0.152s0.189-0.112 0.307-0.152c0.119-0.039 0.263-0.112 0.32-0.162s0.185-0.114 0.283-0.143c0.098-0.029 0.203-0.081 0.232-0.116 0.061-0.073 0.221-0.159 0.402-0.218 0.069-0.022 0.155-0.075 0.192-0.117s0.162-0.111 0.277-0.152c0.116-0.042 0.25-0.112 0.297-0.156s0.126-0.090 0.174-0.101c0.269-0.064 0.359-0.121 0.455-0.29 0.128-0.224 0.135-0.436 0.014-0.491-0.102-0.046-0.105-0.046-0.223 0.017zM5.462 12.002c-0.023 0.037 0.020 0.173 0.125 0.398l0.086 0.185-0.020 0.599c-0.026 0.788-0.042 0.927-0.114 1-0.22 0.22-0.203 0.54 0.032 0.592 0.050 0.011 0.161 0.070 0.246 0.13s0.227 0.133 0.315 0.162c0.088 0.028 0.211 0.090 0.272 0.137 0.257 0.196 0.806 0.274 0.908 0.129 0.116-0.166 0.052-0.863-0.093-1.022-0.153-0.167-0.156-0.244-0.013-0.392l0.128-0.133-0-0.29c-0-0.159-0.014-0.311-0.030-0.338-0.154-0.247-0.547-0.621-0.7-0.667-0.069-0.021-0.178-0.080-0.243-0.131s-0.193-0.119-0.285-0.149c-0.091-0.030-0.245-0.096-0.341-0.146-0.184-0.095-0.242-0.109-0.27-0.063zM6.495 12.815c0.303 0.33 0.32 0.376 0.231 0.61-0.066 0.173-0.342 0.234-0.448 0.098-0.248-0.315-0.041-0.99 0.217-0.708zM8.34 13.56c-0.053 0.043-0.112 0.079-0.131 0.079-0.044 0-0.174 0.137-0.174 0.184 0 0.020-0.043 0.148-0.097 0.286-0.123 0.318-0.136 0.672-0.036 0.96 0.035 0.102 0.102 0.321 0.147 0.487 0.061 0.221 0.104 0.317 0.163 0.363 0.044 0.035 0.109 0.119 0.144 0.188s0.080 0.125 0.101 0.125 0.096 0.062 0.167 0.137c0.105 0.111 0.178 0.152 0.379 0.214 0.137 0.042 0.263 0.094 0.28 0.114 0.062 0.075 0.333-0.020 0.506-0.178 0.203-0.185 0.243-0.382 0.224-1.12l-0.013-0.502-0.124-0.254c-0.068-0.139-0.145-0.297-0.171-0.35-0.076-0.155-0.483-0.549-0.628-0.609-0.175-0.072-0.244-0.105-0.34-0.16-0.123-0.071-0.29-0.057-0.4 0.034zM6.493 13.951c0.445 0.383 0.456 0.829 0.021 0.887-0.227 0.030-0.317-0.044-0.36-0.294-0.079-0.46 0.11-0.79 0.339-0.593zM9.132 14.214c0.25 0.196 0.383 1.064 0.218 1.424-0.036 0.079-0.065 0.166-0.065 0.195 0 0.212-0.292 0.285-0.502 0.125-0.388-0.296-0.361-1.735 0.033-1.784 0.204-0.026 0.237-0.022 0.315 0.040zM10.95 14.9c-0.107 0.029-0.156 0.062-0.192 0.133-0.027 0.052-0.101 0.19-0.166 0.305-0.201 0.358-0.199 0.948 0.006 1.359 0.053 0.106 0.096 0.221 0.097 0.256 0.002 0.108 0.117 0.326 0.219 0.416 0.053 0.047 0.114 0.128 0.136 0.181 0.025 0.061 0.092 0.122 0.187 0.17 0.081 0.041 0.182 0.112 0.224 0.157 0.178 0.191 0.785 0.235 0.919 0.067 0.041-0.052 0.113-0.142 0.161-0.2 0.192-0.236 0.202-1.422 0.015-1.66-0.033-0.042-0.098-0.181-0.145-0.31-0.063-0.172-0.109-0.248-0.175-0.287-0.049-0.029-0.113-0.102-0.142-0.162-0.031-0.066-0.083-0.117-0.131-0.129-0.044-0.011-0.127-0.061-0.184-0.111-0.218-0.19-0.536-0.261-0.825-0.184zM11.67 15.529c0.365 0.14 0.452 1.488 0.119 1.858l-0.087 0.097-0.2-0.13c-0.295-0.192-0.308-0.23-0.31-0.897-0.004-0.912 0.083-1.079 0.478-0.928zM13.351 16.063c-0.117 0.043-0.127 0.076-0.055 0.175 0.069 0.094 0.071 0.116 0.065 0.923-0.007 0.9 0.010 0.801-0.192 1.164-0.137 0.247 0.019 0.476 0.411 0.6l0.223 0.070 0.079-0.079c0.076-0.076 0.077-0.083 0.030-0.196-0.15-0.36 0.027-0.832 0.257-0.682 0.312 0.205 0.464 0.79 0.26 1.006l-0.080 0.084 0.077 0.111c0.042 0.061 0.077 0.129 0.077 0.15 0 0.032 0.304 0.171 0.377 0.172 0.012 0 0.086 0.051 0.163 0.112 0.145 0.115 0.229 0.134 0.367 0.082l0.080-0.030-0.061-0.121c-0.034-0.066-0.061-0.14-0.061-0.163 0-0.050-0.113-0.277-0.195-0.391-0.032-0.045-0.081-0.203-0.109-0.352-0.031-0.169-0.080-0.314-0.128-0.384-0.267-0.389-0.204-0.767 0.147-0.881 0.32-0.103 0.39-0.387 0.128-0.513-0.077-0.037-0.158-0.091-0.18-0.121-0.041-0.056-0.272-0.15-0.369-0.15-0.106 0-0.139 0.082-0.104 0.258 0.038 0.191-0.021 0.295-0.213 0.374-0.063 0.026-0.147 0.077-0.186 0.113-0.244 0.226-0.351-0.396-0.124-0.725 0.144-0.21 0.144-0.225-0.010-0.322-0.069-0.044-0.147-0.109-0.173-0.146-0.071-0.102-0.374-0.184-0.503-0.137zM5.085 16.366c-0.2 0.2 0.083 0.622 0.513 0.766 0.112 0.037 0.25 0.11 0.308 0.16s0.198 0.121 0.311 0.156c0.116 0.036 0.239 0.099 0.282 0.145 0.042 0.045 0.144 0.101 0.228 0.126 0.183 0.054 0.272 0.099 0.391 0.199 0.050 0.042 0.156 0.092 0.236 0.112s0.205 0.082 0.277 0.137c0.073 0.055 0.202 0.127 0.288 0.159s0.201 0.099 0.256 0.147 0.178 0.115 0.272 0.148c0.094 0.033 0.206 0.094 0.248 0.136s0.174 0.111 0.293 0.154c0.119 0.043 0.253 0.112 0.297 0.152s0.185 0.113 0.314 0.162c0.129 0.048 0.251 0.115 0.272 0.148s0.13 0.091 0.243 0.129c0.113 0.038 0.246 0.107 0.296 0.155s0.179 0.113 0.287 0.146c0.114 0.035 0.235 0.097 0.287 0.15 0.054 0.054 0.177 0.117 0.304 0.156 0.12 0.037 0.246 0.1 0.286 0.144 0.040 0.043 0.164 0.108 0.276 0.145s0.25 0.107 0.306 0.157c0.056 0.049 0.183 0.113 0.281 0.142s0.227 0.095 0.286 0.147c0.060 0.052 0.201 0.124 0.314 0.159 0.117 0.036 0.239 0.099 0.282 0.145 0.042 0.045 0.145 0.102 0.228 0.126 0.192 0.057 0.274 0.101 0.406 0.215 0.058 0.050 0.133 0.091 0.167 0.091 0.104 0 0.307 0.095 0.378 0.176 0.037 0.042 0.128 0.093 0.204 0.114 0.165 0.044 0.378 0.149 0.378 0.186 0 0.032 0.128 0.093 0.309 0.148 0.073 0.022 0.188 0.085 0.256 0.139s0.167 0.108 0.219 0.121c0.127 0.030 0.268 0.102 0.376 0.192 0.048 0.040 0.165 0.096 0.259 0.123s0.212 0.082 0.261 0.122 0.178 0.116 0.285 0.169c0.205 0.101 0.238 0.15 0.292 0.437 0.058 0.308-0.402 0.384-0.707 0.117-0.060-0.052-0.196-0.122-0.302-0.154s-0.243-0.102-0.303-0.154c-0.060-0.053-0.189-0.119-0.287-0.148s-0.225-0.093-0.282-0.143-0.186-0.114-0.285-0.143-0.24-0.101-0.312-0.162c-0.072-0.060-0.178-0.12-0.235-0.132-0.132-0.028-0.271-0.099-0.387-0.196-0.050-0.042-0.156-0.092-0.236-0.112s-0.206-0.083-0.28-0.139c-0.074-0.057-0.209-0.127-0.298-0.157s-0.217-0.097-0.283-0.149c-0.066-0.052-0.196-0.117-0.29-0.145s-0.211-0.083-0.259-0.123c-0.108-0.090-0.249-0.162-0.376-0.192-0.053-0.012-0.15-0.066-0.217-0.118s-0.203-0.124-0.303-0.159c-0.1-0.035-0.212-0.090-0.248-0.124-0.077-0.073-0.33-0.192-0.409-0.193-0.030-0-0.104-0.044-0.165-0.097s-0.205-0.131-0.321-0.173-0.252-0.111-0.303-0.154c-0.050-0.042-0.177-0.108-0.282-0.146s-0.224-0.105-0.265-0.149c-0.041-0.044-0.169-0.111-0.284-0.149s-0.245-0.105-0.287-0.147c-0.043-0.043-0.171-0.107-0.286-0.142s-0.244-0.1-0.288-0.144c-0.044-0.044-0.173-0.113-0.288-0.155s-0.246-0.111-0.293-0.154c-0.047-0.043-0.18-0.11-0.296-0.148s-0.243-0.103-0.282-0.145c-0.039-0.042-0.157-0.107-0.262-0.145s-0.24-0.112-0.299-0.164c-0.059-0.052-0.174-0.114-0.256-0.139s-0.199-0.083-0.261-0.131c-0.062-0.047-0.2-0.12-0.307-0.162s-0.241-0.112-0.299-0.156c-0.151-0.115-0.534-0.25-0.567-0.2-0.133 0.203-0.030 0.432 0.242 0.535 0.118 0.045 0.249 0.119 0.292 0.166s0.169 0.114 0.283 0.152c0.113 0.038 0.238 0.103 0.278 0.146s0.166 0.109 0.28 0.147c0.114 0.038 0.252 0.108 0.308 0.157s0.183 0.112 0.282 0.14c0.102 0.029 0.24 0.101 0.315 0.164 0.074 0.062 0.158 0.112 0.187 0.113 0.080 0.001 0.332 0.122 0.395 0.19 0.030 0.033 0.146 0.090 0.257 0.127s0.252 0.11 0.313 0.162c0.061 0.052 0.155 0.104 0.208 0.116 0.124 0.027 0.265 0.098 0.377 0.191 0.048 0.040 0.166 0.096 0.262 0.124s0.219 0.088 0.273 0.134c0.054 0.046 0.174 0.111 0.266 0.146s0.206 0.099 0.252 0.144c0.047 0.044 0.183 0.116 0.304 0.16s0.25 0.108 0.288 0.143c0.037 0.035 0.174 0.107 0.304 0.16s0.265 0.124 0.301 0.157c0.036 0.034 0.166 0.098 0.288 0.142s0.244 0.108 0.271 0.141c0.027 0.033 0.142 0.093 0.256 0.133s0.246 0.107 0.293 0.15 0.183 0.113 0.304 0.157c0.121 0.044 0.256 0.112 0.3 0.152s0.174 0.105 0.288 0.145c0.114 0.040 0.244 0.106 0.288 0.147s0.181 0.111 0.304 0.155c0.123 0.044 0.249 0.111 0.278 0.148s0.159 0.102 0.288 0.146c0.129 0.044 0.266 0.115 0.306 0.158s0.133 0.095 0.208 0.115c0.18 0.048 0.364 0.144 0.386 0.201 0.010 0.025 0.117 0.076 0.237 0.112 0.128 0.039 0.251 0.1 0.295 0.147 0.041 0.044 0.17 0.111 0.287 0.149s0.255 0.109 0.308 0.158c0.053 0.049 0.18 0.113 0.283 0.142 0.463 0.132 0.637 0.735 0.24 0.834-0.055 0.014-0.112 0.003-0.162-0.029-0.042-0.028-0.162-0.080-0.266-0.115s-0.226-0.099-0.27-0.141c-0.045-0.042-0.151-0.099-0.236-0.128-0.197-0.066-0.333-0.136-0.347-0.179-0.006-0.019-0.112-0.070-0.235-0.115s-0.26-0.114-0.304-0.155c-0.044-0.041-0.172-0.107-0.285-0.148s-0.244-0.107-0.293-0.148c-0.049-0.041-0.187-0.111-0.307-0.156s-0.255-0.115-0.299-0.156c-0.044-0.041-0.177-0.105-0.295-0.144-0.127-0.041-0.239-0.101-0.272-0.144s-0.146-0.103-0.279-0.146c-0.122-0.040-0.254-0.106-0.292-0.148s-0.162-0.106-0.274-0.142c-0.112-0.036-0.247-0.107-0.3-0.156s-0.179-0.113-0.28-0.142c-0.101-0.029-0.231-0.093-0.288-0.143s-0.199-0.122-0.316-0.16c-0.116-0.038-0.244-0.105-0.285-0.148s-0.166-0.109-0.28-0.147c-0.114-0.038-0.252-0.108-0.308-0.157s-0.184-0.112-0.285-0.141c-0.101-0.029-0.232-0.095-0.29-0.147s-0.189-0.124-0.289-0.162c-0.1-0.038-0.223-0.103-0.273-0.145s-0.188-0.112-0.307-0.155c-0.119-0.043-0.254-0.114-0.301-0.157s-0.159-0.103-0.251-0.133-0.218-0.096-0.283-0.146c-0.064-0.051-0.194-0.115-0.288-0.142s-0.212-0.084-0.262-0.125c-0.11-0.092-0.251-0.164-0.378-0.194-0.053-0.012-0.15-0.066-0.217-0.118s-0.198-0.123-0.293-0.155c-0.095-0.033-0.245-0.109-0.334-0.17s-0.213-0.121-0.276-0.133c-0.063-0.012-0.164-0.064-0.223-0.117s-0.205-0.13-0.324-0.173c-0.119-0.043-0.246-0.107-0.284-0.142-0.21-0.198-0.435-0.183-0.435 0.029 0.001 0.178 0.061 0.254 0.267 0.337 0.103 0.042 0.219 0.105 0.258 0.141s0.153 0.094 0.255 0.129c0.102 0.035 0.245 0.108 0.318 0.161s0.191 0.113 0.262 0.131c0.071 0.019 0.183 0.077 0.25 0.13s0.207 0.125 0.311 0.16 0.241 0.105 0.305 0.156c0.063 0.050 0.19 0.116 0.281 0.145s0.202 0.087 0.246 0.129c0.044 0.041 0.18 0.112 0.302 0.158s0.262 0.117 0.311 0.159c0.049 0.041 0.182 0.106 0.294 0.143s0.238 0.103 0.278 0.146c0.040 0.043 0.168 0.109 0.283 0.148s0.242 0.102 0.281 0.142c0.039 0.040 0.173 0.111 0.297 0.158s0.251 0.119 0.282 0.16c0.033 0.043 0.145 0.102 0.269 0.143 0.116 0.038 0.244 0.103 0.284 0.146s0.167 0.106 0.286 0.142c0.123 0.037 0.246 0.099 0.289 0.145 0.041 0.044 0.168 0.111 0.282 0.149s0.252 0.108 0.308 0.156c0.056 0.048 0.192 0.118 0.303 0.155s0.252 0.111 0.313 0.165c0.061 0.054 0.136 0.098 0.166 0.098 0.084 0.001 0.334 0.122 0.423 0.206 0.044 0.041 0.164 0.098 0.266 0.128 0.108 0.031 0.227 0.092 0.284 0.146 0.054 0.051 0.173 0.115 0.265 0.142s0.223 0.092 0.29 0.146c0.067 0.053 0.2 0.12 0.295 0.148s0.222 0.093 0.282 0.146c0.060 0.053 0.196 0.122 0.303 0.154s0.243 0.102 0.303 0.154c0.060 0.053 0.187 0.118 0.282 0.146s0.228 0.094 0.295 0.147c0.067 0.053 0.195 0.118 0.285 0.145s0.217 0.092 0.284 0.146c0.067 0.054 0.199 0.123 0.295 0.155 0.532 0.175 0.766 0.796 0.352 0.932-0.115 0.038-0.288-0.022-0.323-0.113-0.009-0.024-0.131-0.083-0.27-0.129s-0.271-0.11-0.293-0.141c-0.022-0.031-0.149-0.107-0.283-0.169s-0.252-0.135-0.262-0.163c-0.011-0.028-0.115-0.079-0.237-0.116-0.129-0.039-0.26-0.103-0.321-0.16-0.057-0.052-0.181-0.117-0.275-0.144s-0.225-0.093-0.291-0.145c-0.066-0.052-0.194-0.119-0.285-0.148s-0.222-0.097-0.289-0.15-0.186-0.115-0.262-0.139c-0.171-0.052-0.26-0.097-0.377-0.195-0.050-0.042-0.156-0.092-0.236-0.112s-0.206-0.083-0.28-0.14c-0.074-0.057-0.209-0.127-0.298-0.157s-0.216-0.096-0.28-0.146c-0.064-0.051-0.207-0.122-0.318-0.16s-0.226-0.094-0.255-0.126c-0.029-0.032-0.11-0.082-0.18-0.111s-0.184-0.076-0.254-0.105c-0.070-0.029-0.151-0.079-0.18-0.111s-0.144-0.088-0.255-0.125-0.235-0.101-0.276-0.141c-0.041-0.041-0.168-0.107-0.283-0.147s-0.24-0.107-0.279-0.148c-0.039-0.042-0.166-0.111-0.283-0.153s-0.251-0.113-0.298-0.156c-0.047-0.043-0.18-0.11-0.296-0.148s-0.244-0.104-0.285-0.147c-0.040-0.043-0.168-0.109-0.285-0.147s-0.255-0.109-0.308-0.157c-0.053-0.048-0.182-0.114-0.286-0.146s-0.236-0.099-0.292-0.148c-0.056-0.049-0.191-0.117-0.301-0.151s-0.238-0.1-0.284-0.147c-0.047-0.047-0.185-0.118-0.306-0.159s-0.244-0.104-0.272-0.141c-0.028-0.037-0.157-0.103-0.287-0.147s-0.269-0.115-0.309-0.159c-0.040-0.043-0.136-0.095-0.212-0.116-0.182-0.049-0.294-0.108-0.394-0.208-0.129-0.129-0.22-0.062-0.192 0.14 0.026 0.183 0.047 0.204 0.272 0.272 0.098 0.029 0.208 0.088 0.245 0.13s0.163 0.109 0.281 0.148c0.118 0.039 0.261 0.112 0.317 0.162s0.145 0.101 0.197 0.113c0.128 0.031 0.324 0.132 0.397 0.204 0.033 0.033 0.138 0.082 0.234 0.11s0.228 0.093 0.293 0.145c0.066 0.052 0.194 0.119 0.285 0.148s0.222 0.097 0.289 0.15 0.186 0.115 0.262 0.139c0.17 0.051 0.26 0.097 0.374 0.192 0.048 0.040 0.164 0.095 0.256 0.122s0.207 0.086 0.255 0.131c0.048 0.045 0.182 0.116 0.299 0.158s0.243 0.106 0.282 0.14c0.084 0.077 0.257 0.167 0.321 0.167 0.026 0 0.105 0.049 0.177 0.109s0.22 0.139 0.329 0.176c0.11 0.037 0.236 0.102 0.281 0.144s0.175 0.109 0.29 0.149c0.114 0.040 0.244 0.105 0.288 0.145s0.181 0.109 0.304 0.154c0.123 0.044 0.249 0.111 0.278 0.147s0.159 0.102 0.288 0.145c0.134 0.045 0.261 0.111 0.298 0.155s0.159 0.107 0.286 0.149c0.122 0.040 0.253 0.107 0.291 0.148s0.167 0.105 0.286 0.142c0.123 0.038 0.248 0.101 0.289 0.145 0.040 0.043 0.164 0.109 0.276 0.146s0.247 0.107 0.3 0.155c0.053 0.048 0.191 0.119 0.308 0.157s0.243 0.103 0.282 0.145 0.138 0.101 0.221 0.131c0.082 0.031 0.213 0.104 0.29 0.162s0.214 0.128 0.305 0.155c0.091 0.026 0.215 0.092 0.275 0.146s0.178 0.118 0.261 0.143c0.172 0.051 0.26 0.094 0.323 0.157s0.217 0.137 0.343 0.164c0.12 0.026 0.397 0.265 0.47 0.406 0.175 0.338-0.151 0.668-0.413 0.418-0.060-0.057-0.178-0.118-0.286-0.149-0.101-0.029-0.232-0.095-0.292-0.147s-0.198-0.123-0.309-0.157c-0.114-0.036-0.244-0.103-0.3-0.157-0.058-0.055-0.177-0.117-0.286-0.147-0.11-0.031-0.227-0.092-0.286-0.148-0.055-0.053-0.137-0.104-0.182-0.114-0.181-0.040-0.352-0.118-0.414-0.19-0.036-0.041-0.137-0.096-0.225-0.122-0.199-0.059-0.288-0.105-0.384-0.201-0.042-0.041-0.127-0.089-0.189-0.106s-0.169-0.076-0.237-0.13-0.205-0.127-0.306-0.162c-0.1-0.035-0.219-0.097-0.264-0.139s-0.175-0.109-0.289-0.149c-0.114-0.040-0.244-0.106-0.289-0.147s-0.18-0.11-0.301-0.154c-0.121-0.044-0.258-0.115-0.303-0.157s-0.18-0.109-0.299-0.148c-0.123-0.040-0.24-0.102-0.273-0.143s-0.152-0.104-0.278-0.146c-0.122-0.040-0.254-0.109-0.294-0.152-0.041-0.044-0.162-0.105-0.281-0.141-0.135-0.041-0.24-0.096-0.298-0.158-0.049-0.052-0.1-0.095-0.113-0.095-0.078 0-0.395-0.147-0.475-0.221-0.053-0.048-0.168-0.106-0.256-0.129s-0.217-0.089-0.287-0.147c-0.070-0.058-0.174-0.116-0.231-0.129-0.131-0.028-0.271-0.098-0.384-0.193-0.048-0.040-0.166-0.096-0.261-0.124s-0.234-0.101-0.308-0.162c-0.074-0.062-0.158-0.112-0.187-0.113-0.077-0.001-0.33-0.121-0.407-0.193-0.036-0.034-0.146-0.089-0.245-0.123s-0.254-0.113-0.346-0.177c-0.092-0.063-0.188-0.115-0.213-0.115-0.062 0-0.266-0.107-0.359-0.188-0.042-0.036-0.151-0.088-0.243-0.115s-0.223-0.092-0.29-0.146c-0.226-0.18-0.373-0.157-0.433 0.067-0.053 0.197-0.034 0.231 0.159 0.293 0.096 0.031 0.211 0.090 0.256 0.132s0.175 0.107 0.288 0.144c0.114 0.038 0.243 0.102 0.288 0.144s0.182 0.109 0.304 0.149 0.253 0.106 0.291 0.148c0.038 0.041 0.167 0.105 0.286 0.142s0.253 0.103 0.298 0.148c0.045 0.045 0.183 0.116 0.307 0.158s0.262 0.111 0.307 0.152c0.045 0.041 0.174 0.106 0.288 0.144s0.243 0.102 0.288 0.144c0.045 0.042 0.177 0.107 0.293 0.145s0.245 0.105 0.286 0.148c0.044 0.047 0.166 0.107 0.297 0.145 0.125 0.037 0.257 0.101 0.301 0.145s0.173 0.113 0.288 0.155c0.115 0.042 0.247 0.112 0.293 0.157s0.179 0.111 0.295 0.146c0.119 0.037 0.242 0.1 0.286 0.146 0.045 0.048 0.164 0.107 0.288 0.144 0.123 0.036 0.244 0.097 0.287 0.143s0.182 0.115 0.326 0.163c0.138 0.046 0.271 0.112 0.295 0.145s0.149 0.098 0.279 0.142c0.13 0.044 0.272 0.115 0.317 0.157s0.146 0.102 0.225 0.132c0.079 0.030 0.207 0.103 0.284 0.161s0.215 0.128 0.307 0.155c0.092 0.027 0.222 0.092 0.289 0.145s0.181 0.113 0.253 0.132c0.164 0.044 0.372 0.149 0.372 0.187 0 0.016 0.069 0.053 0.152 0.083 0.278 0.099 0.39 0.152 0.445 0.213 0.030 0.033 0.13 0.082 0.223 0.109s0.216 0.084 0.275 0.127c0.126 0.092 0.244 0.15 0.447 0.222 0.082 0.029 0.187 0.087 0.233 0.13s0.145 0.094 0.219 0.114c0.167 0.045 0.376 0.149 0.376 0.188 0 0.016 0.069 0.053 0.152 0.083 0.287 0.102 0.389 0.152 0.458 0.226 0.162 0.173 0.486 0.136 0.528-0.061 0.024-0.111 0.126-0.33 0.19-0.406 0.047-0.056 0.102-0.29 0.131-0.56 0.011-0.106 0.062-0.365 0.113-0.576 0.128-0.533 0.135-1.299 0.014-1.796-0.043-0.177-0.102-0.492-0.13-0.7-0.057-0.412-0.078-0.487-0.174-0.619-0.035-0.048-0.093-0.172-0.128-0.276-0.039-0.114-0.115-0.243-0.193-0.328-0.071-0.077-0.145-0.175-0.164-0.217-0.026-0.057-0.107-0.104-0.303-0.178-0.147-0.056-0.28-0.122-0.294-0.148s-0.14-0.089-0.28-0.141c-0.14-0.052-0.276-0.121-0.304-0.154s-0.145-0.092-0.262-0.131c-0.117-0.039-0.267-0.113-0.332-0.166s-0.195-0.117-0.288-0.144c-0.093-0.027-0.221-0.091-0.285-0.142s-0.212-0.124-0.328-0.163c-0.117-0.039-0.242-0.102-0.278-0.141s-0.166-0.104-0.289-0.144c-0.122-0.040-0.255-0.107-0.295-0.147s-0.168-0.105-0.284-0.144c-0.116-0.039-0.261-0.111-0.322-0.16s-0.2-0.119-0.309-0.155c-0.108-0.037-0.234-0.101-0.279-0.143s-0.182-0.109-0.304-0.149c-0.122-0.040-0.252-0.104-0.288-0.143s-0.166-0.104-0.289-0.144c-0.122-0.040-0.255-0.106-0.295-0.147s-0.168-0.105-0.284-0.144c-0.116-0.039-0.261-0.111-0.322-0.16s-0.2-0.119-0.309-0.155-0.234-0.1-0.279-0.141c-0.045-0.041-0.178-0.114-0.296-0.163s-0.235-0.12-0.26-0.159c-0.028-0.044-0.122-0.093-0.248-0.13-0.113-0.034-0.242-0.099-0.294-0.149-0.053-0.051-0.184-0.116-0.308-0.154s-0.247-0.099-0.29-0.145c-0.042-0.045-0.166-0.107-0.288-0.144-0.125-0.038-0.246-0.099-0.29-0.146-0.046-0.049-0.165-0.108-0.299-0.148-0.126-0.037-0.257-0.101-0.302-0.146-0.044-0.044-0.181-0.114-0.305-0.156s-0.262-0.111-0.308-0.154-0.179-0.109-0.295-0.147c-0.116-0.038-0.245-0.105-0.286-0.148-0.042-0.045-0.157-0.102-0.266-0.133-0.106-0.030-0.239-0.096-0.298-0.147-0.171-0.15-0.477-0.23-0.561-0.146zM31.248 17.55c0 0.059 0.021 0.089 0.071 0.102 0.107 0.028 0.111-0.003 0.016-0.099l-0.086-0.086v0.084zM29.231 18.432c-0.177 0.030-0.309 0.086-0.4 0.17-0.053 0.049-0.15 0.106-0.216 0.127s-0.179 0.088-0.251 0.148c-0.077 0.064-0.183 0.118-0.256 0.13-0.159 0.025-0.183 0.057-0.19 0.252-0.008 0.23-0.009 0.226 0.099 0.334l0.099 0.099-0.012 0.856-0.012 0.856-0.105 0.194c-0.104 0.193-0.105 0.194-0.052 0.326l0.053 0.132 0.114-0.077c0.063-0.043 0.133-0.077 0.155-0.077 0.123 0 0.323-0.127 0.39-0.248 0.087-0.156 0.088-0.181 0.008-0.504-0.072-0.29-0.081-0.5-0.028-0.602 0.062-0.12 0.388-0.409 0.482-0.428 0.092-0.018 0.144-0.065 0.202-0.182 0.019-0.038 0.073-0.087 0.119-0.109 0.068-0.032 0.099-0.089 0.155-0.272 0.038-0.127 0.082-0.273 0.098-0.324 0.041-0.134 0.034-0.397-0.015-0.56-0.067-0.224-0.172-0.281-0.437-0.237zM29.062 19.078c0.145 0.145 0.223 0.343 0.164 0.413-0.026 0.031-0.073 0.125-0.104 0.209-0.147 0.398-0.499 0.3-0.499-0.138 0-0.47 0.215-0.707 0.439-0.484zM26.521 19.69c-0.038 0.015-0.079 0.044-0.090 0.063s-0.136 0.093-0.275 0.163c-0.14 0.070-0.254 0.142-0.254 0.159s-0.067 0.099-0.148 0.182c-0.081 0.083-0.187 0.238-0.235 0.344s-0.111 0.214-0.14 0.238c-0.325 0.27-0.256 2.063 0.084 2.193 0.279 0.107 0.746 0.052 0.889-0.104 0.050-0.055 0.106-0.1 0.123-0.1 0.057 0 0.417-0.381 0.483-0.512 0.035-0.070 0.092-0.141 0.126-0.159 0.044-0.023 0.077-0.105 0.115-0.281 0.029-0.137 0.088-0.384 0.13-0.551 0.248-0.977-0.199-1.881-0.808-1.634zM26.581 20.481c0.127 0.115 0.179 1.090 0.076 1.431-0.044 0.146-0.369 0.564-0.44 0.564-0.080 0-0.381-0.335-0.415-0.461-0.074-0.276-0.023-0.905 0.093-1.142 0.057-0.116 0.103-0.226 0.103-0.246 0-0.2 0.41-0.302 0.583-0.146zM24.317 20.849c-0.035 0.020-0.104 0.070-0.154 0.11s-0.147 0.091-0.218 0.113c-0.257 0.077-0.298 0.537-0.061 0.683 0.111 0.069-0.071 0.671-0.229 0.756-0.126 0.068-0.396 0.12-0.454 0.087-0.198-0.111-0.19-0.655 0.011-0.763 0.074-0.039 0.144-0.31 0.096-0.369-0.044-0.053-0.188-0.016-0.349 0.091-0.063 0.042-0.189 0.1-0.28 0.131-0.313 0.104-0.422 0.336-0.262 0.559l0.107 0.149 0.020 1.804-0.114 0.127c-0.232 0.256-0.143 0.582 0.111 0.406 0.070-0.049 0.217-0.119 0.326-0.157 0.174-0.060 0.213-0.090 0.319-0.242l0.121-0.174-0.075-0.081c-0.131-0.141-0.159-0.23-0.161-0.515-0.002-0.346 0.036-0.411 0.301-0.51 0.398-0.149 0.57 0.030 0.451 0.471-0.037 0.137-0.075 0.278-0.085 0.314-0.010 0.039 0.008 0.096 0.044 0.141l0.061 0.075 0.242-0.081c0.249-0.084 0.308-0.125 0.436-0.305l0.074-0.104-0.066-0.262c-0.098-0.389-0.097-1.587 0.002-2.072 0.081-0.398 0.018-0.511-0.212-0.381zM21.397 22.365c-0.183 0.259-0.167 0.248-0.343 0.227-0.342-0.041-0.466-0.002-0.694 0.216-0.242 0.232-0.446 0.457-0.446 0.491 0 0.013-0.024 0.133-0.052 0.265-0.064 0.291-0.060 0.544 0.010 0.736 0.084 0.231 0.088 0.232 0.544 0.247 0.73 0.023 0.83 0.14 0.418 0.489-0.223 0.188-0.303 0.198-0.576 0.072-0.251-0.116-0.241-0.118-0.428 0.081l-0.173 0.184 0 0.288c0.001 0.361 0.009 0.374 0.226 0.362 0.157-0.009 0.177-0.019 0.217-0.106 0.089-0.193 0.163-0.244 0.315-0.221 0.205 0.031 0.414-0.011 0.512-0.102 0.047-0.044 0.146-0.106 0.22-0.139s0.144-0.088 0.155-0.122 0.077-0.108 0.147-0.165c0.070-0.056 0.127-0.129 0.127-0.161s0.050-0.158 0.111-0.279c0.154-0.304 0.159-0.557 0.014-0.757-0.139-0.191-0.157-0.198-0.624-0.216-0.556-0.022-0.662-0.083-0.593-0.342 0.074-0.275 0.331-0.415 0.588-0.32 0.341 0.126 0.366 0.126 0.536-0.004l0.155-0.118 0.002-0.313c0.002-0.307 0-0.314-0.080-0.344-0.138-0.053-0.231-0.037-0.293 0.050z"></path>
<path fill="#000" style="fill: var(--color6, #000)" d="M16.841 2.84c-0.068 0.027-0.095 0.077-0.096 0.178l-0 0.088h-0.242c-0.236 0-0.526 0.106-0.526 0.193 0 0.070-0.111 0.127-0.25 0.129-0.237 0.003-0.369 0.061-0.403 0.178-0.028 0.096-0.037 0.1-0.246 0.118-0.266 0.022-0.337 0.058-0.364 0.182-0.019 0.086-0.034 0.096-0.14 0.096-0.147 0-0.196 0.046-0.196 0.183v0.106l-0.216 0c-0.324 0.001-0.354 0.015-0.378 0.178l-0.021 0.139-0.553 0.018-0.010 0.136-0.010 0.136h-0.284c-0.267 0-0.286 0.004-0.307 0.072-0.049 0.154-0.145 0.215-0.342 0.215-0.101 0-0.21 0.014-0.24 0.030s-0.081 0.038-0.113 0.047c-0.031 0.010-0.082 0.061-0.112 0.114-0.043 0.076-0.077 0.096-0.157 0.097-0.313 0.001-0.49 0.092-0.49 0.254 0 0.060-0.019 0.066-0.2 0.067-0.247 0.001-0.349 0.049-0.388 0.184-0.028 0.097-0.039 0.104-0.177 0.105-0.236 0.003-0.365 0.061-0.399 0.181-0.027 0.094-0.041 0.103-0.177 0.112l-0.148 0.010-0.019 0.266-0.272 0.011c-0.299 0.012-0.332 0.033-0.333 0.21l-0.001 0.103-0.56 0.019-0.010 0.135-0.010 0.135-0.557 0.019-0.030 0.136-0.030 0.136h-0.22c-0.277 0-0.344 0.033-0.344 0.172v0.106l-0.56 0.058-0.057 0.272h-0.245c-0.276 0-0.322 0.026-0.322 0.183v0.106l-0.248 0.001c-0.292 0.001-0.316 0.011-0.344 0.163l-0.022 0.116-0.245 0.021c-0.261 0.022-0.325 0.062-0.325 0.201 0 0.061-0.022 0.075-0.144 0.094-0.135 0.020-0.144 0.028-0.145 0.122-0.001 0.142-0.031 0.174-0.176 0.186-0.125 0.010-0.128 0.013-0.137 0.146-0.009 0.13-0.014 0.136-0.114 0.136-0.157 0-0.181 0.045-0.181 0.343v0.266h-0.125c-0.161 0-0.163 0.008-0.163 0.552v0.45l-0.272 0.251v1.233c0 1.357-0.005 1.324 0.198 1.324h0.074l0.002 0.584c0.002 0.667 0.027 0.784 0.179 0.856l0.101 0.048 0.011 1.137c0.012 1.237 0.036 1.399 0.216 1.456 0.067 0.021 0.067 0.026 0.068 1.516 0.001 1.865 0.023 2.063 0.234 2.093 0.058 0.008 0.069 0.031 0.070 0.154 0.004 0.418 0.013 0.48 0.073 0.48 0.072 0 0.23 0.161 0.23 0.234 0 0.043 0.030 0.054 0.142 0.054h0.142l0.010 0.136c0.010 0.135 0.011 0.136 0.162 0.163 0.125 0.023 0.152 0.040 0.153 0.096 0.001 0.143 0.139 0.207 0.453 0.211 0.103 0.001 0.12 0.013 0.138 0.095 0.030 0.139 0.090 0.171 0.354 0.187 0.201 0.013 0.239 0.024 0.239 0.072 0 0.137 0.104 0.2 0.362 0.216 0.243 0.016 0.246 0.017 0.246 0.104 0 0.125 0.063 0.163 0.336 0.202 0.231 0.033 0.24 0.038 0.24 0.12 0 0.123 0.051 0.151 0.326 0.176l0.244 0.022 0.021 0.109c0.025 0.135 0.105 0.171 0.387 0.171h0.206v0.111c0 0.145 0.064 0.177 0.346 0.177h0.222l0.020 0.125c0.023 0.146 0.039 0.154 0.355 0.183 0.236 0.021 0.241 0.024 0.241 0.11 0 0.126 0.056 0.157 0.331 0.18 0.23 0.019 0.245 0.025 0.245 0.096 0 0.143 0.104 0.203 0.35 0.203h0.222l0.043 0.288h0.565l0.010 0.135c0.011 0.157 0.051 0.177 0.367 0.182 0.208 0.003 0.236 0.024 0.236 0.178 0 0.096 0.051 0.113 0.337 0.113h0.236l0.010 0.136 0.010 0.136 0.557 0.018 0.021 0.143 0.021 0.143h0.569v0.127c0 0.163 0.055 0.193 0.348 0.193h0.224l0.027 0.136 0.027 0.136 0.555 0.018 0.020 0.27 0.576 0.032 0.016 0.128 0.016 0.128 0.281 0.016c0.281 0.016 0.341 0.043 0.342 0.154 0.002 0.168 1.341 0.24 1.401 0.075 0.051-0.14 0.169-0.21 0.378-0.223 0.167-0.011 0.208-0.024 0.224-0.074 0.045-0.14 0.169-0.219 0.346-0.219 0.194 0 0.245-0.037 0.245-0.178v-0.102l0.239-0.015c0.267-0.017 0.337-0.056 0.337-0.185 0-0.087 0.001-0.088 0.276-0.105 0.301-0.019 0.331-0.037 0.332-0.208l0-0.104h0.569l0.021-0.143 0.021-0.143 0.557-0.018 0.010-0.136 0.010-0.136 0.246-0c0.29-0.001 0.31-0.010 0.339-0.168l0.022-0.12 0.199-0.003c0.318-0.005 0.357-0.025 0.369-0.182l0.010-0.135h0.569l0.022-0.144 0.022-0.144 0.197-0c0.296-0.001 0.338-0.019 0.36-0.159l0.019-0.12 0.251-0.017c0.301-0.021 0.319-0.030 0.319-0.166v-0.106l0.273-0.023c0.293-0.024 0.336-0.053 0.336-0.223 0-0.080 0.005-0.082 0.226-0.082 0.285 0 0.35-0.033 0.35-0.174v-0.108l0.259-0.012c0.277-0.013 0.349-0.055 0.349-0.205 0-0.063 0.022-0.071 0.245-0.090 0.275-0.023 0.331-0.054 0.331-0.181 0-0.088 0.002-0.088 0.273-0.111 0.293-0.024 0.336-0.053 0.336-0.223 0-0.080 0.005-0.082 0.226-0.082 0.286 0 0.35-0.032 0.35-0.177v-0.111h0.254c0.286 0 0.355-0.038 0.355-0.194 0-0.090 0.006-0.094 0.152-0.096 0.323-0.004 0.407-0.035 0.424-0.158 0.017-0.12 0.101-0.154 0.39-0.158 0.131-0.002 0.218-0.089 0.218-0.217 0-0.065 0.015-0.073 0.144-0.073h0.144v-0.285l0.304-0.020 0.010-0.136c0.009-0.121 0.019-0.136 0.090-0.136 0.178 0 0.204-0.043 0.204-0.335v-0.269l0.272-0.020 0.018-1.005 0.293-0.251 0.003-1.234c0.003-1.288-0.002-1.34-0.133-1.33-0.172 0.013-0.165 0.036-0.165-0.56 0-0.607-0.007-0.631-0.183-0.631h-0.106l-0-0.36c-0.001-0.47-0.008-0.495-0.161-0.521l-0.123-0.021-0.009-2.711c-0.010-2.95-0.002-2.83-0.194-2.88-0.099-0.026-0.103-0.034-0.105-0.185-0.002-0.294-0.015-0.43-0.039-0.426-0.013 0.002-0.078 0.002-0.144 0l-0.12-0.004v-0.142c0-0.119-0.012-0.146-0.072-0.164-0.094-0.029-0.205-0.141-0.221-0.222-0.009-0.050-0.042-0.066-0.148-0.074-0.124-0.009-0.136-0.017-0.136-0.098 0-0.129-0.064-0.192-0.206-0.203-0.112-0.009-0.129-0.021-0.152-0.11-0.030-0.118-0.070-0.137-0.338-0.162-0.186-0.017-0.201-0.024-0.201-0.096 0-0.165-0.044-0.194-0.336-0.218-0.271-0.023-0.273-0.023-0.273-0.111 0-0.129-0.058-0.159-0.348-0.182-0.218-0.017-0.26-0.029-0.26-0.076 0-0.137-0.101-0.195-0.374-0.214-0.234-0.016-0.264-0.025-0.295-0.094-0.019-0.042-0.071-0.093-0.115-0.113s-0.080-0.049-0.080-0.064c0-0.015-0.094-0.027-0.21-0.027-0.213 0-0.362-0.089-0.366-0.217-0.001-0.057-0.139-0.103-0.306-0.103-0.149 0-0.287-0.096-0.309-0.215-0.009-0.046-0.049-0.059-0.217-0.067-0.22-0.010-0.321-0.071-0.368-0.222-0.020-0.065-0.043-0.072-0.223-0.072-0.212 0-0.372-0.101-0.372-0.234 0-0.047-0.038-0.054-0.284-0.054h-0.284l-0.018-0.131c-0.023-0.174-0.020-0.172-0.33-0.185l-0.27-0.011v-0.121c0-0.148-0.026-0.16-0.333-0.16h-0.231l-0.030-0.136-0.030-0.136-0.557-0.018-0.020-0.27-0.557-0.019-0.021-0.14c-0.025-0.164-0.052-0.177-0.375-0.177l-0.216-0v-0.125c0-0.143-0.031-0.164-0.243-0.164-0.101 0-0.141-0.013-0.141-0.045 0-0.1-0.24-0.243-0.408-0.243-0.138 0-0.163-0.010-0.195-0.080-0.020-0.044-0.073-0.097-0.117-0.117s-0.080-0.049-0.080-0.064-0.073-0.027-0.162-0.027c-0.152 0-0.164-0.006-0.196-0.099-0.050-0.145-0.249-0.221-0.573-0.221h-0.253l-0-0.088c-0.001-0.182-0.006-0.184-0.695-0.191-0.349-0.003-0.655 0.002-0.682 0.013zM29.886 9.866c0.12 0.055 0.114 0.267-0.014 0.491-0.096 0.169-0.186 0.226-0.455 0.29-0.048 0.011-0.126 0.057-0.174 0.101s-0.182 0.115-0.297 0.156c-0.116 0.042-0.241 0.11-0.277 0.152s-0.123 0.095-0.192 0.117c-0.182 0.059-0.342 0.146-0.402 0.218-0.029 0.035-0.134 0.087-0.232 0.116s-0.226 0.093-0.283 0.143c-0.057 0.050-0.201 0.123-0.32 0.162s-0.257 0.107-0.307 0.152c-0.050 0.044-0.188 0.113-0.305 0.152s-0.253 0.108-0.301 0.151c-0.048 0.044-0.171 0.105-0.273 0.135s-0.232 0.096-0.288 0.146-0.186 0.114-0.287 0.143c-0.101 0.029-0.231 0.094-0.288 0.144s-0.2 0.122-0.318 0.161c-0.117 0.039-0.249 0.105-0.291 0.148s-0.174 0.108-0.291 0.144c-0.117 0.036-0.26 0.107-0.317 0.156s-0.186 0.114-0.287 0.144c-0.101 0.029-0.231 0.094-0.288 0.144s-0.187 0.115-0.288 0.144-0.233 0.096-0.292 0.148c-0.060 0.052-0.202 0.124-0.316 0.159s-0.244 0.1-0.287 0.144-0.176 0.109-0.293 0.146c-0.117 0.036-0.26 0.107-0.317 0.156s-0.186 0.114-0.287 0.143c-0.101 0.029-0.231 0.094-0.288 0.144s-0.187 0.115-0.288 0.144-0.233 0.096-0.292 0.148c-0.059 0.052-0.202 0.124-0.316 0.159s-0.243 0.1-0.287 0.144c-0.044 0.044-0.17 0.108-0.281 0.142s-0.24 0.1-0.288 0.146c-0.048 0.046-0.186 0.119-0.307 0.163s-0.257 0.115-0.302 0.158c-0.045 0.043-0.173 0.106-0.285 0.141s-0.239 0.097-0.282 0.138c-0.043 0.041-0.166 0.11-0.274 0.154-0.233 0.096-0.317 0.197-0.337 0.408-0.038 0.398 0.342 0.429 0.888 0.072 0.026-0.017 0.131-0.061 0.233-0.098s0.224-0.099 0.272-0.139c0.048-0.040 0.16-0.099 0.248-0.132s0.211-0.099 0.272-0.147 0.211-0.123 0.331-0.167c0.12-0.043 0.251-0.109 0.29-0.146s0.16-0.097 0.268-0.134c0.108-0.036 0.25-0.109 0.315-0.161s0.194-0.116 0.287-0.143c0.092-0.027 0.229-0.093 0.303-0.146s0.212-0.124 0.307-0.157c0.095-0.033 0.219-0.095 0.276-0.139s0.203-0.115 0.323-0.159c0.12-0.044 0.251-0.11 0.29-0.147s0.16-0.097 0.268-0.133c0.108-0.037 0.25-0.109 0.315-0.161s0.194-0.116 0.287-0.143c0.093-0.027 0.229-0.093 0.303-0.147s0.212-0.124 0.307-0.157c0.095-0.033 0.221-0.096 0.28-0.142s0.196-0.112 0.303-0.148c0.107-0.036 0.248-0.108 0.313-0.16s0.194-0.116 0.287-0.143c0.093-0.027 0.221-0.090 0.284-0.141s0.204-0.122 0.312-0.158 0.229-0.097 0.268-0.134c0.039-0.037 0.166-0.101 0.281-0.143s0.269-0.119 0.342-0.172c0.072-0.053 0.207-0.117 0.3-0.144s0.223-0.093 0.291-0.146c0.067-0.053 0.198-0.119 0.291-0.146s0.221-0.091 0.285-0.142c0.064-0.051 0.191-0.116 0.283-0.146s0.225-0.094 0.297-0.144c0.072-0.050 0.207-0.12 0.301-0.156s0.208-0.1 0.254-0.142c0.046-0.043 0.161-0.102 0.255-0.133s0.225-0.102 0.288-0.158c0.286-0.252 0.57-0.223 0.537 0.054-0.023 0.198-0.032 0.209-0.209 0.285-0.082 0.035-0.192 0.096-0.245 0.136s-0.199 0.111-0.325 0.159c-0.126 0.048-0.252 0.113-0.282 0.146s-0.141 0.091-0.249 0.13-0.229 0.105-0.27 0.146c-0.041 0.041-0.169 0.106-0.285 0.146s-0.263 0.112-0.326 0.163c-0.063 0.050-0.191 0.114-0.284 0.141s-0.221 0.090-0.284 0.141c-0.064 0.051-0.204 0.122-0.313 0.159s-0.234 0.101-0.279 0.143c-0.045 0.042-0.182 0.109-0.304 0.149s-0.256 0.106-0.297 0.147c-0.041 0.041-0.177 0.11-0.302 0.154s-0.261 0.11-0.301 0.148c-0.040 0.038-0.172 0.104-0.292 0.148s-0.25 0.108-0.288 0.144c-0.038 0.036-0.168 0.1-0.288 0.144s-0.255 0.112-0.299 0.153c-0.044 0.041-0.18 0.107-0.302 0.147s-0.255 0.106-0.296 0.146c-0.041 0.041-0.178 0.111-0.306 0.158s-0.268 0.117-0.312 0.157c-0.044 0.041-0.173 0.105-0.286 0.142s-0.243 0.102-0.288 0.144c-0.045 0.042-0.175 0.107-0.288 0.144s-0.243 0.102-0.288 0.144c-0.045 0.042-0.182 0.109-0.304 0.149s-0.255 0.106-0.296 0.146c-0.041 0.041-0.178 0.112-0.306 0.157s-0.268 0.117-0.312 0.157c-0.044 0.041-0.173 0.105-0.286 0.142s-0.243 0.102-0.288 0.144c-0.045 0.042-0.175 0.107-0.288 0.144s-0.243 0.103-0.288 0.145c-0.045 0.042-0.173 0.109-0.284 0.149s-0.252 0.112-0.313 0.161-0.2 0.119-0.309 0.155c-0.108 0.037-0.234 0.101-0.279 0.143s-0.178 0.107-0.295 0.146c-0.324 0.106-0.522 0.352-0.497 0.62 0.026 0.283 0.097 0.334 0.311 0.22 0.061-0.033 0.209-0.092 0.329-0.131s0.258-0.106 0.307-0.148 0.187-0.111 0.306-0.154c0.119-0.043 0.248-0.108 0.287-0.145s0.164-0.104 0.277-0.15c0.113-0.046 0.243-0.117 0.287-0.159s0.179-0.107 0.3-0.144c0.121-0.037 0.256-0.104 0.299-0.148s0.173-0.109 0.288-0.144c0.115-0.035 0.245-0.101 0.29-0.146s0.183-0.116 0.307-0.158c0.124-0.042 0.262-0.111 0.307-0.152s0.177-0.107 0.293-0.145 0.244-0.104 0.284-0.146c0.041-0.044 0.169-0.106 0.296-0.145 0.126-0.038 0.259-0.103 0.304-0.148 0.044-0.044 0.174-0.109 0.289-0.145s0.245-0.101 0.29-0.146c0.045-0.045 0.183-0.116 0.307-0.158s0.262-0.111 0.307-0.152c0.045-0.042 0.177-0.107 0.293-0.145s0.244-0.104 0.284-0.146c0.041-0.044 0.169-0.106 0.296-0.145 0.126-0.038 0.259-0.103 0.304-0.148s0.183-0.115 0.309-0.157 0.253-0.107 0.283-0.143c0.030-0.036 0.159-0.102 0.287-0.145s0.269-0.113 0.314-0.155c0.045-0.042 0.177-0.107 0.293-0.145s0.244-0.104 0.284-0.146c0.041-0.044 0.169-0.106 0.296-0.145s0.259-0.103 0.306-0.15c0.045-0.045 0.189-0.118 0.319-0.162s0.254-0.107 0.274-0.14c0.021-0.034 0.145-0.096 0.282-0.142 0.135-0.045 0.277-0.116 0.317-0.159s0.164-0.108 0.274-0.145c0.111-0.037 0.236-0.102 0.279-0.145s0.183-0.113 0.313-0.157c0.135-0.046 0.268-0.115 0.312-0.162 0.066-0.072 0.156-0.086 0.221-0.035s0.038 0.339-0.037 0.391c-0.047 0.033-0.134 0.1-0.192 0.148s-0.199 0.117-0.313 0.152c-0.114 0.035-0.248 0.102-0.298 0.148s-0.171 0.111-0.269 0.145-0.229 0.102-0.291 0.151c-0.062 0.050-0.191 0.116-0.288 0.147s-0.23 0.099-0.295 0.15c-0.065 0.051-0.204 0.12-0.308 0.152s-0.245 0.103-0.313 0.158c-0.068 0.054-0.167 0.108-0.22 0.121-0.116 0.027-0.4 0.175-0.4 0.209 0 0.013-0.097 0.056-0.216 0.095s-0.267 0.11-0.328 0.158c-0.062 0.048-0.17 0.106-0.24 0.129-0.176 0.057-0.348 0.146-0.398 0.207-0.023 0.028-0.123 0.074-0.222 0.102s-0.245 0.099-0.325 0.157c-0.080 0.058-0.188 0.116-0.24 0.129-0.126 0.030-0.301 0.12-0.395 0.202-0.042 0.036-0.15 0.088-0.242 0.114s-0.216 0.085-0.277 0.129c-0.127 0.092-0.181 0.119-0.388 0.192-0.082 0.029-0.202 0.094-0.266 0.145s-0.162 0.102-0.218 0.114c-0.131 0.028-0.319 0.123-0.373 0.188-0.023 0.028-0.11 0.071-0.194 0.096-0.183 0.054-0.311 0.118-0.412 0.207-0.042 0.036-0.15 0.088-0.242 0.114s-0.216 0.085-0.277 0.129c-0.127 0.092-0.181 0.119-0.388 0.192-0.082 0.029-0.202 0.094-0.266 0.145s-0.162 0.102-0.218 0.114c-0.131 0.028-0.319 0.123-0.372 0.188-0.023 0.028-0.113 0.071-0.199 0.097-0.172 0.051-0.411 0.175-0.411 0.213 0 0.013-0.082 0.054-0.182 0.092s-0.228 0.109-0.285 0.159c-0.057 0.050-0.188 0.122-0.291 0.161s-0.223 0.103-0.267 0.143c-0.044 0.041-0.176 0.105-0.292 0.143s-0.239 0.099-0.272 0.136c-0.033 0.036-0.129 0.101-0.213 0.144-0.279 0.142-0.377 0.402-0.229 0.613 0.092 0.132 0.623 0.059 0.623-0.085 0-0.016 0.101-0.060 0.224-0.097s0.271-0.109 0.328-0.159c0.057-0.050 0.187-0.115 0.288-0.144 0.121-0.035 0.222-0.091 0.295-0.164 0.061-0.061 0.13-0.111 0.152-0.111 0.11-0 0.294-0.077 0.392-0.163 0.060-0.052 0.178-0.118 0.263-0.146s0.218-0.099 0.294-0.158c0.077-0.059 0.215-0.129 0.307-0.155s0.221-0.091 0.286-0.143c0.065-0.052 0.205-0.123 0.311-0.159s0.234-0.1 0.286-0.144c0.051-0.043 0.185-0.109 0.298-0.147s0.233-0.095 0.268-0.128c0.084-0.078 0.226-0.15 0.351-0.177 0.056-0.012 0.171-0.071 0.256-0.132s0.228-0.131 0.318-0.158c0.090-0.026 0.216-0.090 0.281-0.141s0.205-0.123 0.311-0.159c0.106-0.036 0.234-0.1 0.286-0.144s0.184-0.109 0.295-0.146c0.111-0.037 0.251-0.11 0.311-0.161s0.179-0.111 0.264-0.131 0.214-0.081 0.289-0.135c0.075-0.054 0.23-0.133 0.344-0.174s0.244-0.109 0.289-0.151c0.044-0.041 0.16-0.101 0.257-0.132s0.234-0.097 0.304-0.147 0.215-0.12 0.32-0.156c0.106-0.036 0.242-0.106 0.304-0.155s0.191-0.115 0.288-0.146 0.232-0.098 0.301-0.149c0.069-0.051 0.199-0.116 0.288-0.144s0.213-0.092 0.275-0.14c0.062-0.048 0.191-0.113 0.288-0.144s0.24-0.106 0.318-0.165c0.078-0.060 0.2-0.124 0.271-0.143s0.188-0.077 0.259-0.128c0.334-0.24 0.861-0.333 0.887-0.157 0.008 0.053 0.003 0.096-0.011 0.096s-0.094 0.070-0.178 0.155c-0.118 0.119-0.204 0.172-0.367 0.226-0.117 0.039-0.247 0.103-0.288 0.142s-0.177 0.111-0.302 0.159c-0.125 0.048-0.255 0.12-0.29 0.16s-0.153 0.099-0.262 0.133c-0.11 0.033-0.238 0.096-0.284 0.139s-0.186 0.113-0.31 0.155-0.262 0.112-0.308 0.156-0.176 0.11-0.29 0.148c-0.113 0.038-0.243 0.102-0.288 0.144s-0.175 0.107-0.288 0.145c-0.113 0.038-0.25 0.107-0.303 0.153s-0.187 0.111-0.297 0.145c-0.11 0.033-0.239 0.096-0.285 0.139s-0.186 0.113-0.31 0.155c-0.124 0.042-0.262 0.112-0.308 0.156s-0.176 0.11-0.29 0.148c-0.113 0.038-0.243 0.102-0.288 0.144s-0.175 0.107-0.288 0.144-0.243 0.102-0.288 0.144-0.175 0.106-0.288 0.144-0.259 0.109-0.323 0.158c-0.064 0.050-0.208 0.121-0.32 0.159s-0.241 0.103-0.286 0.146c-0.045 0.043-0.175 0.108-0.288 0.146s-0.243 0.102-0.288 0.143c-0.045 0.041-0.167 0.105-0.272 0.141-0.107 0.037-0.24 0.113-0.303 0.174-0.062 0.059-0.163 0.118-0.225 0.131-0.145 0.030-0.257 0.088-0.333 0.172-0.034 0.037-0.16 0.097-0.28 0.133-0.138 0.041-0.255 0.101-0.316 0.16-0.053 0.052-0.136 0.102-0.184 0.113-0.179 0.038-0.361 0.117-0.401 0.175-0.047 0.067-0.137 0.11-0.332 0.159-0.074 0.019-0.193 0.083-0.265 0.143s-0.207 0.131-0.3 0.158c-0.093 0.027-0.203 0.086-0.246 0.131-0.045 0.048-0.163 0.107-0.287 0.144-0.116 0.035-0.261 0.104-0.322 0.154s-0.177 0.116-0.256 0.146c-0.333 0.127-0.488 0.456-0.318 0.673 0.099 0.126 0.569 0.043 0.774-0.136 0.057-0.050 0.187-0.115 0.288-0.144s0.231-0.094 0.288-0.144c0.057-0.050 0.181-0.116 0.275-0.147s0.217-0.097 0.273-0.146c0.056-0.049 0.197-0.12 0.313-0.158s0.244-0.104 0.285-0.147c0.043-0.046 0.164-0.106 0.286-0.142 0.125-0.037 0.244-0.097 0.289-0.145s0.165-0.108 0.291-0.146c0.121-0.037 0.26-0.106 0.32-0.16s0.196-0.121 0.318-0.158c0.124-0.037 0.243-0.097 0.288-0.144s0.164-0.107 0.288-0.144c0.123-0.036 0.244-0.097 0.287-0.143 0.041-0.044 0.148-0.103 0.238-0.132s0.207-0.093 0.26-0.143c0.053-0.050 0.195-0.126 0.315-0.169s0.25-0.108 0.288-0.144 0.168-0.101 0.288-0.144 0.25-0.108 0.288-0.144c0.038-0.036 0.183-0.109 0.322-0.162s0.279-0.125 0.311-0.159c0.032-0.034 0.152-0.093 0.268-0.132s0.251-0.104 0.301-0.146 0.187-0.111 0.306-0.154c0.119-0.043 0.247-0.107 0.285-0.143s0.168-0.101 0.288-0.144c0.12-0.044 0.25-0.108 0.288-0.144s0.183-0.109 0.322-0.162c0.139-0.053 0.279-0.125 0.311-0.159s0.152-0.093 0.268-0.132c0.116-0.039 0.253-0.106 0.304-0.149s0.18-0.108 0.286-0.144 0.242-0.104 0.302-0.152c0.060-0.048 0.192-0.115 0.293-0.15s0.22-0.096 0.264-0.137c0.044-0.041 0.19-0.117 0.324-0.168s0.265-0.121 0.292-0.154c0.065-0.080 0.328-0.164 0.517-0.164 0.183 0 0.225 0.054 0.232 0.299l0.004 0.161-0.197 0.068c-0.108 0.038-0.241 0.106-0.296 0.152s-0.176 0.106-0.27 0.133c-0.094 0.027-0.225 0.092-0.291 0.145s-0.194 0.119-0.285 0.149-0.219 0.096-0.284 0.147c-0.065 0.051-0.201 0.121-0.303 0.156s-0.214 0.090-0.25 0.123c-0.085 0.078-0.232 0.15-0.359 0.177-0.056 0.012-0.171 0.072-0.256 0.133s-0.224 0.131-0.308 0.157c-0.084 0.025-0.214 0.089-0.288 0.143s-0.221 0.126-0.326 0.162c-0.105 0.036-0.22 0.092-0.256 0.125-0.088 0.080-0.184 0.128-0.368 0.182-0.085 0.025-0.173 0.068-0.195 0.096-0.054 0.065-0.242 0.16-0.372 0.188-0.056 0.012-0.164 0.067-0.24 0.122s-0.209 0.127-0.296 0.16c-0.087 0.033-0.206 0.102-0.263 0.152s-0.185 0.117-0.283 0.148-0.223 0.096-0.278 0.145c-0.055 0.049-0.192 0.119-0.304 0.157s-0.245 0.102-0.295 0.144-0.187 0.111-0.306 0.154c-0.119 0.043-0.248 0.108-0.287 0.145s-0.164 0.098-0.277 0.136-0.25 0.107-0.303 0.153c-0.053 0.046-0.187 0.111-0.296 0.144s-0.244 0.101-0.3 0.15-0.193 0.121-0.305 0.158c-0.113 0.038-0.247 0.104-0.298 0.147s-0.184 0.109-0.295 0.145-0.238 0.101-0.283 0.142c-0.045 0.042-0.175 0.107-0.288 0.144s-0.243 0.102-0.287 0.143c-0.044 0.041-0.181 0.111-0.304 0.155s-0.252 0.115-0.287 0.157c-0.037 0.044-0.158 0.107-0.286 0.149-0.122 0.040-0.253 0.107-0.291 0.148s-0.166 0.105-0.283 0.141c-0.117 0.036-0.26 0.106-0.317 0.155-0.332 0.286-0.708 0.124-0.808-0.348-0.013-0.062-0.071-0.191-0.129-0.288-0.089-0.149-0.111-0.228-0.144-0.512-0.021-0.185-0.073-0.545-0.115-0.8-0.087-0.53-0.096-0.976-0.028-1.361 0.025-0.141 0.075-0.47 0.111-0.732 0.080-0.59 0.088-0.62 0.186-0.75 0.044-0.058 0.106-0.201 0.139-0.319 0.033-0.12 0.094-0.249 0.138-0.295 0.406-0.42 0.493-0.486 0.752-0.573 0.113-0.038 0.243-0.103 0.288-0.145s0.177-0.107 0.293-0.145 0.244-0.103 0.283-0.145c0.039-0.042 0.146-0.1 0.237-0.13 0.182-0.059 0.373-0.166 0.373-0.208 0-0.015 0.104-0.060 0.23-0.1s0.276-0.113 0.332-0.162c0.056-0.049 0.195-0.118 0.308-0.153s0.239-0.099 0.28-0.142c0.042-0.045 0.166-0.107 0.288-0.144 0.124-0.038 0.246-0.099 0.289-0.145s0.17-0.11 0.295-0.15c0.121-0.038 0.258-0.105 0.305-0.149s0.187-0.114 0.311-0.156c0.124-0.042 0.262-0.112 0.307-0.155s0.176-0.107 0.291-0.143c0.116-0.036 0.243-0.1 0.283-0.143 0.042-0.045 0.166-0.107 0.288-0.144 0.124-0.037 0.246-0.099 0.289-0.145s0.17-0.11 0.295-0.15c0.121-0.038 0.258-0.105 0.305-0.149s0.187-0.114 0.311-0.156c0.124-0.042 0.262-0.112 0.306-0.155s0.173-0.107 0.286-0.142c0.112-0.035 0.242-0.099 0.288-0.143s0.178-0.111 0.292-0.149c0.114-0.038 0.244-0.103 0.288-0.145s0.181-0.112 0.304-0.156c0.139-0.050 0.246-0.112 0.283-0.162s0.123-0.1 0.233-0.132c0.096-0.028 0.213-0.084 0.262-0.124 0.11-0.092 0.277-0.178 0.344-0.178 0.072 0 0.243-0.092 0.327-0.175 0.039-0.039 0.157-0.094 0.263-0.123s0.239-0.095 0.297-0.145 0.18-0.116 0.272-0.146c0.091-0.030 0.22-0.097 0.285-0.149s0.196-0.117 0.291-0.145c0.094-0.027 0.211-0.083 0.259-0.123 0.192-0.16 0.29-0.194 0.406-0.141zM5.732 12.065c0.096 0.050 0.25 0.116 0.341 0.146s0.219 0.097 0.285 0.149c0.065 0.052 0.174 0.111 0.243 0.131 0.154 0.046 0.546 0.42 0.7 0.667 0.016 0.026 0.030 0.178 0.030 0.338l0 0.29-0.128 0.133c-0.143 0.148-0.14 0.225 0.013 0.392 0.146 0.158 0.21 0.856 0.093 1.022-0.101 0.145-0.651 0.067-0.908-0.129-0.062-0.047-0.184-0.108-0.272-0.137s-0.23-0.101-0.315-0.162-0.196-0.119-0.246-0.13c-0.234-0.051-0.251-0.372-0.032-0.592 0.072-0.072 0.088-0.212 0.114-1l0.020-0.599-0.086-0.185c-0.205-0.441-0.179-0.503 0.145-0.335zM6.279 12.799c-0.204 0.17-0.103 0.808 0.128 0.808 0.124 0 0.285-0.092 0.319-0.182 0.077-0.203 0.072-0.247-0.049-0.395-0.257-0.316-0.28-0.329-0.398-0.23zM8.741 13.526c0.096 0.055 0.165 0.088 0.34 0.16 0.145 0.060 0.551 0.454 0.628 0.609 0.026 0.053 0.103 0.21 0.171 0.35l0.124 0.254 0.013 0.502c0.019 0.738-0.021 0.935-0.224 1.12-0.173 0.157-0.444 0.253-0.506 0.178-0.017-0.021-0.143-0.072-0.28-0.114-0.202-0.062-0.274-0.103-0.379-0.214-0.072-0.076-0.147-0.137-0.167-0.137s-0.066-0.056-0.101-0.125c-0.035-0.069-0.1-0.153-0.144-0.188-0.059-0.047-0.102-0.142-0.163-0.363-0.046-0.165-0.112-0.384-0.147-0.487-0.1-0.288-0.086-0.643 0.036-0.96 0.053-0.138 0.097-0.266 0.097-0.286 0-0.047 0.129-0.184 0.174-0.184 0.019-0 0.078-0.036 0.131-0.079 0.11-0.091 0.278-0.105 0.4-0.034zM6.242 13.954c-0.156 0.126-0.136 0.711 0.028 0.84 0.105 0.083 0.366 0.059 0.478-0.043 0.131-0.121 0.104-0.398-0.058-0.589-0.241-0.284-0.312-0.317-0.447-0.207zM8.817 14.174c-0.394 0.050-0.421 1.488-0.033 1.784 0.21 0.16 0.502 0.087 0.502-0.125 0-0.029 0.029-0.117 0.065-0.195 0.212-0.466-0.045-1.506-0.366-1.481-0.037 0.003-0.113 0.011-0.168 0.018zM11.574 14.945c0.053 0.027 0.143 0.089 0.201 0.139s0.14 0.1 0.184 0.111c0.048 0.012 0.1 0.063 0.131 0.129 0.028 0.060 0.092 0.133 0.142 0.162 0.066 0.039 0.113 0.115 0.175 0.287 0.047 0.129 0.112 0.268 0.145 0.31 0.188 0.238 0.177 1.424-0.015 1.66-0.047 0.058-0.119 0.148-0.161 0.2-0.133 0.169-0.741 0.125-0.919-0.067-0.042-0.045-0.143-0.116-0.224-0.157-0.095-0.048-0.161-0.109-0.187-0.17-0.022-0.052-0.083-0.134-0.136-0.181-0.102-0.091-0.216-0.309-0.219-0.416-0.001-0.035-0.044-0.15-0.097-0.256-0.204-0.411-0.207-1.001-0.006-1.359 0.065-0.115 0.14-0.253 0.166-0.305 0.085-0.167 0.558-0.218 0.817-0.088zM11.323 15.559c-0.116 0.138-0.134 0.259-0.131 0.897 0.003 0.668 0.016 0.705 0.31 0.897l0.2 0.13 0.087-0.097c0.333-0.37 0.246-1.718-0.119-1.858-0.199-0.076-0.261-0.071-0.347 0.031zM13.654 16.086c0.084 0.025 0.174 0.076 0.2 0.113s0.104 0.103 0.173 0.146c0.154 0.097 0.154 0.112 0.010 0.322-0.227 0.329-0.12 0.951 0.124 0.725 0.039-0.036 0.123-0.087 0.186-0.113 0.192-0.079 0.251-0.182 0.213-0.374-0.035-0.175-0.001-0.258 0.104-0.258 0.097 0 0.328 0.094 0.369 0.15 0.022 0.030 0.102 0.084 0.18 0.121 0.262 0.126 0.192 0.41-0.128 0.513-0.351 0.114-0.415 0.492-0.147 0.881 0.048 0.070 0.097 0.215 0.128 0.384 0.028 0.149 0.077 0.308 0.109 0.352 0.082 0.114 0.195 0.341 0.195 0.391 0 0.023 0.028 0.097 0.061 0.163l0.061 0.121-0.080 0.030c-0.138 0.052-0.222 0.034-0.367-0.082-0.077-0.061-0.151-0.112-0.163-0.112-0.073-0.001-0.377-0.139-0.377-0.172 0-0.021-0.035-0.089-0.077-0.15l-0.077-0.111 0.080-0.084c0.204-0.216 0.052-0.801-0.26-1.006-0.229-0.15-0.407 0.322-0.257 0.682 0.047 0.113 0.046 0.12-0.030 0.196l-0.079 0.079-0.223-0.070c-0.391-0.124-0.548-0.352-0.411-0.6 0.202-0.363 0.185-0.264 0.192-1.164 0.006-0.807 0.004-0.829-0.065-0.923-0.123-0.167 0.056-0.243 0.357-0.152zM5.646 16.512c0.059 0.051 0.192 0.117 0.298 0.147 0.109 0.031 0.224 0.088 0.266 0.133 0.041 0.043 0.169 0.11 0.286 0.148s0.249 0.104 0.295 0.147c0.046 0.043 0.185 0.112 0.308 0.154s0.261 0.112 0.305 0.156c0.045 0.045 0.176 0.108 0.302 0.146 0.134 0.040 0.253 0.099 0.299 0.148 0.045 0.048 0.165 0.108 0.29 0.146 0.122 0.037 0.246 0.099 0.288 0.144s0.166 0.107 0.29 0.145c0.124 0.038 0.255 0.103 0.308 0.154 0.052 0.050 0.181 0.115 0.294 0.149 0.126 0.038 0.219 0.087 0.248 0.13 0.025 0.038 0.142 0.11 0.26 0.159s0.251 0.122 0.296 0.163c0.045 0.041 0.171 0.104 0.279 0.141s0.247 0.107 0.309 0.155c0.061 0.049 0.206 0.121 0.322 0.16s0.244 0.104 0.284 0.144 0.173 0.106 0.295 0.147c0.122 0.040 0.252 0.105 0.289 0.144s0.166 0.103 0.288 0.143c0.122 0.040 0.259 0.107 0.304 0.149s0.171 0.106 0.279 0.143c0.108 0.037 0.247 0.107 0.309 0.155s0.206 0.121 0.322 0.16c0.116 0.039 0.244 0.104 0.284 0.144s0.173 0.106 0.295 0.147c0.122 0.040 0.252 0.105 0.289 0.144s0.162 0.102 0.278 0.141c0.117 0.039 0.264 0.112 0.328 0.163s0.192 0.115 0.285 0.142c0.093 0.027 0.222 0.092 0.288 0.144s0.215 0.127 0.332 0.166c0.117 0.039 0.235 0.098 0.262 0.131s0.164 0.102 0.304 0.154 0.266 0.115 0.28 0.141c0.014 0.026 0.147 0.092 0.294 0.148 0.197 0.074 0.277 0.122 0.303 0.178 0.019 0.042 0.093 0.14 0.164 0.217 0.078 0.085 0.154 0.214 0.193 0.328 0.035 0.103 0.093 0.228 0.128 0.276 0.096 0.132 0.117 0.206 0.174 0.619 0.029 0.208 0.087 0.523 0.13 0.7 0.12 0.496 0.114 1.263-0.014 1.796-0.051 0.211-0.102 0.47-0.113 0.576-0.029 0.27-0.084 0.504-0.131 0.56-0.064 0.076-0.166 0.295-0.19 0.406-0.042 0.196-0.366 0.233-0.528 0.061-0.070-0.074-0.171-0.124-0.458-0.226-0.084-0.030-0.152-0.067-0.152-0.083 0-0.038-0.209-0.143-0.376-0.188-0.074-0.020-0.173-0.071-0.219-0.114s-0.151-0.101-0.233-0.13c-0.203-0.071-0.322-0.13-0.447-0.222-0.059-0.043-0.182-0.1-0.275-0.127s-0.193-0.076-0.223-0.109c-0.055-0.061-0.167-0.114-0.445-0.213-0.084-0.030-0.152-0.067-0.152-0.083 0-0.038-0.208-0.143-0.372-0.187-0.072-0.019-0.186-0.079-0.253-0.132s-0.197-0.118-0.289-0.145c-0.092-0.027-0.23-0.096-0.307-0.155s-0.205-0.131-0.284-0.161c-0.079-0.030-0.181-0.090-0.225-0.132s-0.187-0.113-0.317-0.157c-0.13-0.044-0.255-0.108-0.279-0.142s-0.156-0.099-0.295-0.145c-0.144-0.048-0.284-0.118-0.326-0.163s-0.164-0.106-0.287-0.143c-0.125-0.037-0.244-0.097-0.288-0.144-0.043-0.046-0.166-0.109-0.286-0.146-0.115-0.036-0.248-0.101-0.295-0.146s-0.179-0.115-0.293-0.157c-0.115-0.042-0.244-0.111-0.288-0.155s-0.177-0.108-0.301-0.145c-0.131-0.039-0.253-0.099-0.297-0.145-0.041-0.044-0.17-0.11-0.286-0.148s-0.248-0.103-0.293-0.145c-0.045-0.042-0.175-0.107-0.288-0.144s-0.243-0.102-0.288-0.144c-0.045-0.042-0.183-0.11-0.307-0.152s-0.262-0.113-0.307-0.158c-0.045-0.045-0.179-0.111-0.298-0.148s-0.248-0.101-0.286-0.142c-0.038-0.041-0.169-0.108-0.291-0.148s-0.259-0.107-0.304-0.149c-0.045-0.042-0.175-0.107-0.288-0.144s-0.243-0.102-0.288-0.144c-0.045-0.042-0.16-0.101-0.256-0.132-0.194-0.062-0.212-0.096-0.159-0.293 0.060-0.224 0.207-0.247 0.433-0.067 0.067 0.054 0.198 0.119 0.29 0.146s0.202 0.078 0.243 0.115c0.093 0.081 0.297 0.188 0.359 0.188 0.025 0 0.121 0.052 0.213 0.115s0.248 0.143 0.346 0.177c0.098 0.034 0.209 0.089 0.245 0.123 0.076 0.072 0.33 0.192 0.407 0.193 0.029 0 0.113 0.051 0.187 0.113s0.212 0.135 0.308 0.162c0.095 0.028 0.213 0.083 0.261 0.124 0.113 0.094 0.253 0.165 0.384 0.193 0.057 0.012 0.161 0.070 0.231 0.129s0.199 0.125 0.287 0.147 0.203 0.080 0.256 0.129c0.080 0.073 0.398 0.221 0.475 0.221 0.013 0 0.063 0.043 0.113 0.095 0.058 0.062 0.163 0.117 0.298 0.158 0.118 0.035 0.24 0.096 0.281 0.141 0.040 0.043 0.172 0.111 0.294 0.152 0.126 0.042 0.246 0.105 0.278 0.146s0.15 0.103 0.273 0.143c0.119 0.039 0.253 0.105 0.299 0.148s0.182 0.113 0.303 0.157c0.121 0.044 0.257 0.113 0.301 0.154s0.175 0.107 0.289 0.147c0.114 0.040 0.245 0.107 0.289 0.149s0.163 0.104 0.264 0.139c0.1 0.035 0.238 0.107 0.306 0.162s0.174 0.113 0.237 0.13c0.062 0.017 0.148 0.065 0.189 0.106 0.097 0.095 0.185 0.141 0.384 0.201 0.088 0.026 0.189 0.081 0.225 0.122 0.062 0.071 0.233 0.15 0.414 0.19 0.045 0.010 0.127 0.061 0.182 0.114 0.059 0.056 0.176 0.117 0.286 0.148 0.108 0.031 0.227 0.092 0.286 0.147 0.057 0.054 0.186 0.122 0.3 0.157 0.11 0.034 0.249 0.105 0.309 0.157s0.191 0.118 0.292 0.147c0.108 0.031 0.226 0.092 0.286 0.149 0.262 0.249 0.588-0.080 0.413-0.418-0.073-0.141-0.349-0.38-0.47-0.406-0.126-0.027-0.279-0.1-0.343-0.164s-0.152-0.107-0.323-0.157c-0.083-0.025-0.2-0.089-0.261-0.143s-0.184-0.12-0.275-0.146c-0.091-0.026-0.228-0.096-0.305-0.155s-0.207-0.132-0.29-0.162c-0.082-0.031-0.182-0.090-0.221-0.131s-0.166-0.107-0.282-0.145c-0.116-0.038-0.255-0.109-0.308-0.157s-0.188-0.118-0.3-0.155c-0.112-0.037-0.236-0.102-0.276-0.146-0.041-0.045-0.166-0.107-0.289-0.145-0.119-0.037-0.248-0.101-0.286-0.142s-0.169-0.108-0.291-0.148c-0.127-0.042-0.249-0.105-0.286-0.149s-0.164-0.11-0.298-0.155c-0.129-0.043-0.258-0.109-0.288-0.145s-0.155-0.103-0.278-0.147-0.26-0.114-0.304-0.154c-0.044-0.040-0.174-0.106-0.288-0.145s-0.245-0.107-0.29-0.149c-0.045-0.042-0.171-0.107-0.281-0.144s-0.258-0.116-0.329-0.176c-0.072-0.060-0.151-0.109-0.177-0.109-0.064 0-0.237-0.090-0.321-0.167-0.038-0.035-0.165-0.098-0.282-0.14s-0.251-0.113-0.299-0.158c-0.048-0.045-0.162-0.103-0.255-0.131s-0.208-0.082-0.256-0.122c-0.114-0.095-0.204-0.141-0.374-0.192-0.076-0.023-0.195-0.085-0.262-0.139s-0.198-0.121-0.289-0.15c-0.091-0.029-0.22-0.096-0.285-0.148s-0.198-0.118-0.293-0.145c-0.096-0.028-0.201-0.077-0.234-0.11-0.072-0.072-0.268-0.173-0.397-0.204-0.052-0.012-0.141-0.063-0.197-0.113s-0.199-0.122-0.317-0.162c-0.118-0.039-0.245-0.106-0.281-0.148s-0.147-0.101-0.245-0.13c-0.225-0.068-0.246-0.089-0.272-0.272-0.029-0.202 0.063-0.268 0.192-0.14 0.1 0.1 0.212 0.159 0.394 0.208 0.077 0.021 0.172 0.073 0.212 0.116s0.179 0.114 0.309 0.159 0.259 0.11 0.287 0.147c0.028 0.037 0.151 0.101 0.272 0.141s0.259 0.112 0.306 0.159c0.047 0.046 0.175 0.112 0.284 0.147s0.245 0.102 0.301 0.151c0.056 0.049 0.187 0.116 0.292 0.148s0.233 0.098 0.286 0.146c0.053 0.048 0.191 0.119 0.308 0.157s0.244 0.104 0.285 0.147c0.040 0.043 0.168 0.109 0.285 0.147s0.25 0.105 0.296 0.148c0.047 0.043 0.181 0.114 0.298 0.156s0.245 0.111 0.283 0.153c0.039 0.042 0.164 0.108 0.279 0.148s0.242 0.106 0.283 0.147 0.165 0.104 0.276 0.141c0.111 0.037 0.225 0.093 0.255 0.125s0.11 0.082 0.18 0.111c0.070 0.029 0.184 0.076 0.254 0.105s0.151 0.079 0.18 0.111c0.029 0.032 0.144 0.088 0.255 0.126s0.255 0.109 0.318 0.16c0.064 0.051 0.19 0.117 0.28 0.146s0.224 0.101 0.298 0.157c0.074 0.057 0.2 0.119 0.28 0.14s0.186 0.070 0.236 0.112c0.117 0.098 0.206 0.143 0.377 0.195 0.076 0.023 0.195 0.085 0.262 0.139s0.198 0.121 0.289 0.15c0.091 0.029 0.22 0.096 0.285 0.148s0.197 0.117 0.291 0.145 0.218 0.092 0.275 0.144c0.061 0.056 0.192 0.121 0.321 0.16 0.122 0.036 0.226 0.087 0.237 0.116s0.129 0.101 0.262 0.163c0.134 0.062 0.261 0.138 0.283 0.169s0.154 0.095 0.293 0.141c0.139 0.046 0.261 0.105 0.27 0.129 0.035 0.091 0.207 0.151 0.323 0.113 0.414-0.137 0.18-0.757-0.352-0.932-0.096-0.032-0.228-0.101-0.295-0.155s-0.194-0.119-0.284-0.146-0.218-0.092-0.284-0.145-0.2-0.119-0.295-0.147-0.222-0.093-0.282-0.146c-0.060-0.053-0.196-0.122-0.303-0.154s-0.243-0.102-0.303-0.154c-0.060-0.053-0.187-0.119-0.282-0.146s-0.228-0.094-0.295-0.148c-0.067-0.054-0.198-0.119-0.29-0.146s-0.211-0.091-0.265-0.142c-0.057-0.054-0.176-0.116-0.284-0.146-0.102-0.029-0.222-0.087-0.266-0.128-0.089-0.083-0.339-0.205-0.423-0.206-0.030-0-0.105-0.044-0.166-0.098s-0.202-0.128-0.313-0.165-0.248-0.107-0.303-0.155c-0.056-0.048-0.194-0.118-0.308-0.156s-0.24-0.105-0.282-0.149c-0.043-0.046-0.166-0.108-0.289-0.145-0.119-0.036-0.246-0.099-0.286-0.142s-0.167-0.108-0.284-0.146c-0.124-0.040-0.235-0.099-0.269-0.143-0.031-0.041-0.158-0.113-0.282-0.16s-0.258-0.118-0.297-0.158c-0.040-0.039-0.166-0.103-0.281-0.142s-0.243-0.105-0.283-0.148c-0.040-0.043-0.165-0.108-0.278-0.146s-0.245-0.102-0.294-0.143c-0.049-0.041-0.189-0.113-0.311-0.159s-0.258-0.117-0.302-0.158c-0.044-0.041-0.155-0.099-0.246-0.129s-0.218-0.095-0.281-0.145c-0.063-0.050-0.201-0.12-0.305-0.156s-0.244-0.107-0.311-0.16c-0.067-0.053-0.179-0.111-0.25-0.13s-0.188-0.078-0.262-0.131c-0.073-0.054-0.216-0.126-0.318-0.161s-0.217-0.093-0.255-0.129-0.154-0.1-0.258-0.141c-0.206-0.083-0.267-0.159-0.267-0.337-0.001-0.212 0.224-0.227 0.435-0.029 0.037 0.035 0.165 0.099 0.284 0.142s0.265 0.121 0.324 0.173c0.060 0.052 0.16 0.105 0.223 0.117s0.188 0.072 0.276 0.133 0.239 0.138 0.334 0.17c0.095 0.032 0.226 0.102 0.293 0.155s0.164 0.106 0.217 0.118c0.128 0.030 0.268 0.102 0.378 0.194 0.050 0.041 0.167 0.098 0.262 0.125s0.224 0.092 0.288 0.142c0.064 0.051 0.191 0.117 0.283 0.146s0.204 0.089 0.251 0.133c0.047 0.043 0.182 0.114 0.301 0.157s0.257 0.113 0.307 0.155 0.173 0.107 0.273 0.145c0.1 0.038 0.23 0.11 0.289 0.162s0.189 0.117 0.29 0.147c0.101 0.029 0.229 0.093 0.285 0.141s0.194 0.119 0.308 0.157c0.114 0.038 0.239 0.104 0.28 0.147s0.168 0.109 0.285 0.148c0.116 0.038 0.258 0.111 0.316 0.16s0.187 0.114 0.288 0.143c0.101 0.029 0.227 0.093 0.28 0.142s0.188 0.12 0.3 0.156c0.112 0.036 0.236 0.101 0.274 0.142s0.17 0.108 0.292 0.148c0.132 0.043 0.245 0.102 0.279 0.146s0.146 0.103 0.272 0.144c0.118 0.039 0.251 0.103 0.295 0.144s0.179 0.111 0.299 0.156c0.12 0.045 0.259 0.116 0.307 0.156s0.181 0.107 0.293 0.148c0.113 0.041 0.241 0.107 0.285 0.148s0.181 0.111 0.304 0.155 0.229 0.096 0.235 0.115c0.014 0.043 0.151 0.114 0.347 0.179 0.085 0.028 0.191 0.086 0.236 0.128s0.166 0.106 0.27 0.141c0.104 0.036 0.224 0.088 0.266 0.115 0.049 0.032 0.107 0.043 0.162 0.029 0.397-0.099 0.224-0.702-0.24-0.834-0.103-0.029-0.231-0.093-0.283-0.142s-0.191-0.12-0.308-0.158-0.245-0.105-0.287-0.149c-0.044-0.047-0.167-0.108-0.295-0.147-0.121-0.037-0.228-0.087-0.237-0.112-0.022-0.056-0.206-0.152-0.386-0.201-0.075-0.020-0.168-0.072-0.208-0.115s-0.178-0.114-0.306-0.158c-0.129-0.044-0.258-0.109-0.288-0.146s-0.155-0.103-0.278-0.148c-0.123-0.044-0.26-0.114-0.304-0.155s-0.174-0.107-0.288-0.147c-0.114-0.040-0.244-0.105-0.288-0.145s-0.179-0.108-0.3-0.152-0.258-0.114-0.304-0.157c-0.047-0.043-0.178-0.11-0.293-0.15s-0.23-0.1-0.256-0.133c-0.026-0.033-0.148-0.097-0.271-0.141s-0.252-0.108-0.288-0.142c-0.036-0.034-0.171-0.105-0.301-0.157s-0.267-0.125-0.304-0.16c-0.037-0.035-0.167-0.1-0.288-0.143s-0.258-0.116-0.304-0.16c-0.047-0.044-0.16-0.109-0.252-0.144s-0.212-0.101-0.266-0.146c-0.054-0.046-0.177-0.106-0.273-0.134s-0.214-0.084-0.262-0.124c-0.111-0.093-0.253-0.165-0.377-0.191-0.053-0.012-0.147-0.064-0.208-0.116s-0.202-0.125-0.313-0.162c-0.111-0.037-0.227-0.094-0.257-0.127-0.063-0.067-0.315-0.189-0.395-0.19-0.029-0-0.113-0.051-0.187-0.113-0.075-0.063-0.213-0.135-0.315-0.164-0.1-0.029-0.227-0.092-0.282-0.14s-0.194-0.119-0.308-0.157c-0.114-0.038-0.239-0.104-0.28-0.147s-0.165-0.109-0.278-0.146c-0.114-0.038-0.24-0.106-0.283-0.152s-0.174-0.121-0.292-0.166c-0.272-0.104-0.376-0.332-0.242-0.535 0.033-0.050 0.416 0.085 0.567 0.2 0.058 0.044 0.193 0.115 0.299 0.156s0.245 0.115 0.307 0.162c0.062 0.047 0.18 0.106 0.261 0.131s0.197 0.087 0.256 0.139c0.059 0.052 0.194 0.126 0.299 0.164s0.223 0.104 0.262 0.145 0.166 0.107 0.282 0.145c0.116 0.038 0.25 0.105 0.296 0.148s0.178 0.113 0.293 0.154c0.115 0.042 0.244 0.111 0.288 0.155s0.173 0.108 0.288 0.144c0.115 0.035 0.243 0.099 0.286 0.142s0.172 0.109 0.287 0.147c0.115 0.038 0.243 0.106 0.284 0.149s0.16 0.111 0.265 0.149c0.105 0.038 0.232 0.104 0.282 0.146s0.186 0.111 0.303 0.154 0.261 0.12 0.321 0.173c0.060 0.053 0.135 0.097 0.165 0.097 0.079 0.001 0.331 0.12 0.409 0.193 0.036 0.034 0.148 0.090 0.248 0.124s0.236 0.106 0.303 0.159c0.066 0.053 0.164 0.106 0.217 0.118 0.127 0.030 0.268 0.102 0.376 0.192 0.048 0.040 0.165 0.096 0.259 0.123s0.225 0.092 0.29 0.145c0.066 0.052 0.193 0.119 0.283 0.149s0.224 0.101 0.298 0.157c0.074 0.057 0.2 0.119 0.28 0.139s0.186 0.071 0.236 0.112c0.116 0.097 0.255 0.167 0.387 0.196 0.057 0.012 0.163 0.072 0.235 0.132s0.212 0.133 0.312 0.162c0.1 0.029 0.228 0.093 0.285 0.143s0.184 0.114 0.282 0.143c0.098 0.029 0.227 0.095 0.287 0.148s0.196 0.122 0.303 0.154c0.106 0.032 0.242 0.102 0.302 0.154 0.304 0.267 0.764 0.191 0.707-0.117-0.054-0.288-0.086-0.337-0.292-0.437-0.108-0.053-0.236-0.129-0.285-0.169s-0.167-0.095-0.261-0.122c-0.094-0.027-0.211-0.083-0.259-0.123-0.108-0.090-0.249-0.162-0.376-0.192-0.053-0.012-0.152-0.067-0.219-0.121s-0.183-0.116-0.256-0.139c-0.181-0.055-0.309-0.116-0.309-0.148 0-0.037-0.213-0.142-0.378-0.186-0.076-0.020-0.168-0.072-0.204-0.114-0.071-0.081-0.274-0.176-0.378-0.176-0.034 0-0.11-0.041-0.167-0.091-0.131-0.114-0.214-0.158-0.406-0.215-0.083-0.025-0.186-0.082-0.228-0.126-0.043-0.046-0.166-0.109-0.282-0.145-0.113-0.035-0.255-0.106-0.314-0.159s-0.188-0.118-0.286-0.147c-0.098-0.028-0.224-0.092-0.281-0.142s-0.194-0.12-0.306-0.157c-0.112-0.037-0.236-0.102-0.276-0.145-0.041-0.044-0.166-0.107-0.286-0.144-0.128-0.039-0.25-0.102-0.304-0.156-0.052-0.052-0.173-0.115-0.287-0.15-0.108-0.033-0.237-0.099-0.287-0.146s-0.183-0.117-0.296-0.155c-0.113-0.038-0.222-0.095-0.243-0.129s-0.143-0.1-0.272-0.148c-0.129-0.048-0.27-0.121-0.314-0.162s-0.178-0.109-0.297-0.152c-0.119-0.043-0.251-0.113-0.293-0.154s-0.153-0.103-0.248-0.136c-0.094-0.033-0.217-0.1-0.272-0.148s-0.171-0.115-0.256-0.147c-0.086-0.032-0.215-0.104-0.288-0.159s-0.198-0.117-0.277-0.137-0.186-0.070-0.236-0.112c-0.12-0.1-0.208-0.145-0.391-0.199-0.083-0.025-0.186-0.081-0.228-0.126-0.043-0.046-0.166-0.109-0.282-0.145-0.113-0.035-0.253-0.105-0.311-0.156s-0.197-0.123-0.308-0.16c-0.43-0.144-0.713-0.566-0.513-0.766 0.084-0.084 0.39-0.004 0.561 0.146zM29.553 18.469c0.132 0.107 0.203 0.523 0.13 0.761-0.016 0.051-0.060 0.197-0.098 0.324-0.055 0.183-0.087 0.24-0.155 0.272-0.047 0.022-0.101 0.072-0.119 0.109-0.058 0.117-0.11 0.163-0.202 0.182-0.093 0.019-0.42 0.309-0.482 0.428-0.054 0.103-0.044 0.313 0.028 0.602 0.080 0.323 0.079 0.348-0.008 0.504-0.068 0.121-0.267 0.248-0.39 0.248-0.023 0-0.092 0.035-0.155 0.077l-0.114 0.077-0.053-0.132c-0.053-0.131-0.052-0.132 0.052-0.326l0.105-0.194 0.012-0.856 0.012-0.856-0.099-0.099c-0.108-0.108-0.107-0.104-0.099-0.334 0.007-0.195 0.031-0.227 0.19-0.252 0.073-0.012 0.178-0.065 0.256-0.13 0.072-0.060 0.185-0.127 0.251-0.148s0.163-0.078 0.216-0.127c0.181-0.167 0.588-0.242 0.722-0.133zM28.773 19.043c-0.157 0.174-0.212 0.681-0.087 0.806 0.162 0.162 0.343 0.099 0.435-0.15 0.031-0.084 0.078-0.179 0.104-0.209 0.152-0.179-0.295-0.621-0.452-0.447zM26.98 19.711c0.34 0.161 0.514 0.965 0.349 1.613-0.042 0.167-0.101 0.414-0.13 0.551-0.038 0.176-0.071 0.258-0.115 0.281-0.034 0.018-0.091 0.090-0.126 0.159-0.067 0.131-0.427 0.512-0.483 0.512-0.018 0-0.073 0.045-0.123 0.1-0.143 0.156-0.609 0.211-0.889 0.104-0.34-0.13-0.41-1.923-0.084-2.193 0.029-0.024 0.093-0.132 0.14-0.238s0.154-0.262 0.235-0.344c0.081-0.083 0.148-0.164 0.148-0.182s0.114-0.089 0.254-0.159c0.14-0.070 0.264-0.143 0.275-0.163 0.062-0.1 0.376-0.124 0.549-0.042zM26.084 20.49c-0.047 0.056-0.086 0.118-0.086 0.137s-0.046 0.13-0.103 0.246c-0.116 0.238-0.167 0.866-0.093 1.142 0.034 0.126 0.335 0.461 0.415 0.461 0.070 0 0.395-0.418 0.44-0.564 0.054-0.178 0.063-1.084 0.013-1.264-0.069-0.25-0.428-0.346-0.586-0.158zM24.539 20.854c0.056 0.041 0.056 0.054-0.010 0.376-0.099 0.485-0.101 1.683-0.002 2.072l0.066 0.262-0.074 0.104c-0.128 0.18-0.187 0.221-0.436 0.305l-0.242 0.081-0.061-0.075c-0.036-0.044-0.054-0.102-0.044-0.141 0.010-0.036 0.048-0.177 0.085-0.314 0.119-0.441-0.052-0.62-0.451-0.471-0.265 0.099-0.303 0.164-0.301 0.51 0.002 0.285 0.030 0.373 0.161 0.515l0.075 0.081-0.121 0.174c-0.106 0.153-0.145 0.183-0.319 0.242-0.109 0.038-0.255 0.108-0.326 0.157-0.254 0.176-0.343-0.149-0.111-0.406l0.114-0.127-0.020-1.804-0.107-0.149c-0.16-0.223-0.051-0.455 0.262-0.559 0.091-0.030 0.217-0.089 0.28-0.131 0.162-0.107 0.305-0.144 0.349-0.091 0.048 0.058-0.022 0.329-0.096 0.369-0.202 0.108-0.21 0.652-0.011 0.763 0.058 0.033 0.328-0.019 0.454-0.087 0.158-0.085 0.341-0.687 0.229-0.756-0.237-0.147-0.196-0.606 0.061-0.683 0.071-0.021 0.169-0.072 0.218-0.113 0.186-0.154 0.275-0.179 0.376-0.106zM21.689 22.315c0.081 0.031 0.082 0.037 0.080 0.344l-0.002 0.313-0.155 0.118c-0.17 0.129-0.195 0.13-0.536 0.004-0.257-0.095-0.514 0.045-0.588 0.32-0.070 0.259 0.036 0.32 0.593 0.342 0.467 0.018 0.486 0.025 0.624 0.216 0.145 0.2 0.14 0.452-0.014 0.757-0.061 0.121-0.111 0.246-0.111 0.279s-0.057 0.105-0.127 0.161-0.136 0.131-0.147 0.165c-0.011 0.034-0.081 0.089-0.155 0.122s-0.173 0.095-0.22 0.139c-0.098 0.091-0.307 0.133-0.512 0.102-0.152-0.023-0.226 0.029-0.315 0.221-0.040 0.087-0.061 0.097-0.217 0.106-0.218 0.012-0.226-0.001-0.226-0.362l-0-0.288 0.173-0.184c0.187-0.199 0.177-0.197 0.428-0.081 0.273 0.126 0.353 0.116 0.576-0.072 0.412-0.348 0.311-0.466-0.418-0.489-0.457-0.014-0.46-0.016-0.544-0.247-0.070-0.193-0.074-0.445-0.010-0.736 0.029-0.132 0.052-0.251 0.052-0.265 0-0.034 0.204-0.259 0.446-0.491 0.228-0.218 0.352-0.257 0.694-0.216 0.175 0.021 0.159 0.031 0.343-0.227 0.061-0.087 0.154-0.103 0.293-0.050z"></path>
</symbol>
<symbol id="Amazon_logo" viewBox="0 0 106 32">
<path d="M65.759 24.999c-6.154 4.536-15.073 6.956-22.753 6.956-10.768 0-20.462-3.983-27.796-10.607-0.576-0.521-0.060-1.231 0.631-0.825 7.915 4.605 17.701 7.375 27.809 7.375 6.818 0 14.317-1.411 21.213-4.338 1.042-0.443 1.913 0.682 0.894 1.438z"></path>
<path d="M68.318 22.072c-0.784-1.005-5.2-0.475-7.182-0.24-0.604 0.074-0.696-0.452-0.152-0.83 3.517-2.475 9.288-1.761 9.961-0.931 0.673 0.834-0.175 6.619-3.48 9.38-0.507 0.424-0.991 0.198-0.765-0.364 0.742-1.853 2.406-6.006 1.618-7.016z"></path>
<path d="M61.274 3.528v-2.406c0-0.364 0.277-0.608 0.608-0.608h10.773c0.346 0 0.622 0.249 0.622 0.608v2.060c-0.005 0.346-0.295 0.797-0.811 1.512l-5.582 7.97c2.074-0.051 4.264 0.258 6.145 1.318 0.424 0.24 0.539 0.59 0.572 0.936v2.568c0 0.35-0.387 0.761-0.793 0.549-3.314-1.738-7.716-1.927-11.381 0.018-0.373 0.203-0.765-0.203-0.765-0.553v-2.438c0-0.392 0.005-1.060 0.396-1.655l6.467-9.274h-5.628c-0.346 0-0.622-0.244-0.622-0.604z"></path>
<path d="M21.978 18.541h-3.277c-0.313-0.023-0.562-0.258-0.585-0.558v-16.82c0-0.337 0.281-0.604 0.631-0.604h3.056c0.318 0.014 0.572 0.258 0.595 0.562v2.199h0.060c0.797-2.125 2.296-3.116 4.315-3.116 2.051 0 3.333 0.991 4.255 3.116 0.793-2.125 2.595-3.116 4.527-3.116 1.374 0 2.876 0.567 3.794 1.839 1.037 1.415 0.825 3.471 0.825 5.273l-0.005 10.616c0 0.337-0.281 0.608-0.632 0.608h-3.273c-0.327-0.023-0.59-0.286-0.59-0.608v-8.915c0-0.71 0.065-2.48-0.092-3.153-0.244-1.129-0.977-1.447-1.927-1.447-0.793 0-1.623 0.53-1.959 1.378s-0.304 2.268-0.304 3.222v8.915c0 0.337-0.281 0.608-0.631 0.608h-3.273c-0.332-0.023-0.59-0.286-0.59-0.608l-0.005-8.915c0-1.876 0.309-4.637-2.019-4.637-2.355 0-2.263 2.692-2.263 4.637v8.915c0 0.337-0.281 0.608-0.631 0.608z"></path>
<path d="M82.552 0.205c4.863 0 7.495 4.176 7.495 9.486 0 5.13-2.909 9.201-7.495 9.201-4.775 0-7.375-4.176-7.375-9.38 0-5.236 2.632-9.307 7.375-9.307zM82.58 3.639c-2.415 0-2.568 3.291-2.568 5.342 0 2.056-0.032 6.444 2.54 6.444 2.54 0 2.66-3.54 2.66-5.697 0-1.42-0.060-3.116-0.489-4.462-0.369-1.171-1.102-1.627-2.143-1.627z"></path>
<path d="M96.353 18.541h-3.264c-0.327-0.023-0.59-0.286-0.59-0.608l-0.005-16.825c0.028-0.309 0.3-0.549 0.632-0.549h3.038c0.286 0.014 0.521 0.207 0.585 0.47v2.572h0.060c0.917-2.3 2.203-3.397 4.467-3.397 1.47 0 2.904 0.53 3.826 1.982 0.857 1.346 0.857 3.609 0.857 5.236v10.588c-0.037 0.295-0.309 0.53-0.632 0.53h-3.287c-0.3-0.023-0.549-0.244-0.581-0.53v-9.136c0-1.839 0.212-4.531-2.051-4.531-0.797 0-1.53 0.535-1.895 1.346-0.461 1.028-0.521 2.051-0.521 3.185v9.058c-0.005 0.337-0.29 0.608-0.641 0.608z"></path>
<path d="M52.687 10.507v-0.71c-2.369 0-4.872 0.507-4.872 3.3 0 1.415 0.733 2.374 1.991 2.374 0.922 0 1.747-0.567 2.268-1.489 0.645-1.134 0.613-2.199 0.613-3.476zM55.992 18.495c-0.217 0.194-0.53 0.207-0.774 0.078-1.088-0.903-1.281-1.323-1.881-2.185-1.798 1.835-3.070 2.383-5.402 2.383-2.757 0-4.905-1.701-4.905-5.107 0-2.66 1.443-4.471 3.494-5.356 1.779-0.784 4.264-0.922 6.163-1.139v-0.424c0-0.779 0.060-1.701-0.396-2.374-0.401-0.604-1.166-0.853-1.839-0.853-1.249 0-2.365 0.641-2.637 1.968-0.055 0.295-0.272 0.585-0.567 0.599l-3.181-0.341c-0.267-0.060-0.562-0.277-0.489-0.687 0.733-3.854 4.213-5.015 7.329-5.015 1.595 0 3.678 0.424 4.937 1.632 1.595 1.489 1.443 3.476 1.443 5.638v5.107c0 1.535 0.636 2.208 1.235 3.038 0.212 0.295 0.258 0.65-0.009 0.871-0.668 0.558-1.858 1.595-2.512 2.176l-0.009-0.009z"></path>
<path d="M9.721 10.507v-0.71c-2.369 0-4.872 0.507-4.872 3.3 0 1.415 0.733 2.374 1.991 2.374 0.922 0 1.747-0.567 2.268-1.489 0.645-1.134 0.613-2.199 0.613-3.476zM13.026 18.495c-0.217 0.194-0.53 0.207-0.774 0.078-1.088-0.903-1.281-1.323-1.881-2.185-1.798 1.835-3.070 2.383-5.402 2.383-2.756 0-4.905-1.701-4.905-5.107 0-2.66 1.443-4.471 3.494-5.356 1.779-0.784 4.264-0.922 6.163-1.139v-0.424c0-0.779 0.060-1.701-0.396-2.374-0.401-0.604-1.166-0.853-1.839-0.853-1.249 0-2.365 0.641-2.637 1.968-0.055 0.295-0.272 0.585-0.567 0.599l-3.181-0.341c-0.267-0.060-0.562-0.277-0.489-0.687 0.733-3.854 4.213-5.015 7.329-5.015 1.595 0 3.678 0.424 4.937 1.632 1.595 1.489 1.443 3.476 1.443 5.638v5.107c0 1.535 0.636 2.208 1.235 3.038 0.212 0.295 0.258 0.65-0.009 0.871-0.668 0.558-1.858 1.595-2.512 2.176l-0.009-0.009z"></path>
</symbol>
</defs>
</svg>
